<?xml version="1.0" standalone="no"?>
<!DOCTYPE svg PUBLIC "-//W3C//DTD SVG 1.1//EN" "http://www.w3.org/Graphics/SVG/1.1/DTD/svg11.dtd" >
<svg xmlns="http://www.w3.org/2000/svg">
<metadata>
This is a custom SVG webfont generated by Font Squirrel.
Copyright   : 1991 1992 1993 The Font Bureau Inc Designed by Tobias FrereJones
Foundry     : The Font Bureau Inc
</metadata>
<defs>
<font id="GarageGothicRegular" horiz-adv-x="598" >
<font-face units-per-em="2048" ascent="1638" descent="-410" />
<missing-glyph horiz-adv-x="256" />
<glyph unicode="&#xd;" horiz-adv-x="286" d="M78 33v919q0 23 13 28t48 5q41 0 55.5 -3t14.5 -32v-913q0 -29 -10.5 -33t-59.5 -4q-43 0 -52 4t-9 29z" />
<glyph horiz-adv-x="585" d="M172 1237q4 47 26.5 79t96.5 40q27 2 49.5 -8.5t37.5 -30t23.5 -45t6.5 -51.5q-2 -25 -6.5 -46.5t-15.5 -39t-33.5 -29.5t-61.5 -16q-29 -4 -52.5 8t-40 32.5t-25.5 48t-5 58.5zM236 1225q-4 -33 16 -52.5t43 -17.5q33 6 41 22.5t12 39.5q6 33 -9 53t-44 16 q-23 -4 -34 -9t-16 -12.5t-6 -17.5t-3 -22z" />
<glyph unicode=" "  horiz-adv-x="256" />
<glyph unicode="&#x09;" horiz-adv-x="256" />
<glyph unicode="&#xa0;" horiz-adv-x="256" />
<glyph unicode="!" horiz-adv-x="294" d="M61 80q-4 41 22 73.5t64 28.5q35 -4 52.5 -12t24.5 -21.5t7 -30t-2 -34.5q-2 -35 -24.5 -57.5t-57.5 -26.5q-27 -2 -43 4t-25 17.5t-12.5 27t-5.5 31.5zM82 381v1018q0 23 10 29t51 6q47 0 58.5 -5.5t11.5 -33.5v-1012q0 -23 -12.5 -30t-57.5 -7q-41 0 -51 6t-10 29z" />
<glyph unicode="&#x22;" horiz-adv-x="454" d="M63 1161q0 53 1.5 89t-1.5 87q-4 88 33 95q16 4 30.5 5t33.5 1q12 0 22.5 -4t10.5 -35v-83q0 -30 -1.5 -53.5t-1.5 -49.5v-68q0 -8 -8 -29.5t-30 -17.5q-16 4 -27.5 3t-30.5 -3q-18 -2 -24.5 13t-6.5 50zM264 1161q0 53 1 89t-1 87q-2 41 7.5 68t25.5 27t31.5 1t31.5 5 q12 4 22.5 -2t10.5 -37v-83q0 -30 -1 -53.5t-1 -49.5v-68q0 -8 -8 -29.5t-31 -17.5q-16 4 -27.5 3t-29.5 -3t-24.5 13t-6.5 50z" />
<glyph unicode="#" horiz-adv-x="946" d="M69 781.5q1 21.5 4 39t7 17.5q47 4 89 4t52 4q4 2 14.5 44t20.5 91t16.5 91t3.5 46q-4 4 -20 5t-38.5 1t-49.5 1t-51 8q-10 2 -13.5 18t-3.5 34.5t5.5 35t15.5 20.5q23 6 49.5 7t50 -1t43 -2t25.5 4q4 2 9 22.5t11 49.5t12.5 60.5t10.5 58.5q2 8 21.5 11t41 3t39 -5 t17.5 -15q0 -20 -5.5 -51t-10.5 -60t-7 -50.5t2 -23.5t33 -3t61.5 -1t59 1t30.5 3q2 2 7.5 22.5t10.5 48.5t10 60.5t9 59.5q0 8 18.5 11t40 3t39 -5t17.5 -15q-2 -23 -7 -54.5t-9.5 -60.5t-6.5 -49.5t0 -22.5q8 -6 44 -7t75 1q8 0 12.5 -16.5t5.5 -37t-2.5 -39t-9.5 -20.5 q-47 -8 -91 -4t-54 -2q-4 -4 -13.5 -46t-18.5 -93t-15 -95t-4 -48t16 -5t34.5 0t47.5 2t53 1q6 0 9.5 -17.5t3.5 -38t-2.5 -38t-6.5 -17.5q-25 -2 -53.5 -2t-54 -1t-44 -2t-22.5 -5q-2 -2 -8 -33t-13 -71t-17.5 -82t-20.5 -66q-4 -8 -21.5 -11t-37 -2t-36 5t-18.5 14 q0 12 6.5 49t14.5 77t14 74t6 38q0 2 -28.5 4t-64.5 2t-65.5 -1t-33.5 -5q-2 -2 -6.5 -28t-10.5 -61.5t-13 -72.5t-17 -62q-4 -8 -22.5 -12t-40 -5t-39 3t-17.5 14q0 23 5 59t12 71.5t12.5 62.5t3.5 31q-6 10 -37 9t-82 7q-6 0 -8 17.5t-1 39zM358 840q2 -2 29 -4t58.5 -2 t58 1t31.5 5q2 2 7 22.5t12 51t14 65.5t12.5 64.5t8.5 51t3 23.5q-2 2 -28.5 4t-59.5 2t-61.5 -1t-32.5 -5q-2 -2 -11.5 -45t-18.5 -94t-16.5 -94t-5.5 -45z" />
<glyph unicode="$" horiz-adv-x="577" d="M51 238v102q0 27 14.5 33t55.5 6t54 -4t13 -31v-100q0 -39 22.5 -73t78.5 -34q33 0 53 11.5t31.5 28t15.5 35.5t4 38v125q0 82 -50 167t-112 171q-33 45 -63.5 91t-55 91t-40 91t-15.5 91v113q0 33 8.5 68.5t26 67.5t46 57.5t69.5 37.5q10 4 12 13.5t2 17.5v104 q0 16 13.5 19.5t48.5 3.5q37 0 51 -3t14 -13v-113q0 -8 1 -16.5t11 -12.5q43 -16 73 -41.5t48.5 -56.5t26.5 -64.5t8 -66.5v-88q0 -14 -20.5 -18.5t-49.5 -4.5t-48 4.5t-19 20.5v90q0 51 -28.5 81t-63.5 30q-43 0 -70 -35t-27 -74v-121q0 -59 45.5 -129.5t104.5 -152.5 q33 -47 66.5 -97.5t60.5 -103.5t43 -108.5t16 -112.5v-135q0 -86 -46 -144.5t-118 -83.5q-6 -2 -8 -11t-2 -15v-95q0 -16 -15 -21t-54 -5q-35 0 -48.5 5t-13.5 21v91v16q0 10 -8 12q-72 16 -117 74t-45 156z" />
<glyph unicode="%" horiz-adv-x="618" d="M61 1069v240q0 47 34 86t85 39t85 -39t34 -86v-240q0 -49 -34 -89t-85 -40t-85 40t-34 89zM63.5 4q-8.5 4 2.5 33q55 197 103 362.5t94 325.5t92 321.5t100 348.5q4 18 12 27.5t31 9.5q29 0 45 -8.5t10 -30.5q-53 -186 -99 -350t-92.5 -325t-95.5 -327t-108 -356 q-8 -25 -24.5 -30t-39.5 -5q-22 0 -30.5 4zM137 1071q0 -16 12.5 -32.5t30.5 -16.5t29.5 15.5t11.5 33.5v238q0 18 -12 33.5t-29 15.5q-18 0 -30.5 -16.5t-12.5 -32.5v-238zM319 129v240q0 47 34 86t85 39t85 -39t34 -86v-240q0 -49 -34 -89t-85 -40t-85 40t-34 89zM395 131 q0 -16 12.5 -32.5t30.5 -16.5t29.5 15.5t11.5 33.5v238q0 18 -12 33.5t-29 15.5q-18 0 -30.5 -16.5t-12.5 -32.5v-238z" />
<glyph unicode="&#x26;" horiz-adv-x="663" d="M61 238v249q0 66 33 122.5t82 113.5q6 8 10 15t4 18v16q0 2 -8 27q-47 125 -78.5 229.5t-31.5 163.5q0 39 14 82t42 77.5t71 58.5t102 24q63 0 107.5 -24t71 -58.5t38.5 -78.5t12 -83v-125q-2 -90 -49 -163t-108 -146q-6 -8 -12.5 -14.5t-6.5 -16.5t1 -16.5t5 -16.5 q20 -53 39 -103t41 -97l11 -21q2 -4 8 -2q10 2 10 31v51q0 49 -1 65.5t-1 26.5t11 8t24 -2h22q8 0 21 -2q10 -2 28.5 2t18.5 -10q0 -6 1 -21.5t1 -68.5q0 -78 -8 -133.5t-23 -114.5q-8 -35 -8 -55q0 -23 4 -41.5t13.5 -43t24.5 -60t38 -91.5q4 -12 -12.5 -11t-26.5 3 q-33 -2 -64 0q-10 2 -22 -2t-16 12q-12 39 -18.5 59.5t-16.5 20.5q-6 0 -7 -3t-20 -19q-43 -37 -78 -53.5t-75 -16.5q-100 0 -159 67t-59 171zM195 250q0 -18 1 -37.5t8 -36t24.5 -28t50.5 -11.5q27 0 54 13.5t52 48.5q14 20 14 41q0 16 -2 24t-6 19l-34 78q-15 36 -29.5 70 t-28.5 69t-31 78q-4 12 -6 20t-12 8t-23 -20q-14 -25 -23 -49.5t-9 -47.5v-239zM205 1196q0 -41 21.5 -116.5t56.5 -180.5q4 -16 7 -19t13 -3q14 0 21.5 9t13.5 19q27 39 43 77t16 81v135q0 39 -26.5 74t-69.5 35q-35 0 -65.5 -30t-30.5 -81z" />
<glyph unicode="'" horiz-adv-x="253" d="M63 1161q0 53 1.5 89t-1.5 87q-2 41 7.5 68t25.5 27t31.5 1t32.5 5q12 4 22.5 -2t10.5 -37v-83q0 -30 -1.5 -53.5t-1.5 -49.5v-68q0 -8 -8 -29.5t-30 -17.5q-16 4 -27.5 3t-30.5 -3q-18 -2 -24.5 13t-6.5 50z" />
<glyph unicode="(" horiz-adv-x="327" d="M82 41v1358q0 49 15.5 94t45 80t73.5 55.5t103 20.5q16 0 15.5 -20.5t-0.5 -41.5q0 -18 -2 -41.5t-13 -23.5q-47 0 -75.5 -39t-28.5 -84v-1352q0 -47 22.5 -86t81.5 -39q10 0 11 -20v-37v-53q0 -27 -11 -27q-59 0 -104 20.5t-74.5 55.5t-44 81t-14.5 99z" />
<glyph unicode=")" horiz-adv-x="327" d="M-5 1628.5q-1 20.5 15 20.5q57 0 102.5 -20.5t75 -55.5t45 -80t15.5 -94v-1358q0 -53 -14.5 -99t-44 -81t-74.5 -55.5t-105 -20.5q-10 0 -10 27v53v37q0 20 10 20q59 0 82 39t23 86v1352q0 45 -29 84t-76 39q-10 0 -12 23.5t-2 41.5q0 21 -1 41.5z" />
<glyph unicode="*" horiz-adv-x="600" d="M60 1278q1 14 7.5 31.5t14.5 30t14 10.5q20 -6 42 -17.5t40.5 -22t31.5 -16.5t17 -4q6 4 9.5 19.5t4.5 37t1 45.5v44q0 6 16 10t34.5 4t34 -4t15.5 -10q-4 -66 -3 -108t15 -46q6 -2 21.5 6t35 20.5t40 28t34.5 25.5q4 2 15.5 -8.5t20.5 -24.5t14.5 -27.5t-0.5 -17.5 q-23 -12 -47.5 -25.5t-46 -26.5t-36 -24.5t-14.5 -17.5q0 -4 13.5 -12.5t33 -17.5t41 -20.5t37.5 -21.5q6 -4 4 -19.5t-7 -32.5t-13 -30.5t-15 -11.5q-66 29 -96.5 45t-40.5 10q-10 -8 -7 -45t3 -78q0 -6 -15.5 -9t-34 -4t-34.5 1t-16 8q-4 16 -5 38t-2 41.5t-3.5 35.5 t-6.5 20t-15 0t-25.5 -13t-32 -21.5t-33.5 -22.5q-6 -4 -17.5 7.5t-20.5 27.5t-14.5 31.5t-0.5 19.5q12 8 33.5 19.5t42 21.5t36 19.5t15.5 15.5t-13.5 15.5t-33 19.5t-42 19t-40.5 16q-7 2 -6 16z" />
<glyph unicode="+" horiz-adv-x="425" d="M41 506q0 12 3 22.5t7 12.5q12 2 29.5 3t36 1t34 1t19.5 5t5 19.5t1 34.5v40q0 20 4 33q0 4 10.5 6t22.5 2t22.5 -3t12.5 -7q2 -12 3 -31.5t1 -40.5v-36q0 -15 4 -19q8 -8 48 -8h69q4 0 7 -9.5t4 -20.5t1 -20.5t-4 -11.5q-10 -4 -30.5 -6t-41 -2t-38 -2t-19.5 -6 q-4 -4 -5 -18.5t-1 -34t1 -39t1 -33.5q0 -4 -9.5 -7t-20.5 -5t-20.5 -1t-11.5 5q-4 10 -6 30.5t-3 42t-2 39t-5 21.5q-4 6 -18.5 7t-33 1t-38 -1t-31.5 3q-4 0 -6 10.5t-2 22.5z" />
<glyph unicode="," horiz-adv-x="212" d="M23 94q0 33 16 57.5t67 20.5q35 -4 55.5 -25.5t24.5 -56.5q0 -14 -4 -43t-14 -57q-10 -29 -22.5 -54.5t-26 -45t-26.5 -31t-25 -9.5q-10 2 -13.5 14.5t-1.5 31t7.5 41t9.5 43.5q4 29 -3.5 32.5t-21.5 16.5q-10 10 -16 23t-6 42z" />
<glyph unicode="-" horiz-adv-x="421" d="M41 492q4 16 3 27t-3 30q-2 18 13.5 24.5t49.5 6.5q53 0 89 -1t88 1q41 2 67.5 -7.5t26.5 -25.5t1 -31.5t5 -32.5q4 -12 -2 -22t-37 -10h-83q-30 0 -53.5 1t-48.5 1h-69q-8 0 -29.5 8t-17.5 31z" />
<glyph unicode="." horiz-adv-x="212" d="M20 92q2 33 17.5 59.5t68.5 24.5q35 -2 57.5 -27.5t24.5 -60.5q2 -18 2 -34.5t-7 -30t-24.5 -21.5t-52.5 -12q-39 -4 -64.5 28.5t-21.5 73.5z" />
<glyph unicode="/" horiz-adv-x="432" d="M31 35q57 328 117.5 663.5t125.5 706.5q4 20 16.5 26.5t45.5 6.5q43 0 55 -6.5t8 -36.5q-33 -188 -62.5 -358.5t-58 -334t-58.5 -327.5t-60 -342q-4 -25 -23.5 -29t-50.5 -4q-27 0 -43 4t-12 31z" />
<glyph unicode="0" horiz-adv-x="618" d="M72 256v928q0 117 68.5 183.5t168.5 66.5q102 0 170 -70t68 -180v-928q0 -137 -66.5 -196.5t-171.5 -59.5q-102 0 -169.5 66.5t-67.5 189.5zM205 262q0 -63 28.5 -94t75.5 -31t75 31t28 94v922q0 43 -29 83t-74 40q-47 0 -75.5 -40t-28.5 -83v-922z" />
<glyph unicode="1" horiz-adv-x="528" d="M41 66q0 41 5 57t28 16h90h19q9 0 18 4q8 4 9 23.5t1 38.5v944v31q0 18 -8 18q-16 0 -41 -20.5t-41 -30.5l-15 -14q-8 -8 -16 -13.5t-15 -4.5t-9 13q-4 31 -7.5 49.5t2.5 51.5q2 16 29 39l53 45q12 10 21.5 26.5t16.5 34t13.5 29.5t12.5 14q39 12 60.5 14.5t51.5 2.5 q20 0 21.5 -22.5t1.5 -39.5v-1167q0 -16 1 -32.5t5 -22.5q6 -8 17.5 -9.5t17.5 -1.5h96q14 0 16.5 -15t2.5 -56q0 -68 -23 -68h-405q-20 0 -24.5 14.5t-4.5 51.5z" />
<glyph unicode="2" horiz-adv-x="546" d="M51 27v30v303q0 68 20.5 131.5t47.5 98.5q37 45 60.5 73.5t44 56.5t44 59.5t62.5 82.5q35 45 44 82t9 86v191q0 92 -107 92q-43 0 -66.5 -28t-23.5 -62v-113q0 -16 -14 -21.5t-49 -5.5t-50.5 3.5t-15.5 25.5q0 29 1 57.5t1 57.5q0 35 13.5 71.5t41 66.5t68.5 49.5 t97 19.5q57 0 101 -17.5t72.5 -47.5t43 -65.5t14.5 -72.5v-217q0 -80 -24.5 -142.5t-71.5 -121.5q-29 -35 -52.5 -66t-45 -59.5t-44 -57t-47.5 -61.5q-20 -29 -32.5 -70t-12.5 -88v-141v-36q0 -13 10 -24q8 -8 19.5 -9t28.5 -1h237q20 0 25.5 -14t5.5 -55q0 -39 -5 -53.5 t-30 -14.5h-356q-16 0 -27.5 -1t-21.5 9q-15 11 -15 19z" />
<glyph unicode="3" horiz-adv-x="557" d="M41 238v100q0 27 11 34t52 7q47 0 57.5 -3t10.5 -20v-114q0 -43 22.5 -83t77.5 -40q53 0 79 38t26 83v372q0 47 -15.5 68.5t-48.5 32.5q-20 6 -30.5 4t-18.5 -6t-15 -8.5t-20 -6.5q-25 -2 -40 8.5t-39 20.5q-10 4 -18.5 15.5t-4.5 21.5q37 80 62.5 136t45 97t33 70 t25.5 56.5t25.5 59t33.5 74.5q10 25 11.5 32t-7.5 18q-4 4 -32.5 6t-69.5 3t-86 1h-80q-27 0 -27 61q0 35 5.5 46.5t21.5 11.5h387q18 0 23.5 -14.5t5.5 -45.5q0 -35 -1 -61.5t-14 -57.5q-27 -66 -46 -111.5t-38.5 -88.5t-41 -89t-48.5 -110q-4 -8 -5 -17.5t20 -13.5 q47 -8 86 -37q90 -61 90 -163v-387q0 -49 -19.5 -92.5t-51.5 -75t-75 -51t-92 -19.5q-47 0 -89 19.5t-72.5 51t-48 75t-17.5 92.5z" />
<glyph unicode="4" horiz-adv-x="546" d="M51 311v25v209v29q0 13 4 34q4 16 8.5 28.5t8.5 29.5q31 106 56.5 189t49 164t49 169t60.5 203q10 29 21 38t57 9q57 0 68 -6.5t11 -20.5v-979v-15q0 -9 5 -14q6 -6 20 -6h27q10 0 11 -14t1 -45q0 -29 -1 -41t-11 -12h-28q-5 0 -15 -9q-6 -6 -7 -10v-14v-227 q0 -16 -17 -20.5t-58 -4.5q-31 0 -46.5 5t-15.5 22v206v19q0 8 -4 18q-6 10 -22 11h-33h-160h-18q-10 0 -15 8q-6 10 -6 22zM172 420q0 -10 6 -19q4 -4 21.5 -5t40.5 -1t40 1t23 5t6 15v22q0 72 2 134.5t3 124t3 125t2 134.5v84q0 25 -8 25q-10 0 -15 -21.5t-9 -37.5 q-23 -84 -46.5 -174.5t-45.5 -176.5q-4 -16 -10.5 -31.5t-10.5 -31.5q-2 -10 -2 -20v-19v-107v-26z" />
<glyph unicode="5" horiz-adv-x="573" d="M58 671.5q1 20.5 1 45.5v643q0 41 9 53q12 16 23 18.5t30 2.5h360q23 0 29 -14.5t6 -45.5t-5 -46t-26 -15h-233q-16 0 -26.5 -2t-20.5 -13q-10 -10 -11 -18t-1 -25v-352v-25q0 -13 2 -25.5t8 -20t18 -7.5q8 0 13.5 3t13.5 6.5t21.5 6.5t39.5 3q55 -2 90 -17.5t68 -52.5 t44 -76t11 -86v-174q0 -63 -12 -112.5t-37 -102.5q-27 -59 -73 -101t-111 -83q-12 -8 -42 -17.5t-63.5 -16.5t-64.5 -9t-47 6q-10 4 -11 21v32q0 14 1 34t8 26q12 12 20 12h23q14 0 36.5 2t61.5 16q72 27 102.5 65t42.5 60q23 43 27 78t4 84v168q0 55 -22.5 88t-67.5 33 q-35 0 -53.5 -9.5t-38.5 -29.5q-14 -14 -12 -20.5t-17 -14.5q-14 -4 -45 -7t-65 7q-9 4 -8 24.5z" />
<glyph unicode="6" horiz-adv-x="561" d="M61 295v723q0 129 48.5 210t117 127t143 63.5t128.5 17.5q10 0 11 -19.5t1 -36.5q0 -16 -2 -42.5t-10 -26.5q-59 0 -115.5 -16.5t-99.5 -51.5t-69 -92t-26 -139v-158v-19q0 -9 9 -20q12 -16 40.5 -6t61.5 10q35 0 63.5 -10t59.5 -33q39 -27 63.5 -66.5t24.5 -74.5v-338 q0 -131 -55.5 -214t-165.5 -83q-68 0 -112 23.5t-69.5 63.5t-36 94.5t-10.5 113.5zM186 293q0 -86 16.5 -127t86.5 -41q55 0 77.5 47t22.5 121v291q0 53 -29.5 82.5t-74.5 29.5q-47 0 -73 -29.5t-26 -91.5v-282z" />
<glyph unicode="7" horiz-adv-x="526" d="M31 1370q0 37 2 50.5t18 13.5h404q14 0 24 -7q4 -6 6 -14t2 -14v-187q0 -20 -14 -58t-24 -73q-14 -43 -25.5 -78.5t-22 -70.5t-18.5 -72t-16 -80q-20 -100 -38 -183t-31 -163t-22.5 -165t-13.5 -185v-43q0 -20 -8 -27q-16 -12 -30.5 -13t-30.5 -1h-31q-14 0 -27 10 q-10 10 -8 43t2 64q6 96 14.5 176t20.5 156.5t27.5 156.5t35.5 176q12 63 26.5 115.5t30 102t32 102.5t32.5 119q6 23 6 47t-8 35q-6 8 -41 8h-65h-185q-16 0 -20 14t-4 45z" />
<glyph unicode="8" d="M61 270v363q0 27 6.5 47t16.5 43q16 35 53 59q-16 14 -26.5 29.5t-20.5 32.5q-29 45 -29 96v283q0 45 19.5 84t53.5 66.5t76 44t89 16.5q45 0 87 -16.5t76 -45.5t54.5 -67.5t20.5 -83.5v-287q0 -27 -10.5 -46.5t-20.5 -43.5q-10 -23 -22.5 -37t-28.5 -29 q16 -14 26.5 -25.5t20.5 -29.5q16 -31 25.5 -55.5t9.5 -57.5v-340q0 -121 -67 -195.5t-171 -74.5q-53 0 -96 20.5t-75 56.5t-49.5 85t-17.5 108zM195 270q0 -55 27.5 -96t76.5 -41q51 0 76.5 39t25.5 98v334q0 43 -28.5 78t-73.5 35q-43 0 -73.5 -33t-30.5 -74v-340z M195 956q0 -45 29.5 -78.5t74.5 -33.5q43 0 72.5 31.5t29.5 78.5v265q0 39 -30.5 65.5t-71.5 26.5t-72.5 -28t-31.5 -69v-258z" />
<glyph unicode="9" horiz-adv-x="571" d="M51 813v342q0 152 60.5 215.5t169.5 63.5q106 0 167.5 -67t61.5 -210v-729q0 -96 -25.5 -164.5t-65.5 -117t-90 -77t-99.5 -45t-92.5 -21.5t-67 -5q-14 0 -15 24v41q0 18 3 43t14 25q45 0 99 10.5t100 43t77 90t31 153.5v152v29q0 13 -14 28q-4 4 -14.5 2t-23 -7 t-27.5 -9.5t-30 -4.5q-66 0 -123 37q-41 29 -68.5 72t-27.5 86zM180 848q0 -53 30 -81t73 -28q45 0 71.5 29t26.5 88v303q0 84 -23.5 123t-78.5 39t-77 -45t-22 -117v-311z" />
<glyph unicode=":" horiz-adv-x="253" d="M51 92q4 29 16.5 52.5t59.5 19.5q31 -2 50.5 -23.5t21.5 -52.5q2 -35 -5.5 -57.5t-66.5 -28.5q-16 -2 -30.5 5t-26 20.5t-16.5 30t-3 34.5zM51 502q4 29 16.5 52.5t59.5 18.5q31 -2 50.5 -23.5t21.5 -51.5q2 -35 -5.5 -57.5t-66.5 -28.5q-16 -2 -30.5 5t-26 20.5 t-16.5 30t-3 34.5z" />
<glyph unicode=";" horiz-adv-x="253" d="M51 92q0 29 14.5 52.5t61.5 19.5q31 -2 50.5 -23.5t21.5 -52.5q0 -12 -3 -37.5t-14 -52.5l-21 -52.5t-23.5 -49t-25 -35t-24.5 -11.5q-10 2 -13 14.5t-1 31t7 41t9 43.5q4 29 -1 36t-17 17q-10 8 -15.5 21t-5.5 38zM51 502q4 29 16.5 52.5t59.5 18.5q31 -2 50.5 -23.5 t21.5 -51.5q2 -35 -5.5 -57.5t-66.5 -28.5q-16 -2 -30.5 5t-26 20.5t-16.5 30t-3 34.5z" />
<glyph unicode="&#x3c;" horiz-adv-x="507" d="M37 606q0 8 22.5 39t56.5 72t74.5 87t76.5 83t61.5 60.5t31.5 19.5q18 -10 23.5 -13.5t17.5 -13.5q14 -12 23.5 -25.5t-16.5 -40.5q-33 -33 -74 -76.5t-77 -83.5t-60.5 -71t-24.5 -37t22.5 -34.5t57.5 -67.5t76 -83t78 -81q25 -29 13.5 -43t-24.5 -25q-14 -12 -17 -13 t-22 -11q-6 -4 -31.5 19.5t-61.5 60.5t-76 83t-72.5 87t-55 70.5t-22.5 37.5z" />
<glyph unicode="=" horiz-adv-x="462" d="M29 485.5q0 12.5 3 23.5t7 13q23 6 38 4t38 -2q47 2 102 0t102 -2q29 0 49.5 -1t49.5 -1q4 0 7 -9t4 -20.5t1 -20.5t-4 -11q-20 -10 -37.5 -9t-38.5 -1q-53 -4 -112.5 -5.5t-112.5 0.5q-27 0 -44.5 1t-43.5 8q-4 0 -6 10t-2 22.5zM31 729q0 12 3 22.5t7 12.5q23 6 38 4 t38 -2q47 2 102 0t103 -2q29 0 49 -1t49 -1q4 0 7 -9.5t4 -20.5t1 -20.5t-4 -11.5q-20 -10 -37.5 -9t-38.5 -1q-53 -4 -112.5 -5t-112.5 1q-27 0 -44 2t-44 8q-4 0 -6 10.5t-2 22.5z" />
<glyph unicode="&#x3e;" horiz-adv-x="507" d="M79 914.5q11 13.5 23 23.5q14 12 20.5 15t24.5 14q6 4 32 -19.5t61.5 -60.5t76.5 -83t75 -87t56.5 -72t22.5 -39q0 -6 -22.5 -36.5t-55.5 -71.5t-72.5 -87t-75.5 -83t-61.5 -60.5t-31.5 -19.5q-18 10 -25 15l-18 16q-6 6 -14.5 11t-11.5 11t0 15.5t15 23.5q35 37 75 81 t75 83t58.5 67.5t23.5 34.5t-24.5 37t-61.5 71t-78 84t-74 76q-24 27 -13 40.5z" />
<glyph unicode="?" horiz-adv-x="552" d="M41 1112v115q0 35 13.5 71.5t41 66.5t68.5 49.5t96 19.5q57 0 101.5 -17.5t73 -47.5t43 -65.5t14.5 -72.5v-217q0 -80 -25 -142.5t-72 -121.5q-29 -35 -42 -76t-18 -87t-5 -99v-109q0 -20 -12.5 -25.5t-53.5 -5.5q-37 0 -48 3t-11 26q0 70 2 135.5t12 125.5t31.5 116.5 t60.5 107.5q35 45 44.5 82t9.5 86v191q0 92 -107 92q-43 0 -66.5 -28t-23.5 -62v-111q0 -16 -13.5 -22.5t-50.5 -6.5q-41 0 -52 5.5t-11 23.5zM178 74q-4 41 21.5 73.5t64.5 28.5q35 -4 52.5 -12t24.5 -21.5t7 -30t-2 -34.5q-2 -35 -24.5 -59.5t-57.5 -28.5q-27 -2 -43 5 t-25.5 18.5t-12.5 28t-5 32.5z" />
<glyph unicode="@" horiz-adv-x="1134" d="M72 745q0 102 39 192.5t106.5 158t157.5 106.5t192 39t192.5 -30.5t158 -93t106.5 -158t39 -224.5q0 -98 -21.5 -152.5t-52.5 -81t-64.5 -31.5t-58.5 -5q-45 0 -71.5 13.5t-41 28.5t-20.5 28.5t-10 13.5q-2 0 -8 -13.5t-22.5 -28.5t-48.5 -28.5t-85 -13.5 q-59 0 -100 22.5t-66.5 56.5t-38 70.5t-12.5 67.5v119q0 39 15.5 78t43 69.5t67.5 50t91 19.5q59 0 83 -19.5t38 -31.5q8 -6 11 -5t3 17q0 18 7.5 28.5t29.5 10.5q49 0 49 -10v-316q0 -63 28 -91t50 -28q18 0 36.5 6.5t33 25t22.5 53t8 94.5q0 88 -30.5 159.5t-82.5 121.5 t-123 77t-151 27t-151.5 -31t-124.5 -83t-84 -124t-31 -154q0 -80 31 -149.5t84 -121.5t125 -82t151 -30h146q20 0 20 -47q0 -29 -3 -47t-11 -18h-156q-102 0 -192 39t-157.5 106.5t-106.5 157.5t-39 192zM442 682q0 -33 12.5 -55.5t31 -35.5t39 -19.5t36.5 -6.5 q14 0 34.5 6.5t39 19.5t32 35.5t13.5 55.5v121q0 43 -27.5 82t-91.5 39q-33 0 -55.5 -13.5t-36.5 -32t-20.5 -39t-6.5 -36.5v-121z" />
<glyph unicode="A" horiz-adv-x="522" d="M68 394q23 177 44 344t41.5 331t43.5 336q4 23 14 27t45 4q39 0 53.5 -5.5t16.5 -31.5q27 -197 47 -362t40.5 -323.5t41 -325.5t47.5 -368v-4q0 -12 -10 -14q-12 -2 -54 -2q-45 0 -57 1t-16 24q-12 86 -22.5 164.5t-23.5 164.5q-2 16 -20 17.5t-43 1.5q-29 0 -44 -1 t-17 -18q-10 -86 -18 -165l-15 -169q-2 -16 -19.5 -18t-66.5 -2q-23 0 -40 2q-16 2 -16 14q0 58 8 123t21.5 141.5t18.5 113.5zM213 502q0 -17 45 -17q18 0 33 2q13 2 12 12v3q-6 66 -10 122t-7 108t-7.5 105.5t-8.5 114.5q0 6 -2 14.5t-12 8.5q-8 0 -10 -8.5t-2 -12.5 q-10 -129 -17 -238q-1 -21 -7.5 -97.5t-6.5 -116.5z" />
<glyph unicode="B" horiz-adv-x="608" d="M82 80v1290q0 16 1 28.5t11 22.5q12 10 24.5 11.5t24.5 1.5h117q47 0 107.5 -15.5t107.5 -56.5q47 -43 61.5 -100.5t14.5 -112.5v-184q0 -37 -2 -66t-21 -63q-12 -23 -27.5 -37.5t-30.5 -23.5t-25.5 -14t-10.5 -7q0 -4 11.5 -8.5t27.5 -13.5t32.5 -23.5t29.5 -36.5 q18 -37 20 -64.5t2 -64.5v-254q0 -39 -9 -87t-65 -114q-27 -29 -56.5 -46t-59 -26.5t-55 -12.5t-44.5 -3q-29 0 -50 -1h-15q-16 0 -35 1q-18 2 -41 1t-29 9l-7 10.5t-5 10.5t-3 17.5t-1 31.5zM215 199q0 -16 3 -39t18 -25q12 -2 17 -2h19q16 0 49 8.5t62 36.5q31 35 37 58.5 t6 50.5v262q0 72 -35 103.5t-82 31.5q-66 0 -80 -9t-14 -46v-430zM215 866q0 -16 1 -30.5t11 -24.5t18 -10h19q23 0 53.5 8t59.5 37q31 35 36 59.5t5 48.5v195q0 35 -7.5 62.5t-35.5 56.5q-16 16 -33.5 23t-60.5 7q-23 0 -38.5 -2t-21.5 -12q-4 -10 -5 -17t-1 -18v-383z" />
<glyph unicode="C" horiz-adv-x="587" d="M72 238v954q0 41 14 84t44 78t75 57.5t104 22.5q63 0 108.5 -26t74 -62.5t42 -78.5t13.5 -75v-92q0 -16 -19.5 -19.5t-48.5 -3.5q-31 0 -50 2t-19 21v96q0 16 -7.5 35.5t-20.5 36t-31.5 28t-41.5 11.5q-47 0 -75.5 -37t-28.5 -72v-948q0 -43 23.5 -78t80.5 -35 q53 0 77 33t24 74v121q0 12 17 14t46 2h55q18 0 19 -16v-125q0 -49 -13.5 -92.5t-42 -76t-73.5 -52t-109 -19.5q-59 0 -104 21.5t-75 56.5t-44 77t-14 83z" />
<glyph unicode="D" horiz-adv-x="628" d="M82 66v1304q0 16 1 29.5t11 23.5q12 10 25 11h24h123q49 0 108.5 -15.5t106.5 -56.5q47 -43 61.5 -100.5t14.5 -112.5v-860q0 -37 -9 -86t-65 -115q-27 -29 -56.5 -46t-59 -26.5t-55 -12.5t-44.5 -3h-127q-16 0 -28.5 1t-20.5 13q-8 10 -9 26t-1 26zM215 199 q0 -16 1 -32.5t11 -27.5q6 -6 24 -6h23q16 0 48 8.5t61 36.5q31 35 36 60.5t5 48.5v862q0 35 -7 62.5t-36 56.5q-16 16 -34.5 23t-59.5 7q-29 0 -44.5 -2t-21.5 -12q-4 -10 -5 -17t-1 -18v-1050z" />
<glyph unicode="E" horiz-adv-x="538" d="M82 39v39v1294q0 20 2 26.5t12 18.5t20.5 14.5t26.5 2.5h340q18 0 21.5 -16.5t3.5 -45.5t-3 -42t-24 -13h-205q-12 0 -27.5 -2t-19.5 -8q-8 -10 -9 -14.5t-1 -24.5v-389v-29q0 -14 12 -25q10 -8 22 -8h23h97q18 0 23 -13t5 -46q0 -31 -4 -44.5t-24 -13.5h-92 q-16 0 -30.5 -1t-21.5 -5q-14 -10 -14 -24v-35v-440q0 -20 1 -44t9 -28t26.5 -6t35.5 -2h194q18 0 22.5 -11.5t4.5 -46.5t-4 -46t-21 -11h-307q-25 0 -48 -1h-4q-20 0 -30 9q-12 11 -12 31z" />
<glyph unicode="F" horiz-adv-x="528" d="M82 29v1339v30q0 9 10 19q10 12 16.5 14.5t22.5 2.5h350q20 0 23.5 -15.5t3.5 -46.5q0 -33 -6 -44t-33 -11h-193h-23q-11 0 -20 -4q-14 -10 -14 -33v-43v-387v-28q0 -13 10 -23t22.5 -9t24.5 -2q25 -4 60 -3t49 1q25 0 31 -14t6 -47q0 -35 -6 -48t-31 -13q-12 0 -46 1 t-58 -1q-16 0 -30.5 -1t-21.5 -6q-14 -10 -14 -31v-42v-553q0 -23 -17.5 -26t-52.5 -3q-33 0 -48 3.5t-15 23.5z" />
<glyph unicode="G" horiz-adv-x="618" d="M72 238v954q0 31 11 72t39 78.5t73 64.5t114 27q68 0 113 -28t72.5 -65.5t40 -79.5t12.5 -69v-92q0 -14 -15.5 -19.5t-56.5 -5.5q-39 0 -51 3t-12 18q0 23 -1 50.5t-1 49.5q0 16 -7.5 35.5t-20.5 36t-31.5 28t-41.5 11.5q-25 0 -43 -11.5t-32.5 -28t-21.5 -35t-7 -34.5 v-952q0 -39 21.5 -76t82.5 -37q59 0 80 37t21 70v352v16q0 8 -9 15q-10 8 -35.5 6t-41.5 -2q-12 0 -15.5 13t-3.5 46q0 63 17 64q20 0 55 1t68.5 2t62.5 1t37 -2q5 -2 4 -7q0 -3 -1 -9.5t-1 -8.5v-682v-21q0 -11 -10 -22q-5 -5 -13 -5q-3 0 -7 1q-11 4 -25 4q-6 0 -8.5 7 t-5.5 17.5t-8 21.5t-15 18q-8 6 -18.5 -4.5t-26 -23.5t-40 -25.5t-61.5 -12.5q-66 0 -110.5 23.5t-73.5 59.5t-41 78t-12 77z" />
<glyph unicode="H" horiz-adv-x="638" d="M82 31v1364q0 20 10 28.5t51 8.5q43 0 57.5 -8.5t14.5 -30.5v-484q0 -27 1 -53.5t24 -38.5q6 -2 30.5 -4t53 -3t53 1t33.5 6q14 10 14 37v49v498q0 29 14.5 30t50.5 1q43 0 55.5 -4.5t12.5 -28.5v-1356q0 -29 -7 -35t-58 -6q-47 0 -57.5 6t-10.5 35v559q0 18 -1 42 t-11 28q-8 4 -37 5t-60.5 0t-58.5 -3t-29 -4q-14 -10 -14 -32v-42v-561q0 -25 -13.5 -29t-56.5 -4q-41 0 -51 3t-10 26z" />
<glyph unicode="I" horiz-adv-x="294" d="M82 31v1370q0 20 12 25.5t49 5.5q41 0 55.5 -5.5t14.5 -27.5v-1364q0 -23 -10 -28t-60 -5q-41 0 -51 3t-10 26z" />
<glyph unicode="J" horiz-adv-x="526" d="M31 236v133q0 16 17 16h44q27 0 49.5 -3t22.5 -13v-123q0 -39 12 -74t72 -35q59 0 71.5 34t12.5 73v1161q0 16 13 21.5t48 5.5q39 0 55.5 -4.5t16.5 -20.5v-1169q0 -47 -10.5 -90.5t-36 -76t-67.5 -52t-103 -19.5t-103.5 22.5t-68 58.5t-35.5 77t-10 78z" />
<glyph unicode="K" horiz-adv-x="563" d="M82 33v1370q0 20 13.5 24.5t47.5 4.5q35 0 52.5 -4.5t17.5 -26.5v-496v-27q0 -17 10 -14q4 2 7 15.5t8 23.5q20 74 37.5 133.5t33 116.5t31.5 117.5t39 134.5q4 16 18.5 18t55.5 2t56 -5t11 -15q-23 -82 -41 -144.5t-34.5 -121t-34 -118.5t-39.5 -138q-8 -33 -9 -68 q0 -14 2.5 -33.5t6.5 -40.5q27 -106 48 -189t41.5 -162t43.5 -166q4 -15 18.5 -55.5t23.5 -78t9 -69.5q0 -8 -9 -14q-11 -7 -59 -7q-31 0 -48 2t-23 27l-38 151q-17 70 -34.5 137.5t-34 136t-37.5 152.5q-4 14 -14 11t-29 -44q-16 -39 -16 -86v-450q0 -25 -11.5 -31 t-56.5 -6q-41 0 -52 5t-11 28z" />
<glyph unicode="L" horiz-adv-x="497" d="M82 47v41v1319q0 23 15.5 25t45.5 2q41 0 56.5 -4.5t15.5 -26.5v-1206v-42q0 -22 14 -32q6 -4 20.5 -5t26.5 -1h173q20 0 24 -13.5t4 -42.5q0 -39 -4 -50t-24 -11h-306q-16 0 -31.5 2t-21.5 12q-8 13 -8 33z" />
<glyph unicode="M" horiz-adv-x="712" d="M82 37v1366q0 25 14.5 27t42.5 2q16 0 27.5 -3.5t21 -14.5t17.5 -33.5t20 -61.5q31 -98 55.5 -174t51.5 -158q4 -8 9 -15t15 -7q8 0 14.5 7t10.5 15q16 49 28.5 88t24.5 76t24.5 77t28.5 91q12 37 19.5 59.5t15.5 34.5t18.5 16.5t26.5 4.5q35 0 49.5 -4.5t14.5 -26.5 v-1366q0 -25 -10.5 -31t-57.5 -6q-41 0 -53 6t-12 31v715v66q0 36 -2 68t-4.5 53.5t-8.5 21.5q-10 0 -15 -12.5l-9 -22.5q-10 -41 -19.5 -74t-17.5 -63.5t-17.5 -63.5t-21.5 -72l-8 -20q-4 -10 -21 -10q-14 0 -20 9t-10 19q-10 37 -17.5 68t-15.5 62.5t-17.5 65.5t-19.5 75 q-4 10 -10 21t-19 11q-4 0 -6 -20.5t-3 -51t-1 -66.5v-64v-715q0 -25 -12.5 -31t-52.5 -6q-43 0 -55.5 6t-12.5 31z" />
<glyph unicode="N" horiz-adv-x="638" d="M82 37v1376q0 16 11 18.5t40 2.5q43 0 59.5 -16.5t32.5 -74.5q25 -96 44.5 -177t40 -160.5t40 -161.5t43.5 -176q4 -14 9.5 -32t13.5 -18t10 13.5t2 23.5v742q0 25 12.5 31t57.5 6q35 0 47 -4.5t12 -26.5v-1319q0 -55 -7 -69.5t-44 -14.5q-23 0 -42.5 13.5t-31.5 66.5 q-23 98 -41 178t-36.5 155.5t-38 153.5t-44.5 174q-6 20 -11 46t-11 48.5t-11.5 39t-9.5 16.5q-10 0 -12 -13.5t-2 -23.5v-817q0 -25 -12.5 -31t-52.5 -6q-45 0 -56.5 6t-11.5 31z" />
<glyph unicode="O" horiz-adv-x="618" d="M72 256v928q0 117 68.5 183.5t168.5 66.5q102 0 170 -71t68 -179v-928q0 -49 -11.5 -96t-39 -82t-73.5 -56.5t-114 -21.5q-63 0 -108 21.5t-74 56.5t-42 82t-13 96zM205 262q0 -23 3 -45t14 -39.5t31.5 -29t55.5 -11.5q61 0 82 41t21 84v922q0 43 -29 83t-74 40 q-47 0 -75.5 -40t-28.5 -83v-922z" />
<glyph unicode="P" horiz-adv-x="606" d="M82 29v1341q0 16 2 28.5t12 22.5q12 10 23.5 11.5t23.5 1.5h123q53 0 110.5 -15.5t104.5 -56.5q47 -43 61.5 -95.5t14.5 -117.5v-266q0 -35 -9 -85t-65 -116q-27 -29 -57.5 -46.5t-61 -26.5t-59.5 -12t-53 -3q-39 0 -39 -43v-518q0 -25 -14.5 -29t-55.5 -4t-51 3t-10 26z M215 759q0 -17 14 -26q8 -4 21 -4h26q18 0 48 7t59 36q31 35 36 55.5t5 53.5v268q0 35 -7 62.5t-36 56.5q-31 31 -94 30q-18 0 -39 -2t-27 -12q-4 -10 -5 -17t-1 -18v-456v-34z" />
<glyph unicode="Q" horiz-adv-x="618" d="M72 256v928q0 117 68.5 183.5t168.5 66.5q102 0 170 -71t68 -179v-928q0 -68 -15.5 -112t-39 -71.5t-51 -42t-52.5 -20.5q-10 -4 -13 -6t-5 -4t-2 -4q0 -59 33.5 -91t70.5 -32q8 0 9 -17.5t1 -45.5v-47q0 -17 -10 -17q-100 0 -168.5 66.5t-68.5 183.5q0 10 -7.5 12 t-13.5 6q-8 6 -31.5 18.5t-48 39t-44 70.5t-19.5 114zM205 256q0 -63 28.5 -94t75.5 -31t75 31t28 94v928q0 43 -29 83t-74 40q-47 0 -75.5 -40t-28.5 -83v-928z" />
<glyph unicode="R" horiz-adv-x="628" d="M82 29v1341q0 16 2 30.5t12 24.5q11 9 22 10h2q11 -1 23 -1h117q49 0 108.5 -15.5t106.5 -56.5q47 -43 61.5 -101.5t14.5 -111.5v-184q0 -37 -2 -66t-21 -63q-12 -23 -28.5 -37.5t-31.5 -23.5t-25.5 -14t-10.5 -7q0 -4 11.5 -8.5t26.5 -13.5t31.5 -23.5t28.5 -36.5 q18 -37 20.5 -64.5t2.5 -64.5v-510q0 -25 -14.5 -29t-55.5 -4q-35 0 -48 3t-13 26v520q0 63 -33 99t-67 36q-72 0 -90.5 -3t-18.5 -28v-620q0 -25 -11.5 -29t-58.5 -4q-35 0 -48 3t-13 26zM215 835q0 -15 12 -26q10 -8 20 -8h17q16 0 50 8t63 37q31 35 36 60.5t5 47.5v195 q0 35 -7.5 62.5t-35.5 56.5q-16 16 -34.5 23t-74.5 7q-14 0 -26.5 -2t-18.5 -12q-4 -10 -5 -17t-1 -18v-383v-31z" />
<glyph unicode="S" horiz-adv-x="559" d="M45 1085v105q0 39 12.5 83t40 78.5t72.5 58.5t109 24q57 0 101 -24t73.5 -58.5t44 -77.5t14.5 -82v-94q0 -12 -18.5 -14.5t-53.5 -2.5q-29 0 -47 2t-18 17v96q0 51 -31 81t-65 30q-43 0 -72 -35t-29 -74v-113q0 -59 49 -133.5t109 -156.5q33 -47 66.5 -97.5t60 -103.5 t43 -108.5t16.5 -112.5v-135q0 -53 -18.5 -96.5t-50 -75t-75.5 -49t-93 -17.5q-100 0 -169 58.5t-69 179.5v114q0 16 13.5 21.5t54.5 5.5q37 0 53 -3t16 -20v-112q0 -39 22.5 -73t78.5 -34q33 0 53 11.5t31.5 28t15.5 35.5t4 38v125q0 82 -50 167t-112 171q-33 45 -65.5 92 t-58 94t-42 94t-16.5 92z" />
<glyph unicode="T" horiz-adv-x="489" d="M6 1372q0 35 5 48.5t24 13.5h422q18 0 22 -15.5t4 -46.5q0 -35 -4 -45t-20 -10q-18 0 -40 1t-48 -1h-24q-11 0 -19 -4q-14 -10 -15 -33v-43v-1217q0 -14 -20.5 -17t-52.5 -3q-29 0 -46.5 2t-17.5 18v1217v43q0 23 -14 33q-8 4 -20 4h-23h-76q-23 0 -30 10t-7 45z" />
<glyph unicode="U" horiz-adv-x="618" d="M72 236v1167q0 20 16 25.5t49 5.5q68 0 68 -31v-1157q0 -41 24.5 -75t79.5 -34q53 0 79 33t26 74v1165q0 14 12 19.5t49 5.5q72 0 72 -23v-1173q0 -49 -13.5 -92.5t-43 -75t-74.5 -51t-107 -19.5q-61 0 -106 22.5t-75 57.5t-43 77t-13 79z" />
<glyph unicode="V" horiz-adv-x="526" d="M20 1414q0 14 11 17q12 3 55 3q45 0 58.5 -6.5t15.5 -26.5q12 -135 23.5 -256t21.5 -239t20.5 -236.5t22.5 -245.5q0 -4 2 -12.5t10 -8.5q10 0 12 8.5t2 14.5q27 264 50.5 497.5t48.5 475.5q4 27 16 30t41 3q43 0 60 -6q16 -5 16 -18v-3q-23 -188 -44.5 -357t-41 -333 t-41 -331t-43.5 -353q-4 -23 -20.5 -27t-47.5 -4q-41 0 -59.5 4t-22.5 31q-20 172 -40.5 338t-41 332.5t-41.5 341.5q-4 37 -16 111t-19.5 137t-7.5 119z" />
<glyph unicode="W" horiz-adv-x="696" d="M20 1412q0 22 58 22q47 0 62.5 -3.5t17.5 -19.5q8 -143 16 -266t16.5 -238.5t15.5 -231.5t15 -245q0 -4 2 -12t10 -8q10 0 12.5 8t2.5 14q16 150 29.5 272.5t27.5 256.5q2 14 11.5 19t37.5 5q31 0 41.5 -4t12.5 -20q8 -72 14 -136.5t12 -128t13.5 -130t15.5 -142.5 q0 -4 2 -12.5t10 -8.5q10 0 12 8.5t2 14.5q16 274 32 521t30 466q2 16 11 18.5t44 2.5q41 0 57 -1q14 -1 13 -17v-5q-10 -121 -24.5 -300t-31 -374.5t-32 -384t-27.5 -329.5q-2 -20 -14 -21.5t-53 -1.5q-20 0 -29.5 3t-13.5 20q-23 119 -41.5 222t-40.5 226q-2 6 -3 14.5 t-12 8.5q-8 0 -9 -8.5t-3 -12.5q-10 -59 -20.5 -110.5t-20.5 -103.5t-21.5 -109.5t-23.5 -124.5q-4 -20 -15.5 -22.5t-33.5 -2.5q-20 0 -45 1t-27 22q-10 135 -23.5 295.5t-28.5 339t-31 367.5q-3 42 -12 120.5t-14.5 144t-5.5 122.5z" />
<glyph unicode="X" horiz-adv-x="503" d="M23 35q33 164 64.5 318.5t66.5 330.5q6 25 6 47q0 16 -3 27.5t-7 27.5q-29 164 -55.5 313.5t-59.5 315.5q-4 12 15.5 15.5t47.5 3.5q35 0 51.5 -1t20.5 -18q16 -111 34.5 -230.5t35.5 -219.5q0 -4 3 -11.5t9 -7.5t8 8.5t2 12.5q16 109 35.5 226.5t36.5 227.5q2 12 15 13 h48q43 0 58.5 -2t13.5 -15q-31 -166 -59.5 -315.5t-57.5 -313.5q-4 -16 -6 -27t-2 -28q0 -23 8 -45q33 -172 65 -331.5t66 -329.5q1 -5 2 -9q0 -8 -6 -12q-8 -6 -55 -6q-37 0 -50.5 1t-17.5 19q-23 117 -46 239t-46 237q-2 4 -4 11t-8 7q-8 0 -10 -7t-4 -13 q-20 -111 -42 -232t-44 -235q-4 -20 -16.5 -23.5t-59.5 -3.5q-37 0 -47 5q-7 4 -8 17q1 6 2 13z" />
<glyph unicode="Y" horiz-adv-x="468" d="M20 1412q0 13 10 15q13 4 40 5q47 0 63.5 -5.5t20.5 -27.5q18 -135 34.5 -264t32.5 -254q0 -4 3 -11.5t9 -7.5t8.5 8.5t2.5 12.5q20 137 34.5 257t32.5 259q4 20 19.5 26.5t56.5 6.5t53 -5q9 -3 10 -15q0 -4 -1 -9q-16 -90 -29.5 -173t-28 -165t-29 -165t-28.5 -175 q-6 -35 -10.5 -65.5t-8.5 -55.5q-2 -14 -7 -43t-5 -57v-488q0 -14 -25.5 -15t-46.5 -1q-25 0 -45 2t-20 21v117q0 56 1 113.5t1 117.5v127q0 29 -3 56.5t-7 43.5q-4 20 -11.5 55t-13.5 70q-16 90 -30.5 174t-28 166t-26.5 166q-3 18 -11 55t-12.5 69t-4.5 59z" />
<glyph unicode="Z" horiz-adv-x="503" d="M51 53v70v42q0 15 1 23.5t3 16.5q45 166 77 288.5t59.5 235.5t56 229.5t65.5 270.5q4 18 2 41.5t-16 34.5q-8 4 -20 4h-23h-168q-16 0 -20.5 14t-4.5 49q0 37 3.5 49.5t21.5 12.5h338q29 0 34 -8.5t5 -49.5q0 -70 -6 -100q-47 -184 -78 -314.5t-58.5 -243t-56 -229 t-69.5 -274.5q-4 -12 -3 -25.5t1 -48.5q0 -8 4 -13t20 -5h217q16 0 19.5 -13.5t3.5 -52.5t-3 -48t-20 -9h-368q-14 0 -15.5 19.5t-1.5 33.5z" />
<glyph unicode="[" horiz-adv-x="352" d="M82 -174v1778q0 23 18.5 33t50 13t75.5 1t93 -2q20 0 18.5 -21.5t-1.5 -40.5q0 -18 -3 -41.5t-14 -23.5q-47 0 -75.5 -4.5t-28.5 -47.5v-1486q0 -29 7 -42.5t21.5 -17.5t34 -3t41.5 1q14 0 13.5 -22.5t-0.5 -38.5q0 -27 -1 -51.5t-12 -24.5q-51 0 -94 -3t-74.5 -1t-50 11 t-18.5 34z" />
<glyph unicode="\" horiz-adv-x="432" d="M31 1393q-4 23 9 31t48 8q33 0 51.5 -2.5t22.5 -18.5q33 -186 61.5 -354t56 -333t56.5 -336t61 -361q4 -18 -13 -22.5t-48 -4.5q-33 0 -48.5 5t-19.5 26q-33 182 -61.5 348t-57 329.5t-58 332t-60.5 352.5z" />
<glyph unicode="]" horiz-adv-x="352" d="M14 1627.5q-4 21.5 17 21.5q49 0 93 2t75.5 -1t50 -13.5t18.5 -34.5v-1782q0 -16 -18.5 -24.5t-50 -10.5t-74.5 -1t-94 1q-10 0 -11 27v53q0 16 -2 36.5t13 20.5h51q20 0 32.5 5t16.5 17.5t4 35.5v1488q0 45 -28.5 49.5t-75.5 4.5q-10 0 -11.5 23.5t-1.5 41.5 q0 19 -4 40.5z" />
<glyph unicode="^" horiz-adv-x="608" d="M37 1022q-10 6 4 37t41 67q4 6 20.5 33t39 62.5t48 75.5t50.5 73q23 31 40 48.5t23 17.5q8 0 28.5 -19.5t45.5 -54.5t51.5 -77t50 -80t42 -69.5t28.5 -43.5q27 -35 28 -54.5t-12 -27.5q-14 -6 -29.5 -11.5t-29.5 -11.5q-14 -4 -22.5 1t-12.5 13q-35 59 -64.5 108.5 t-60.5 96.5q-16 23 -24.5 33t-18.5 10t-19.5 -12t-25.5 -35q-16 -25 -33.5 -55.5t-35 -59t-33 -55t-25.5 -41.5q-4 -6 -16.5 -9t-26.5 5q-14 10 -27.5 17.5t-23.5 17.5z" />
<glyph unicode="_" horiz-adv-x="600" d="M8 -124.5q0 20.5 3 37.5t7 19q23 6 60 4t59 -2q47 2 82 0t82 -2h55q41 0 87 -1t87 -1h56q4 0 7 -16t4 -36.5t1 -37t-4 -18.5q-10 -4 -48 -5t-83 -1t-83 1t-48 1q-53 -4 -92 -3t-93 5q-27 0 -64.5 -1t-66.5 1q-4 0 -6 17.5t-2 38z" />
<glyph unicode="`" horiz-adv-x="585" d="M132 1266.5q-1 9.5 7 17.5q10 12 15.5 23.5t13.5 27.5t24.5 13.5t49.5 -19.5q45 -27 74.5 -46t72.5 -42q37 -20 56.5 -39.5t9.5 -34.5q-8 -16 -15.5 -28.5t-11.5 -28.5q-4 -14 -12 -20.5t-37 10.5q-47 27 -73 42l-46 27q-20 12 -41.5 24.5t-58.5 33.5q-4 2 -10.5 8 t-11.5 14t-6 17.5z" />
<glyph unicode="a" d="M61 256v481q0 117 69 183.5t169 66.5q16 0 37.5 -4t44.5 -27q12 -12 17 -10t5 31q0 10 13.5 11t50.5 1q47 0 58.5 -4t11.5 -20v-942q0 -16 -10.5 -19.5t-57.5 -3.5q-35 0 -48 2t-13 16q0 12 1 24.5t-14 12.5q-4 0 -9 -8t-14.5 -19.5t-25.5 -19.5t-47 -8q-102 0 -170 65.5 t-68 190.5zM195 262q0 -66 28.5 -95.5t75.5 -29.5t74.5 32t27.5 93v475q0 43 -28.5 83t-73.5 40q-47 0 -75.5 -40t-28.5 -83v-475z" />
<glyph unicode="b" horiz-adv-x="608" d="M72 16v1401q0 18 61 19q72 0 72 -17v-422q0 -23 9 -32t19 -4q29 14 44.5 20t31.5 6q111 0 174.5 -72.5t63.5 -183.5v-483q0 -109 -57.5 -178.5t-180.5 -69.5q-31 0 -47 8t-25.5 19.5t-14.5 19.5t-9 8q-14 0 -14 -13v-24q0 -16 -21.5 -17t-44.5 -1t-42 1t-19 15zM205 262 q0 -61 28.5 -93t75.5 -32t75 31t28 94v475q0 43 -29 83t-74 40q-47 0 -75.5 -40t-28.5 -83v-475z" />
<glyph unicode="c" horiz-adv-x="587" d="M61 256v475q0 119 67 187.5t171 68.5q102 0 170 -70.5t68 -187.5q0 -10 -11.5 -14t-52.5 -4q-72 0 -72 12q0 61 -29.5 99t-72.5 38q-47 0 -75.5 -40t-28.5 -83v-475q0 -47 22.5 -86t81.5 -39q31 0 51.5 12.5t31.5 31t15 40t4 41.5q0 6 13.5 7t54.5 1t54.5 -2t13.5 -12 q0 -111 -55.5 -184.5t-182.5 -73.5q-59 0 -104 21.5t-75 56.5t-44.5 82t-14.5 98z" />
<glyph unicode="d" horiz-adv-x="608" d="M61 248v483q0 113 67 184.5t171 71.5q16 0 31.5 -6t44.5 -20q10 -4 19 5t9 31v422q0 10 11.5 12.5t54.5 2.5t55.5 -3.5t12.5 -13.5v-1401q0 -14 -18.5 -15t-51.5 -1q-29 0 -43 -1h-2q-12 0 -12 11v28q0 17 -15 17q-4 0 -9 -8t-14.5 -19.5t-25.5 -19.5t-47 -8 q-123 0 -180.5 71t-57.5 177zM195 262q0 -66 28.5 -95.5t75.5 -29.5t74.5 32t27.5 93v475q0 43 -28.5 83t-73.5 40q-47 0 -75.5 -40t-28.5 -83v-475z" />
<glyph unicode="e" d="M61 256v481q0 117 69 183.5t169 66.5q102 0 170 -70.5t68 -179.5v-252q0 -10 -4.5 -21t-34.5 -11h-281q-8 0 -15 -9.5t-7 -27.5v-154q0 -61 28.5 -93t75.5 -32t74.5 32t27.5 93q0 6 12.5 9t59.5 3q41 0 52.5 -3t11.5 -15q0 -137 -67 -196.5t-171 -59.5q-102 0 -170 66.5 t-68 189.5zM195 606q0 -23 18 -25.5t80 -2.5q66 0 87 3t21 25v131q0 47 -28.5 85t-73.5 38q-47 0 -75.5 -39t-28.5 -84v-131z" />
<glyph unicode="f" horiz-adv-x="348" d="M10 903q0 29 3 43.5t16 14.5q35 0 47 5t12 25v193q0 49 17.5 95t48 80t72.5 54.5t91 20.5q10 0 11 -18v-46q0 -63 -11 -63q-37 0 -73.5 -35t-36.5 -88v-193q0 -23 20.5 -26.5t85.5 -3.5q16 0 21.5 -12.5t5.5 -51.5t-3 -49t-20 -10q-74 0 -92 -4.5t-18 -26.5v-770 q0 -29 -8.5 -33t-48.5 -4q-41 0 -51.5 4t-10.5 29v774q0 20 -10 26.5t-47 6.5q-18 0 -19.5 17t-1.5 46z" />
<glyph unicode="g" horiz-adv-x="608" d="M61 -154q0 10 14 11h50q39 0 54.5 1t15.5 -12q0 -53 26.5 -85.5t77.5 -32.5q57 0 79.5 39.5t22.5 85.5v141q0 29 -4 38t-14 5q-8 -6 -14.5 -12.5t-14.5 -11.5t-20 -9t-35 -4q-47 0 -90 15.5t-76 47t-52.5 78.5t-19.5 109v485q0 106 62.5 179t185.5 73q25 0 40.5 -8 t25.5 -18.5t16 -19.5t15 -11q12 -4 15 6t3 33q0 10 8 11t45 1q59 0 60 -16v-232v-887q0 -115 -55.5 -185.5t-182.5 -70.5q-115 0 -176.5 72.5t-61.5 183.5zM195 262q0 -63 28.5 -94t75.5 -31t74.5 31t27.5 94v475q0 43 -28.5 83t-73.5 40q-49 0 -76.5 -40t-27.5 -83v-475z " />
<glyph unicode="h" horiz-adv-x="608" d="M72 20v1397q0 12 16 15.5t45 3.5q35 0 53.5 -1t18.5 -16v-422q0 -23 9 -32t19 -4q29 14 44.5 20t31.5 6q106 0 172 -71.5t66 -184.5v-713q0 -14 -18.5 -16t-45.5 -2q-35 0 -53 2t-18 14v721q0 45 -29 84t-74 39q-47 0 -75.5 -39t-28.5 -84v-717q0 -16 -20.5 -18t-53.5 -2 q-23 0 -41 2t-18 18z" />
<glyph unicode="i" horiz-adv-x="286" d="M75 1323q14 25 61 25h7q35 -2 57.5 -28t24.5 -60q1 -12 2 -25q0 -6 -1 -11q-1 -17 -9 -29.5t-25.5 -22t-48.5 -11.5q-18 -2 -35.5 6.5t-28.5 23.5t-18 34q-5 14 -4 29q0 38 18 69zM78 33v919q0 23 13 28t48 5q41 0 55.5 -3t14.5 -32v-913q0 -29 -10.5 -33t-59.5 -4 q-43 0 -52 4t-9 29z" />
<glyph unicode="j" horiz-adv-x="274" d="M-45 -344q0 27 2 44t10 17q18 0 37 11.5t34 29t24.5 39t9.5 43.5v1110q0 16 10 25.5t57 9.5q41 0 52.5 -8t11.5 -23v-1114q0 -49 -18.5 -95t-50.5 -80t-75 -54.5t-92 -20.5q-10 0 -11 17.5t-1 48.5zM51 1264q4 35 20 61q13 23 55 23h13q35 -2 56.5 -28t23.5 -60 q2 -18 2 -36t-6 -30t-23.5 -21.5t-52.5 -11.5h-8q-33 0 -57 29q-23 28 -23 63q-1 6 0 11z" />
<glyph unicode="k" horiz-adv-x="544" d="M72 33v1370q0 20 18.5 24.5t42.5 4.5q29 0 49.5 -4.5t20.5 -26.5v-715q0 -18 4 -28.5t10 -2.5t11 19.5t12 23.5q18 39 32.5 72t27.5 63.5t26.5 62.5t29.5 67q8 18 24.5 19t51.5 1q37 0 61.5 -2t16.5 -18q-23 -49 -42 -89t-36.5 -78t-36 -77t-41.5 -88l-12 -29 q-6 -14 -6 -24q0 -8 3 -24.5t9 -31.5q31 -76 54.5 -136t46 -116.5t45.5 -114.5q3 -9 17.5 -37t24.5 -53t10 -44q0 -8 -14 -14q-16 -7 -51 -7q-49 0 -62 4t-22 25q-20 55 -37.5 100t-34 88t-33 87t-36.5 97q-8 23 -17.5 33t-19.5 2t-13 -17t-3 -30v-352q0 -27 -11.5 -31 t-58.5 -4q-41 0 -51 4t-10 27z" />
<glyph unicode="l" horiz-adv-x="274" d="M72 29v1372q0 20 14 25.5t47 5.5q35 0 52.5 -5.5t17.5 -27.5v-1366q0 -23 -11.5 -28t-58.5 -5q-37 0 -49 3t-12 26z" />
<glyph unicode="m" horiz-adv-x="817" d="M72 20v947q0 10 10 13t49 3q45 0 55.5 -2t10.5 -18v-18q0 -11 1 -21.5t2 -17.5t1 -5q2 8 11 22.5t21.5 28t29 22.5t32.5 9q43 0 67.5 -12.5t36 -25.5t15.5 -25.5t8 -12.5t10 12.5t20.5 25.5t38 25.5t64.5 12.5q68 0 107.5 -19.5t60 -53t27 -82t6.5 -105.5v-703 q0 -14 -10.5 -17t-49.5 -3q-47 0 -61 4t-14 16v703q0 27 -1.5 51.5t-8.5 43t-23.5 28.5t-44.5 10q-43 0 -52.5 -32.5t-9.5 -90.5v-713q0 -16 -18.5 -18t-46.5 -2q-70 0 -70 20v719q0 43 -11 80t-61 37q-43 0 -56 -32.5t-13 -90.5v-713q0 -12 -11.5 -16t-58.5 -4q-41 0 -52 4 t-11 16z" />
<glyph unicode="n" horiz-adv-x="608" d="M72 20v947q0 10 10 13t55 3q41 0 50.5 -3t9.5 -13q0 -53 1 -71.5t11 -2.5q23 37 57.5 63.5t75.5 26.5q102 0 153.5 -62.5t51.5 -197.5v-705q0 -12 -11.5 -15t-50.5 -3q-43 0 -57 3t-14 13v707q0 49 -15.5 91t-56.5 42q-57 0 -97 -31.5t-40 -91.5v-713q0 -14 -12.5 -17 t-57.5 -3q-41 0 -52 3t-11 17z" />
<glyph unicode="o" d="M61 256v481q0 117 69 183.5t169 66.5q102 0 170 -70.5t68 -179.5v-481q0 -137 -67 -196.5t-171 -59.5q-102 0 -170 65.5t-68 190.5zM195 262q0 -66 28.5 -95.5t75.5 -29.5t74.5 32t27.5 93v475q0 43 -28.5 83t-73.5 40q-47 0 -75.5 -40t-28.5 -83v-475z" />
<glyph unicode="p" horiz-adv-x="608" d="M72 -391v1356q0 10 10 14t55 4q18 0 28.5 1t15.5 0t8.5 -4t9.5 -11q6 -10 3 -26.5t9 -22.5q2 -2 5 8t12.5 23.5t27.5 24.5t53 11q55 0 99.5 -21.5t75 -56.5t47 -81t16.5 -95v-483q0 -117 -60.5 -183.5t-177.5 -66.5q-14 0 -30.5 3t-45.5 17q-10 4 -19 -5t-9 -31v-377 q0 -14 -15.5 -15.5t-56.5 -1.5q-35 0 -48 2.5t-13 16.5zM205 262q0 -63 28.5 -94t75.5 -31t75 32t28 93v475q0 43 -29 83t-74 40q-47 0 -75.5 -40t-28.5 -83v-475z" />
<glyph unicode="q" horiz-adv-x="608" d="M61 250v487q0 117 69 183.5t169 66.5q35 0 53.5 -11t27.5 -24.5t11 -23.5t6 -8q12 6 13 19v24q0 14 12 17t53 3q35 0 48.5 -2t13.5 -16v-1356q0 -14 -15.5 -16.5t-44.5 -2.5q-37 0 -55.5 2t-18.5 15v377q0 23 -9 32t-19 4q-29 -14 -45.5 -17t-30.5 -3q-102 0 -170 62.5 t-68 187.5zM195 262q0 -66 28.5 -95.5t75.5 -29.5t74.5 32t27.5 93v475q0 43 -28.5 83t-73.5 40q-47 0 -75.5 -40t-28.5 -83v-475z" />
<glyph unicode="r" horiz-adv-x="382" d="M72 20v947q0 10 12 12t53 2q35 0 47.5 -1t12.5 -13t1 -28.5t1 -27.5v-26q0 -6 8 10q20 43 69.5 67.5t81.5 24.5q10 0 11.5 -17.5t1.5 -54.5q0 -66 -13 -65q-23 0 -49 -9.5t-48.5 -25.5t-39 -39.5t-16.5 -52.5v-703q0 -16 -15.5 -18t-56.5 -2q-35 0 -48 3t-13 17z" />
<glyph unicode="s" horiz-adv-x="536" d="M41 238q0 16 63 16h52q23 0 22 -10q0 -39 17.5 -73t72.5 -34q33 0 52.5 11.5t28.5 28t11 35.5t2 38q0 76 -45 127t-106 98q-33 25 -62.5 52.5t-52 58t-36 68.5t-13.5 85q0 39 10.5 83t36 79t67.5 58.5t105 23.5q57 0 99.5 -23.5t69 -58.5t38.5 -78t12 -82q0 -10 -16 -11 t-55 -1t-52.5 4t-13.5 12q0 51 -23.5 81t-58.5 30q-43 0 -64.5 -35t-21.5 -73q0 -53 38 -95.5t93 -89.5q35 -29 68 -59.5t59.5 -69.5t42 -87t15.5 -109q0 -104 -63.5 -171t-164.5 -67q-100 0 -163.5 57.5t-63.5 180.5z" />
<glyph unicode="t" horiz-adv-x="370" d="M10 903q0 31 4 42t19 11q43 0 51 10.5t8 34.5v105q0 18 12.5 21t49.5 3q41 0 56 -3t15 -25v-101q0 -25 12.5 -31.5t63.5 -6.5q18 0 24.5 -11.5t6.5 -42.5q0 -37 -3 -47t-20 -10q-55 0 -69.5 -9t-14.5 -38v-596q0 -39 29 -60.5t76 -21.5q10 0 10 -64v-49q0 -14 -10 -14 q-117 0 -177.5 59.5t-60.5 149.5v596q0 27 -10 39t-47 12q-16 0 -20.5 12t-4.5 35z" />
<glyph unicode="u" horiz-adv-x="608" d="M61 258v705q0 14 14.5 17t45.5 3q43 0 58.5 -4t15.5 -14v-707q0 -20 3 -44t10 -43t21.5 -32.5t36.5 -13.5q66 0 101.5 35t35.5 88v713q0 14 12.5 17t53.5 3t54.5 -5t13.5 -15v-947q0 -10 -10.5 -12t-49.5 -2q-66 0 -65 14q0 12 -1 28.5t-1 27.5v27q0 7 -11 -9 q-23 -37 -57.5 -63.5t-75.5 -26.5q-102 0 -153.5 61.5t-51.5 198.5z" />
<glyph unicode="v" horiz-adv-x="518" d="M20 963q0 11 12 14q15 4 50 4q43 0 58.5 -4t19.5 -25q23 -188 43 -358t43 -346q0 -4 2 -12.5t10 -8.5q10 0 11 8.5t3 14.5q25 186 46.5 352t43.5 352q2 16 15.5 22.5t50.5 6.5q45 0 59 -6q11 -5 12 -20q0 -4 -1 -9q-18 -123 -36 -236.5t-34 -224t-33.5 -222t-36.5 -232.5 q-4 -23 -25.5 -28t-70.5 -5q-47 0 -73.5 4t-30.5 35q-33 223 -67 446q-7 46 -27 143t-32 180t-12 155z" />
<glyph unicode="w" horiz-adv-x="772" d="M19 970q3 9 51 9q27 0 41 -1t20 -5t7 -10.5t3 -16.5q12 -98 21.5 -175t17.5 -146.5t17.5 -139t19.5 -155.5q0 -4 2 -12.5t10 -8.5q10 0 11.5 8.5t3.5 14.5q12 96 23.5 176t20.5 152.5t18 144.5t20 151q2 14 7 19.5t46 5.5t49 -4t10 -21q20 -160 39 -308t41 -318 q0 -4 2 -12.5t10 -8.5q10 0 11.5 8.5t3.5 14.5q12 92 23.5 171t21.5 152l20 148q10 74 21 158q2 14 9 18t46 4q49 0 59 -5q7 -4 8 -14q0 -4 -1 -10q-23 -139 -41.5 -261t-35 -234.5t-32.5 -220t-35 -218.5q-4 -23 -25.5 -22.5t-54.5 2.5q-20 2 -42.5 4t-26.5 23 q-16 111 -30.5 216t-33.5 234q-2 6 -3 14.5t-11 8.5q-8 0 -10 -8.5t-2 -12.5q-10 -68 -17.5 -124t-15.5 -110.5t-15.5 -108.5t-15.5 -118q-4 -20 -21.5 -20t-50.5 2q-20 2 -44.5 4t-28.5 23q-33 215 -69 454.5t-71 462.5q-2 9 -2 17q0 5 1 9z" />
<glyph unicode="x" horiz-adv-x="518" d="M20 27q35 109 69 211t69 213q6 25 6 47q0 29 -8 55q-31 102 -62 200.5t-61 202.5q-4 12 7 18.5t52 6.5q49 0 60.5 -4t15.5 -23q8 -31 18.5 -67.5t20.5 -74.5t19.5 -74t17.5 -64q2 -4 4 -11.5t8 -7.5t7 8.5t3 12.5q16 63 38 143t38 146q4 14 14.5 15t53.5 1q49 0 60 -7 t7 -18q-33 -109 -61.5 -205t-59.5 -196q-8 -27 -8 -55q0 -14 1 -23.5t5 -21.5q70 -213 144 -430q1 -4 1 -7q0 -9 -9 -13q-11 -5 -62 -5q-23 0 -36 1t-19 3t-8.5 6t-4.5 13q-10 33 -21 71.5t-23.5 78.5t-24.5 78t-23 68q-2 4 -4 11.5t-8 7.5q-8 0 -10 -7l-4 -14 q-23 -66 -46.5 -143.5t-45.5 -146.5q-6 -20 -16.5 -23.5t-53.5 -3.5q-41 0 -53 4q-8 3 -9 12q0 5 2 11z" />
<glyph unicode="y" horiz-adv-x="512" d="M9 967q0 11 13 13q15 3 56 3t54 -4t18 -25q23 -154 44 -295t44 -284q0 -4 2 -12.5t10 -8.5q10 0 11 8.5t5 14.5q25 152 46.5 290t45.5 291q4 16 15.5 20.5t58.5 4.5q60 0 60 -24v-5q-37 -184 -73 -354t-71 -334t-68.5 -324.5t-68.5 -324.5q-4 -18 -15.5 -22.5t-52.5 -4.5 q-33 0 -44 5.5t-7 27.5q12 55 21.5 101.5t18.5 91.5t19.5 91t20.5 99q4 20 4 32v42q0 33 -1 41t-5 26q-23 113 -42 211.5t-37.5 193.5t-38.5 194q-4 20 -16 65t-19.5 84t-7.5 72z" />
<glyph unicode="z" horiz-adv-x="501" d="M31 80q0 47 1 65.5t3 22.5q41 94 71.5 163.5t60.5 135t62.5 140.5t79.5 179q8 18 9 42t-13 34q-8 4 -25 4h-28h-176q-23 0 -28 11.5t-5 44.5q0 39 4 50t23 11h358q33 0 38 -12.5t5 -69.5q0 -31 -3 -48t-7 -28q-45 -106 -83 -192t-71 -163t-63.5 -147.5t-63.5 -144.5 q-6 -12 -7 -32.5t7 -24.5t32 -5t40 -1h188q18 0 24.5 -11.5t6.5 -46.5q0 -37 -2 -47t-29 -10h-372q-27 0 -32 13.5t-5 66.5z" />
<glyph unicode="{" horiz-adv-x="393" d="M31 713q0 66 10 65q41 0 72.5 39t31.5 84v498q0 117 69 183.5t169 66.5q12 0 13 -21.5t1 -40.5q0 -18 -2 -41.5t-12 -23.5q-47 0 -75.5 -39t-28.5 -84v-498q0 -55 -11.5 -89t-25 -54.5t-24.5 -28.5t-11 -14t11 -15.5t24.5 -29t25 -53t11.5 -89.5v-481q0 -63 28.5 -94 t75.5 -31q10 0 10 -20v-37v-53q0 -27 -10 -27q-102 0 -170 66.5t-68 189.5v487q0 23 -9 44.5t-24.5 39t-34 28.5t-36.5 11q-8 0 -9 12.5t-1 49.5z" />
<glyph unicode="|" horiz-adv-x="294" d="M82 -117v1663q0 20 10 25.5t51 5.5q47 0 58.5 -5t11.5 -28v-1657q0 -23 -11.5 -26.5t-58.5 -3.5q-37 0 -49 1.5t-12 24.5z" />
<glyph unicode="}" horiz-adv-x="393" d="M-2 1589v39q0 20 14 21q100 0 169 -66.5t69 -183.5v-498q0 -45 31.5 -84t72.5 -39q10 0 11.5 -19.5t1.5 -43.5q0 -23 -2.5 -43.5t-10.5 -20.5q-18 0 -36.5 -11t-34 -28.5t-24.5 -39t-9 -44.5v-487q0 -123 -67.5 -189.5t-170.5 -66.5q-10 0 -11 23.5t-1 52.5q0 16 1 38.5 t11 22.5q47 0 76 32t29 93v481q0 55 11 89t24.5 53.5t24.5 29t11 15.5t-11 14t-24.5 27.5t-24.5 54.5t-11 90v498q0 45 -29 84t-76 39q-10 0 -12 24.5t-2 42.5z" />
<glyph unicode="~" horiz-adv-x="610" d="M25 617.5q0 7.5 7 18.5t22.5 28.5t43.5 42.5q29 27 60.5 40t60.5 13q39 0 57.5 -18.5t51.5 -47.5q31 -27 47 -36t28 -9q14 0 38 18.5t40 39.5q16 20 31.5 36.5t24.5 4.5q10 -16 22 -39t23 -43q4 -6 -17.5 -30t-56.5 -58q-27 -27 -61.5 -41.5t-57.5 -14.5q-29 0 -48 10.5 t-48 38.5q-29 29 -51.5 45.5t-40.5 16.5q-27 0 -66 -45q-57 -63 -67 -51q-12 14 -20.5 32.5t-18.5 34.5q-4 6 -4 13.5z" />
<glyph unicode="&#xa1;" horiz-adv-x="294" d="M61 1110q0 16 2 35q2 35 25 57.5t57 26.5q27 2 42.5 -4t24.5 -17.5t13 -27t6 -31.5q4 -41 -21.5 -74t-64.5 -28q-35 4 -52 12t-24.5 21.5t-7.5 29.5zM80 -166v1012q0 23 12 30t58 7q41 0 51 -6.5t10 -28.5v-1018q0 -23 -10.5 -29t-50.5 -6q-47 0 -58.5 5t-11.5 34z" />
<glyph unicode="&#xa2;" horiz-adv-x="569" d="M53 256v475q0 188 164 246q6 2 6 7v15v103q0 20 10.5 25.5t51.5 5.5q47 0 58 -5.5t11 -27.5v-99v-15q0 -5 6 -7q74 -18 121 -75.5t47 -174.5q0 -10 -11 -14t-52 -4q-72 0 -72 12q0 68 -29.5 96.5t-72.5 28.5q-41 0 -73 -28.5t-32 -96.5v-461q0 -47 22.5 -86t82.5 -39 q31 0 51 12.5t31.5 31t15.5 40t4 41.5q0 6 13.5 7t54.5 1t54 -2t13 -12q0 -92 -36.5 -158.5t-126.5 -91.5q-10 -4 -11 -8v-12v-101q0 -23 -11 -26.5t-58 -3.5q-37 0 -49.5 2t-12.5 24v109v10q0 6 -10 10q-84 29 -122 94.5t-38 151.5z" />
<glyph unicode="&#xa3;" horiz-adv-x="589" d="M72 39v39v1114q0 41 14 84t44 78t75 57.5t104 22.5q63 0 108.5 -26t74 -62.5t42 -78.5t13.5 -75v-92q0 -16 -19.5 -19.5t-48.5 -3.5q-31 0 -50 2t-19 21v96q0 16 -7.5 35.5t-20.5 36t-31.5 28t-41.5 11.5q-47 0 -75.5 -37t-28.5 -72v-360v-29q0 -14 12 -25q10 -8 22 -8 h23h100q18 0 23.5 -13t5.5 -46q0 -31 -4 -44.5t-25 -13.5h-92q-16 0 -30.5 -1t-20.5 -5q-14 -10 -14 -24v-35v-399q0 -20 1 -44t9 -28q4 -2 6 -4t7 -3t16 -1h32h246q18 0 22.5 -11.5t4.5 -46.5t-4 -46t-21 -11h-358q-25 0 -48.5 -1t-33.5 9q-12 11 -12 31z" />
<glyph unicode="&#xa4;" horiz-adv-x="774" d="M31 735q0 47 5 58.5t27 11.5h87q20 0 22 8t2 25v309q0 20 22.5 40.5t39.5 20.5h73q10 0 11.5 5.5t1.5 9.5v180q0 20 10 25.5t51 5.5q47 0 58.5 -5.5t11.5 -27.5v-176q0 -16 14 -17h82q18 0 34.5 -16t16.5 -45v-316q0 -14 3 -20t22 -6h88q23 0 26.5 -11.5t3.5 -58.5 q0 -37 -2 -49t-24 -12h-90q-20 0 -23.5 -5t-3.5 -22v-364q0 -35 -15.5 -46.5t-31.5 -11.5h-86q-4 0 -9 -3t-5 -15v-176q0 -23 -11.5 -27t-58.5 -4q-37 0 -49 2t-12 25v184q0 14 -13 14h-84q-25 0 -38 20.5t-13 39.5v362q0 16 -3 21.5t-24 5.5h-86q-20 0 -25 10t-5 51z M307 375q0 -35 35 -35h90q35 0 35 35v686q0 20 -13.5 25.5t-25.5 5.5h-82q-12 0 -25.5 -5.5t-13.5 -25.5v-686z" />
<glyph unicode="&#xa5;" horiz-adv-x="555" d="M23 1403q-4 20 14 24.5t45 4.5q47 0 58.5 -5.5t15.5 -27.5q53 -272 108 -518q2 -4 4 -11.5t8 -7.5t7.5 8.5t3.5 12.5q31 135 57.5 257t50.5 259q4 20 14.5 26.5t51.5 6.5t58.5 -4.5t12.5 -24.5q-33 -152 -63.5 -283t-65.5 -278q-4 -10 -2 -16.5t15 -6.5q41 0 67.5 -8 t26.5 -25q0 -16 1 -31.5t-3 -31.5q-4 -12 -10 -22.5t-37 -10.5h-74q-6 0 -12 -3t-8 -15q-4 -18 -6.5 -36t-4.5 -32t-6 -34.5t-4 -49.5q0 -12 3 -16t26 -4q49 0 76.5 -2t41 -6.5t15.5 -10.5t2 -14q0 -16 1 -31.5t5 -32.5q4 -12 -2 -22t-37 -10h-115q-8 0 -12 -3t-4 -16v-336 q0 -14 -25.5 -15t-46.5 -1q-25 0 -45 2t-20 21q0 84 1 162.5t1 162.5q0 16 -3 20.5t-15 4.5h-105q-8 0 -29.5 8t-17.5 31q4 16 3 27.5t-3 29.5t13.5 24.5t49.5 6.5h93q14 0 14 20q0 29 -3 45.5t-7 32.5q-2 14 -6.5 33.5t-8.5 42.5q-2 12 -5 15t-15 3h-78q-8 0 -29.5 8.5 t-17.5 30.5q4 16 3 27.5t-3 29.5t17.5 24.5t84.5 6.5q4 0 8.5 5t0.5 24q-33 141 -63.5 273t-65.5 282z" />
<glyph unicode="&#xa6;" horiz-adv-x="774" d="M31 735q0 47 5 58.5t27 11.5h87q20 0 22 8t2 25v309q0 20 22.5 40.5t39.5 20.5h73q10 0 11.5 5.5t1.5 9.5v180q0 20 10 25.5t51 5.5q47 0 58.5 -5.5t11.5 -27.5v-176q0 -16 14 -17h82q18 0 34.5 -16t16.5 -45v-316q0 -14 3 -20t22 -6h88q23 0 26.5 -11.5t3.5 -58.5 q0 -37 -2 -49t-24 -12h-90q-20 0 -23.5 -5t-3.5 -22v-364q0 -35 -15.5 -46.5t-31.5 -11.5h-86q-4 0 -9 -3t-5 -15v-176q0 -23 -11.5 -27t-58.5 -4q-37 0 -49 2t-12 25v184q0 14 -13 14h-84q-25 0 -38 20.5t-13 39.5v362q0 16 -3 21.5t-24 5.5h-86q-20 0 -25 10t-5 51z M307 375q0 -35 35 -35h90q35 0 35 35v686q0 20 -13.5 25.5t-25.5 5.5h-82q-12 0 -25.5 -5.5t-13.5 -25.5v-686z" />
<glyph unicode="&#xa7;" horiz-adv-x="571" d="M49 94v115q0 16 13.5 21.5t54.5 5.5q37 0 53 -3.5t16 -19.5v-113q0 -39 22.5 -72.5t78.5 -33.5q33 0 53 11t31.5 28.5t15.5 37t4 38.5q0 63 -24.5 112t-62.5 92t-81 84t-81 85t-62.5 96.5t-24.5 119.5q0 55 20.5 102.5t90.5 82.5q8 4 -2 18q-51 78 -80 150.5t-29 146.5 q0 37 12.5 78t39 75.5t70.5 58.5t108 24q57 0 101 -24t71.5 -58.5t42 -77.5t14.5 -82v-94q0 -12 -18.5 -14.5t-53.5 -2.5q-29 0 -47 2t-18 17v96q0 51 -29 81t-63 30q-43 0 -70 -35t-27 -74q0 -61 25 -109.5t62.5 -91.5t80.5 -85t81 -91t62.5 -110.5t24.5 -141.5 q0 -35 -4 -60.5t-13 -46t-25.5 -37.5t-41.5 -36q-16 -12 -10 -20q27 -45 45.5 -77t28.5 -59.5t15 -57.5t5 -69q0 -119 -68.5 -184t-168.5 -65t-169 58t-69 179zM190 694q-2 -53 39 -107.5t101 -109.5q4 -2 8 -6t14 0q12 4 19.5 19.5t11.5 33t5 33.5t1 27q4 70 -30.5 117 t-82.5 92q-20 16 -32 10q-14 -4 -24.5 -16.5t-16.5 -29t-9.5 -34t-3.5 -29.5z" />
<glyph unicode="&#xa8;" horiz-adv-x="585" d="M70 1192q2 33 17 59.5t69 24.5q35 -2 57.5 -27.5t24.5 -60.5q2 -18 2 -34.5t-7.5 -30t-25 -21.5t-51.5 -12q-39 -4 -64.5 28.5t-21.5 73.5zM346 1192q2 33 17.5 59.5t68.5 24.5q35 -2 57.5 -27.5t24.5 -60.5q2 -18 2 -34.5t-7 -30t-24.5 -21.5t-52.5 -12 q-39 -4 -64.5 28.5t-21.5 73.5z" />
<glyph unicode="&#xa9;" horiz-adv-x="1134" d="M70 938q0 102 38.5 193.5t106.5 159t159 106.5t193 39q104 0 195.5 -39t159 -106.5t106.5 -159t39 -193.5q0 -104 -39 -194.5t-106.5 -157t-158.5 -105.5t-196 -39q-102 0 -193 39t-159 105.5t-106.5 157t-38.5 194.5zM180 940q0 -80 31 -150.5t84 -123t125 -83 t151 -30.5q80 0 152 30.5t124 83t83 123t31 150.5t-31 151.5t-83 125t-124 84t-152 30.5t-151.5 -30.5t-124.5 -84t-84 -125t-31 -151.5zM399 838v217q0 43 17.5 74.5t43 53t55.5 33t56 11.5q31 0 62 -12.5t55.5 -34t39.5 -51t15 -66.5q0 -6 -18 -10t-29 -4h-27q-17 0 -18 6 q0 37 -27.5 56t-52.5 19q-20 0 -51 -17t-31 -58v-215q0 -37 27 -54.5t55 -17.5q25 0 52.5 15.5t27.5 54.5q0 8 17 8h28q14 0 30.5 1t16.5 -9q0 -37 -14 -69t-38.5 -54.5t-55.5 -35.5t-64 -13q-31 0 -61.5 11t-55 32.5t-40 53.5t-15.5 75z" />
<glyph unicode="&#xaa;" horiz-adv-x="292" d="M41 954q0 23 4 30t16 7h183q4 0 6 -7t2 -32q0 -23 -1 -31t-5 -8h-187q-14 0 -16 8t-2 33zM51 1141v192q0 55 32 79t62 24q6 0 14.5 -1t18.5 -12q10 -8 10 9q0 4 25 4q18 0 23.5 -1t5.5 -8v-376q0 -8 -4.5 -9.5t-22.5 -1.5q-16 0 -20.5 1t-4.5 8v9q0 5 -6 5q-4 0 -9 -11.5 t-30 -11.5q-49 0 -71.5 29t-22.5 72zM113 1149q0 -39 32 -39q35 0 35 39v182q0 12 -9 25.5t-26 13.5q-14 0 -23 -13.5t-9 -25.5v-182z" />
<glyph unicode="&#xab;" horiz-adv-x="546" d="M31 506q0 8 11 37.5t27.5 65.5t34 74t29.5 65q16 37 38 56t36 9q16 -8 23.5 -15t23.5 -12q14 -4 18 -13t-8 -36l-37 -78q-18 -39 -32.5 -70.5t-23.5 -54t-9 -28.5t8 -27.5t22.5 -53.5t33 -71t38.5 -78q14 -29 9 -37t-19 -12q-16 -4 -23.5 -11t-23.5 -15q-14 -10 -34.5 9 t-39.5 56q-12 25 -29.5 63t-34 73.5t-27.5 64.5t-11 39zM262 506q0 8 11.5 37.5t27.5 65.5t33.5 74t30.5 65q16 37 32.5 56t30.5 9q16 -8 28.5 -15t28.5 -12q14 -4 18.5 -13t-7.5 -36l-37 -78q-18 -39 -32.5 -70.5t-24 -54t-9.5 -28.5t8.5 -27.5t22.5 -53.5t32.5 -71 t39.5 -78q14 -29 9 -37t-20 -12q-16 -4 -28.5 -11t-28.5 -15q-14 -10 -29.5 9t-33.5 56q-12 25 -30 63t-34 73.5t-27.5 64.5t-11.5 39z" />
<glyph unicode="&#xac;" horiz-adv-x="774" d="M31 735q0 47 5 58.5t27 11.5h87q20 0 22 8t2 25v309q0 20 22.5 40.5t39.5 20.5h73q10 0 11.5 5.5t1.5 9.5v180q0 20 10 25.5t51 5.5q47 0 58.5 -5.5t11.5 -27.5v-176q0 -16 14 -17h82q18 0 34.5 -16t16.5 -45v-316q0 -14 3 -20t22 -6h88q23 0 26.5 -11.5t3.5 -58.5 q0 -37 -2 -49t-24 -12h-90q-20 0 -23.5 -5t-3.5 -22v-364q0 -35 -15.5 -46.5t-31.5 -11.5h-86q-4 0 -9 -3t-5 -15v-176q0 -23 -11.5 -27t-58.5 -4q-37 0 -49 2t-12 25v184q0 14 -13 14h-84q-25 0 -38 20.5t-13 39.5v362q0 16 -3 21.5t-24 5.5h-86q-20 0 -25 10t-5 51z M307 375q0 -35 35 -35h90q35 0 35 35v686q0 20 -13.5 25.5t-25.5 5.5h-82q-12 0 -25.5 -5.5t-13.5 -25.5v-686z" />
<glyph unicode="&#xad;" horiz-adv-x="774" d="M31 735q0 47 5 58.5t27 11.5h87q20 0 22 8t2 25v309q0 20 22.5 40.5t39.5 20.5h73q10 0 11.5 5.5t1.5 9.5v180q0 20 10 25.5t51 5.5q47 0 58.5 -5.5t11.5 -27.5v-176q0 -16 14 -17h82q18 0 34.5 -16t16.5 -45v-316q0 -14 3 -20t22 -6h88q23 0 26.5 -11.5t3.5 -58.5 q0 -37 -2 -49t-24 -12h-90q-20 0 -23.5 -5t-3.5 -22v-364q0 -35 -15.5 -46.5t-31.5 -11.5h-86q-4 0 -9 -3t-5 -15v-176q0 -23 -11.5 -27t-58.5 -4q-37 0 -49 2t-12 25v184q0 14 -13 14h-84q-25 0 -38 20.5t-13 39.5v362q0 16 -3 21.5t-24 5.5h-86q-20 0 -25 10t-5 51z M307 375q0 -35 35 -35h90q35 0 35 35v686q0 20 -13.5 25.5t-25.5 5.5h-82q-12 0 -25.5 -5.5t-13.5 -25.5v-686z" />
<glyph unicode="&#xae;" horiz-adv-x="1134" d="M70 936q0 104 38.5 195.5t106.5 159t159 106.5t193 39q104 0 195.5 -39t159 -106.5t106.5 -159t39 -195.5q0 -102 -39 -192.5t-106.5 -158t-158.5 -106.5t-196 -39q-102 0 -193 39t-159 106.5t-106.5 158t-38.5 192.5zM180 940q0 -80 31 -150.5t84 -123t125 -83 t151 -30.5q80 0 152 30.5t124 83t83 123t31 150.5t-31 151.5t-83 124t-124 83t-152 30.5t-151.5 -30.5t-124.5 -83t-84 -124t-31 -151.5zM408 682v524q0 14 8 21q10 4 17 4h18h129q57 0 91 -17.5t52 -40t23.5 -47t5.5 -39.5v-28q0 -35 -13.5 -55.5t-29.5 -30.5 q-20 -12 -43 -17q0 -2 13 -4t29.5 -9t30 -23.5t13.5 -49.5v-188q0 -10 -10.5 -11t-39.5 -1q-49 0 -49 12v172q0 16 -17.5 33.5t-55.5 17.5q-35 0 -55.5 -2t-20.5 -18v-203q0 -8 -8.5 -10t-42.5 -2q-27 0 -36 1t-9 11zM503 1128.5q1 -12.5 1 -14.5v-100q0 -12 6 -15 q6 -2 21 -2h20q55 0 74.5 10.5t19.5 41.5v34q0 35 -20.5 46.5t-77.5 11.5h-43q-2 0 -1 -12.5z" />
<glyph unicode="&#xaf;" horiz-adv-x="585" d="M110 1111q-1 17 1 38.5t6 39t10 17.5q25 0 59.5 2t112.5 2q76 0 117 3.5t59 3.5q6 0 9 -18.5t4 -42t-1 -42t-8 -18.5q-12 0 -25.5 -1t-33 -2t-49 -2t-78.5 -1q-84 0 -119 2t-57 2q-6 0 -7 17z" />
<glyph unicode="&#xb0;" horiz-adv-x="524" d="M86 1260q2 37 10 69.5t27.5 58t54.5 39t90 11.5q39 -2 73 -19.5t58.5 -45t37 -63.5t7.5 -75q-4 -35 -8 -71t-21.5 -64.5t-51 -46t-95.5 -15.5q-41 0 -76.5 18.5t-61.5 48.5t-38 70t-6 85zM170 1239q0 -53 29.5 -78.5t68.5 -30.5q31 0 48.5 8.5t25.5 22t10 31.5t6 37 q8 53 -16.5 85t-73.5 32q-39 0 -59.5 -9.5t-28.5 -25t-9 -35t-1 -37.5z" />
<glyph unicode="&#xb1;" horiz-adv-x="968" d="M10 903q0 29 3 43.5t16 14.5q35 0 47 5t12 25v193q0 49 16.5 95t47 80t75.5 54.5t103 20.5q10 0 10 -18v-46q0 -63 -10 -63q-37 0 -75 -35t-38 -88v-193q0 -23 15.5 -26.5t80.5 -3.5h49q35 0 46.5 5t11.5 25v189q0 119 65.5 187.5t169.5 68.5q49 0 92.5 -14.5t75 -45 t51 -80t19.5 -118.5v-228v-913q0 -29 -11.5 -33t-60.5 -4q-43 0 -53 4t-10 29v919v219q0 68 -30 96.5t-73 28.5q-47 0 -73.5 -31.5t-28.5 -93.5v-180q0 -23 19.5 -26.5t84.5 -3.5q16 0 21.5 -12.5t5.5 -51.5t-3 -49t-19 -10q-74 0 -92.5 -4.5t-18.5 -26.5v-770 q0 -29 -13.5 -33t-54.5 -4t-51 4t-10 29v774q0 20 -10.5 25.5t-46.5 5.5h-48q-37 0 -57 -1t-29.5 -4.5t-11.5 -9.5t-2 -16v-770q0 -29 -13.5 -33t-53.5 -4q-41 0 -51.5 4t-10.5 29v774q0 20 -10 26.5t-47 6.5q-18 0 -19.5 17t-1.5 46z" />
<glyph unicode="&#xb2;" horiz-adv-x="774" d="M31 735q0 47 5 58.5t27 11.5h87q20 0 22 8t2 25v309q0 20 22.5 40.5t39.5 20.5h73q10 0 11.5 5.5t1.5 9.5v180q0 20 10 25.5t51 5.5q47 0 58.5 -5.5t11.5 -27.5v-176q0 -16 14 -17h82q18 0 34.5 -16t16.5 -45v-316q0 -14 3 -20t22 -6h88q23 0 26.5 -11.5t3.5 -58.5 q0 -37 -2 -49t-24 -12h-90q-20 0 -23.5 -5t-3.5 -22v-364q0 -35 -15.5 -46.5t-31.5 -11.5h-86q-4 0 -9 -3t-5 -15v-176q0 -23 -11.5 -27t-58.5 -4q-37 0 -49 2t-12 25v184q0 14 -13 14h-84q-25 0 -38 20.5t-13 39.5v362q0 16 -3 21.5t-24 5.5h-86q-20 0 -25 10t-5 51z M307 375q0 -35 35 -35h90q35 0 35 35v686q0 20 -13.5 25.5t-25.5 5.5h-82q-12 0 -25.5 -5.5t-13.5 -25.5v-686z" />
<glyph unicode="&#xb3;" horiz-adv-x="774" d="M31 735q0 47 5 58.5t27 11.5h87q20 0 22 8t2 25v309q0 20 22.5 40.5t39.5 20.5h73q10 0 11.5 5.5t1.5 9.5v180q0 20 10 25.5t51 5.5q47 0 58.5 -5.5t11.5 -27.5v-176q0 -16 14 -17h82q18 0 34.5 -16t16.5 -45v-316q0 -14 3 -20t22 -6h88q23 0 26.5 -11.5t3.5 -58.5 q0 -37 -2 -49t-24 -12h-90q-20 0 -23.5 -5t-3.5 -22v-364q0 -35 -15.5 -46.5t-31.5 -11.5h-86q-4 0 -9 -3t-5 -15v-176q0 -23 -11.5 -27t-58.5 -4q-37 0 -49 2t-12 25v184q0 14 -13 14h-84q-25 0 -38 20.5t-13 39.5v362q0 16 -3 21.5t-24 5.5h-86q-20 0 -25 10t-5 51z M307 375q0 -35 35 -35h90q35 0 35 35v686q0 20 -13.5 25.5t-25.5 5.5h-82q-12 0 -25.5 -5.5t-13.5 -25.5v-686z" />
<glyph unicode="&#xb4;" horiz-adv-x="585" d="M133 1167q-10 14 9.5 34t58.5 40q43 23 72.5 42.5t74.5 45.5q31 16 47.5 19.5t24.5 -13.5q8 -16 13 -27.5t16 -23.5q8 -8 7 -17.5t-6.5 -17.5t-12.5 -14t-9 -8q-37 -20 -58.5 -32.5t-42 -25t-47 -28t-71.5 -41.5q-29 -16 -37 -10t-12 20q-4 16 -11.5 28.5t-15.5 28.5z " />
<glyph unicode="&#xb5;" horiz-adv-x="774" d="M31 735q0 47 5 58.5t27 11.5h87q20 0 22 8t2 25v309q0 20 22.5 40.5t39.5 20.5h73q10 0 11.5 5.5t1.5 9.5v180q0 20 10 25.5t51 5.5q47 0 58.5 -5.5t11.5 -27.5v-176q0 -16 14 -17h82q18 0 34.5 -16t16.5 -45v-316q0 -14 3 -20t22 -6h88q23 0 26.5 -11.5t3.5 -58.5 q0 -37 -2 -49t-24 -12h-90q-20 0 -23.5 -5t-3.5 -22v-364q0 -35 -15.5 -46.5t-31.5 -11.5h-86q-4 0 -9 -3t-5 -15v-176q0 -23 -11.5 -27t-58.5 -4q-37 0 -49 2t-12 25v184q0 14 -13 14h-84q-25 0 -38 20.5t-13 39.5v362q0 16 -3 21.5t-24 5.5h-86q-20 0 -25 10t-5 51z M307 375q0 -35 35 -35h90q35 0 35 35v686q0 20 -13.5 25.5t-25.5 5.5h-82q-12 0 -25.5 -5.5t-13.5 -25.5v-686z" />
<glyph unicode="&#xb6;" horiz-adv-x="647" d="M51 883v266q0 76 31 130t72 88t80.5 50.5t58.5 16.5h217q12 0 23.5 -1t23.5 -12q10 -10 12 -22.5t2 -28.5v-1341q0 -23 -5 -26t-29 -3q-41 0 -48.5 4t-7.5 29v1237q0 23 -5 28t-23 5q-10 0 -13.5 -7.5t-3.5 -29.5v-1237q0 -23 -6 -26t-47 -3q-25 0 -31 4t-6 29v518 q0 43 -39 43q-25 0 -67.5 14.5t-84.5 48t-73 89t-31 137.5zM184 881q0 -35 15.5 -64t36 -48t40 -29.5t29.5 -10.5h16q1 0 9 4q14 8 14 26v34v456q0 35 -8 42t-14 7q-16 0 -40 -9t-45.5 -28.5t-37 -47t-15.5 -64.5v-268z" />
<glyph unicode="&#xb7;" horiz-adv-x="253" d="M41 809q2 33 17.5 59.5t68.5 24.5q35 -2 57.5 -27.5t24.5 -60.5q2 -18 2 -34.5t-7 -30t-24.5 -21.5t-52.5 -12q-39 -4 -64.5 28.5t-21.5 73.5z" />
<glyph unicode="&#x2219;" horiz-adv-x="253" d="M41 809q2 33 17.5 59.5t68.5 24.5q35 -2 57.5 -27.5t24.5 -60.5q2 -18 2 -34.5t-7 -30t-24.5 -21.5t-52.5 -12q-39 -4 -64.5 28.5t-21.5 73.5z" />
<glyph unicode="&#xb8;" horiz-adv-x="585" d="M172 -164q0 39 6 39q25 0 46.5 24.5t21.5 53.5v70q0 10 14 11t31 1q16 0 28.5 -1t12.5 -9v-72q0 -63 -44 -110.5t-110 -47.5q-6 0 -6 41z" />
<glyph unicode="&#xb9;" horiz-adv-x="774" d="M31 735q0 47 5 58.5t27 11.5h87q20 0 22 8t2 25v309q0 20 22.5 40.5t39.5 20.5h73q10 0 11.5 5.5t1.5 9.5v180q0 20 10 25.5t51 5.5q47 0 58.5 -5.5t11.5 -27.5v-176q0 -16 14 -17h82q18 0 34.5 -16t16.5 -45v-316q0 -14 3 -20t22 -6h88q23 0 26.5 -11.5t3.5 -58.5 q0 -37 -2 -49t-24 -12h-90q-20 0 -23.5 -5t-3.5 -22v-364q0 -35 -15.5 -46.5t-31.5 -11.5h-86q-4 0 -9 -3t-5 -15v-176q0 -23 -11.5 -27t-58.5 -4q-37 0 -49 2t-12 25v184q0 14 -13 14h-84q-25 0 -38 20.5t-13 39.5v362q0 16 -3 21.5t-24 5.5h-86q-20 0 -25 10t-5 51z M307 375q0 -35 35 -35h90q35 0 35 35v686q0 20 -13.5 25.5t-25.5 5.5h-82q-12 0 -25.5 -5.5t-13.5 -25.5v-686z" />
<glyph unicode="&#xba;" horiz-adv-x="292" d="M41 954q0 23 4 30t16 7h183q4 0 6 -7t2 -32q0 -23 -1 -31t-5 -8h-187q-14 0 -16 8t-2 33zM51 1143v192q0 47 26.5 74t67.5 27t69 -29t28 -72v-192q0 -53 -28 -78t-69 -25t-67.5 27t-26.5 76zM113 1149q0 -39 32 -39q33 0 33 39v182q0 12 -8 25.5t-25 13.5 q-16 0 -24 -13.5t-8 -25.5v-182z" />
<glyph unicode="&#xbb;" horiz-adv-x="546" d="M40 239.5q-5 8.5 9 36.5q20 39 38.5 78t33 71t23 53.5t8.5 27.5t-9.5 28.5t-24 54.5t-32.5 70l-37 78q-12 27 -8 36t18 13q16 4 28.5 11.5t29.5 15.5q14 10 30.5 -9.5t32.5 -55.5q12 -27 29.5 -65t34 -74t28 -65.5t11.5 -37.5q0 -10 -11.5 -39t-28 -64.5t-33.5 -73.5 t-30 -63q-18 -37 -33.5 -56.5t-29.5 -8.5q-16 8 -28.5 15t-29.5 11q-14 4 -19 12.5zM271 239.5q-5 8.5 10 36.5q20 39 38.5 78t33 71t22.5 53.5t8 27.5t-9 28.5t-23.5 54.5t-33.5 70l-36 78q-12 27 -8.5 36t18.5 13q16 4 23.5 11.5t23.5 15.5q14 10 35.5 -9.5t38.5 -55.5 q12 -27 29.5 -65t34 -74t27.5 -65.5t11 -37.5q0 -10 -11 -39t-27.5 -64.5t-34 -73.5t-29.5 -63q-18 -37 -39 -56.5t-35 -8.5q-16 8 -23.5 15t-23.5 11q-15 4 -20 12.5z" />
<glyph unicode="&#xbc;" horiz-adv-x="774" d="M31 735q0 47 5 58.5t27 11.5h87q20 0 22 8t2 25v309q0 20 22.5 40.5t39.5 20.5h73q10 0 11.5 5.5t1.5 9.5v180q0 20 10 25.5t51 5.5q47 0 58.5 -5.5t11.5 -27.5v-176q0 -16 14 -17h82q18 0 34.5 -16t16.5 -45v-316q0 -14 3 -20t22 -6h88q23 0 26.5 -11.5t3.5 -58.5 q0 -37 -2 -49t-24 -12h-90q-20 0 -23.5 -5t-3.5 -22v-364q0 -35 -15.5 -46.5t-31.5 -11.5h-86q-4 0 -9 -3t-5 -15v-176q0 -23 -11.5 -27t-58.5 -4q-37 0 -49 2t-12 25v184q0 14 -13 14h-84q-25 0 -38 20.5t-13 39.5v362q0 16 -3 21.5t-24 5.5h-86q-20 0 -25 10t-5 51z M307 375q0 -35 35 -35h90q35 0 35 35v686q0 20 -13.5 25.5t-25.5 5.5h-82q-12 0 -25.5 -5.5t-13.5 -25.5v-686z" />
<glyph unicode="&#xbd;" horiz-adv-x="774" d="M31 735q0 47 5 58.5t27 11.5h87q20 0 22 8t2 25v309q0 20 22.5 40.5t39.5 20.5h73q10 0 11.5 5.5t1.5 9.5v180q0 20 10 25.5t51 5.5q47 0 58.5 -5.5t11.5 -27.5v-176q0 -16 14 -17h82q18 0 34.5 -16t16.5 -45v-316q0 -14 3 -20t22 -6h88q23 0 26.5 -11.5t3.5 -58.5 q0 -37 -2 -49t-24 -12h-90q-20 0 -23.5 -5t-3.5 -22v-364q0 -35 -15.5 -46.5t-31.5 -11.5h-86q-4 0 -9 -3t-5 -15v-176q0 -23 -11.5 -27t-58.5 -4q-37 0 -49 2t-12 25v184q0 14 -13 14h-84q-25 0 -38 20.5t-13 39.5v362q0 16 -3 21.5t-24 5.5h-86q-20 0 -25 10t-5 51z M307 375q0 -35 35 -35h90q35 0 35 35v686q0 20 -13.5 25.5t-25.5 5.5h-82q-12 0 -25.5 -5.5t-13.5 -25.5v-686z" />
<glyph unicode="&#xbe;" horiz-adv-x="774" d="M31 735q0 47 5 58.5t27 11.5h87q20 0 22 8t2 25v309q0 20 22.5 40.5t39.5 20.5h73q10 0 11.5 5.5t1.5 9.5v180q0 20 10 25.5t51 5.5q47 0 58.5 -5.5t11.5 -27.5v-176q0 -16 14 -17h82q18 0 34.5 -16t16.5 -45v-316q0 -14 3 -20t22 -6h88q23 0 26.5 -11.5t3.5 -58.5 q0 -37 -2 -49t-24 -12h-90q-20 0 -23.5 -5t-3.5 -22v-364q0 -35 -15.5 -46.5t-31.5 -11.5h-86q-4 0 -9 -3t-5 -15v-176q0 -23 -11.5 -27t-58.5 -4q-37 0 -49 2t-12 25v184q0 14 -13 14h-84q-25 0 -38 20.5t-13 39.5v362q0 16 -3 21.5t-24 5.5h-86q-20 0 -25 10t-5 51z M307 375q0 -35 35 -35h90q35 0 35 35v686q0 20 -13.5 25.5t-25.5 5.5h-82q-12 0 -25.5 -5.5t-13.5 -25.5v-686z" />
<glyph unicode="&#xbf;" horiz-adv-x="552" d="M61 -2v217q0 80 25 142.5t72 121.5q55 70 60 163t5 208q0 20 12.5 25.5t53.5 5.5q37 0 48 -3.5t11 -25.5q0 -72 -2 -136.5t-12 -125t-31.5 -116.5t-60.5 -107q-35 -45 -44.5 -82t-9.5 -86v-191q0 -92 107 -92q43 0 66.5 27.5t23.5 62.5v111q0 16 13.5 22t50.5 6 q41 0 52 -5t11 -23v-115q0 -35 -13.5 -71.5t-41 -66.5t-68.5 -49.5t-96 -19.5q-59 0 -102.5 17.5t-72 47t-43 65.5t-14.5 73zM205 1116.5q0 16.5 2 34.5q2 35 24.5 59.5t57.5 28.5q27 2 42 -5t24.5 -18.5t13.5 -28t6 -32.5q4 -41 -21.5 -73.5t-64.5 -28.5q-35 4 -52.5 12 t-24.5 21.5t-7 30z" />
<glyph unicode="&#xc0;" horiz-adv-x="522" d="M68 394q23 177 44 344t41.5 331t43.5 336q4 23 14 27t45 4q39 0 53.5 -5.5t16.5 -31.5q27 -197 47 -362t40.5 -323.5t41 -325.5t47.5 -368v-4q0 -12 -10 -14q-12 -2 -54 -2q-45 0 -57 1t-16 24q-12 86 -22.5 164.5t-23.5 164.5q-2 16 -20 17.5t-43 1.5q-29 0 -44 -1 t-17 -18q-10 -86 -18 -165l-15 -169q-2 -16 -19.5 -18t-66.5 -2q-23 0 -40 2q-16 2 -16 14q0 58 8 123t21.5 141.5t18.5 113.5zM213 502q0 -17 45 -17q18 0 33 2q13 2 12 12v3q-6 66 -10 122t-7 108t-7.5 105.5t-8.5 114.5q0 6 -2 14.5t-12 8.5q-8 0 -10 -8.5t-2 -12.5 q-10 -129 -17 -238q-1 -21 -7.5 -97.5t-6.5 -116.5zM107 1672.5q-1 9.5 7 17.5q10 12 15.5 23.5t13.5 27.5t24.5 13.5t49.5 -19.5q45 -27 74.5 -46t72.5 -42q37 -20 56.5 -39.5t9.5 -34.5q-8 -16 -15.5 -28.5t-11.5 -28.5q-4 -14 -12 -20.5t-37 10.5q-47 27 -73 42l-46 27 q-20 12 -41.5 24.5t-58.5 33.5q-4 2 -10.5 8t-11.5 14t-6 17.5z" />
<glyph unicode="&#xc1;" horiz-adv-x="522" d="M68 394q23 177 44 344t41.5 331t43.5 336q4 23 14 27t45 4q39 0 53.5 -5.5t16.5 -31.5q27 -197 47 -362t40.5 -323.5t41 -325.5t47.5 -368v-4q0 -12 -10 -14q-12 -2 -54 -2q-45 0 -57 1t-16 24q-12 86 -22.5 164.5t-23.5 164.5q-2 16 -20 17.5t-43 1.5q-29 0 -44 -1 t-17 -18q-10 -86 -18 -165l-15 -169q-2 -16 -19.5 -18t-66.5 -2q-23 0 -40 2q-16 2 -16 14q0 58 8 123t21.5 141.5t18.5 113.5zM213 502q0 -17 45 -17q18 0 33 2q13 2 12 12v3q-6 66 -10 122t-7 108t-7.5 105.5t-8.5 114.5q0 6 -2 14.5t-12 8.5q-8 0 -10 -8.5t-2 -12.5 q-10 -129 -17 -238q-1 -21 -7.5 -97.5t-6.5 -116.5zM182 1573q-10 14 9.5 34t58.5 40q43 23 72.5 42.5t74.5 45.5q31 16 47.5 19.5t24.5 -13.5q8 -16 13 -27.5t16 -23.5q8 -8 7 -17.5t-6.5 -17.5t-12.5 -14t-9 -8q-37 -20 -58.5 -32.5t-42 -25t-47 -28t-71.5 -41.5 q-29 -16 -37 -10t-12 20q-4 16 -11.5 28.5t-15.5 28.5z" />
<glyph unicode="&#xc2;" horiz-adv-x="522" d="M68 394q23 177 44 344t41.5 331t43.5 336q4 23 14 27t45 4q39 0 53.5 -5.5t16.5 -31.5q27 -197 47 -362t40.5 -323.5t41 -325.5t47.5 -368v-4q0 -12 -10 -14q-12 -2 -54 -2q-45 0 -57 1t-16 24q-12 86 -22.5 164.5t-23.5 164.5q-2 16 -20 17.5t-43 1.5q-29 0 -44 -1 t-17 -18q-10 -86 -18 -165l-15 -169q-2 -16 -19.5 -18t-66.5 -2q-23 0 -40 2q-16 2 -16 14q0 58 8 123t21.5 141.5t18.5 113.5zM213 502q0 -17 45 -17q18 0 33 2q13 2 12 12v3q-6 66 -10 122t-7 108t-7.5 105.5t-8.5 114.5q0 6 -2 14.5t-12 8.5q-8 0 -10 -8.5t-2 -12.5 q-10 -129 -17 -238q-1 -21 -7.5 -97.5t-6.5 -116.5zM57 1560q-10 14 13.5 30t52.5 44q39 37 78.5 70t58.5 33q8 0 24.5 -9.5t36 -25t40 -33.5t38.5 -35q29 -29 52.5 -44t13.5 -30q-8 -16 -15.5 -28.5t-11.5 -28.5q-4 -14 -15.5 -23.5t-33.5 13.5q-55 53 -87 77.5t-42 24.5 t-38 -21.5t-89 -80.5q-23 -23 -34 -13.5t-15 23.5q-4 16 -11.5 28.5t-15.5 28.5z" />
<glyph unicode="&#xc3;" horiz-adv-x="522" d="M68 394q23 177 44 344t41.5 331t43.5 336q4 23 14 27t45 4q39 0 53.5 -5.5t16.5 -31.5q27 -197 47 -362t40.5 -323.5t41 -325.5t47.5 -368v-4q0 -12 -10 -14q-12 -2 -54 -2q-45 0 -57 1t-16 24q-12 86 -22.5 164.5t-23.5 164.5q-2 16 -20 17.5t-43 1.5q-29 0 -44 -1 t-17 -18q-10 -86 -18 -165l-15 -169q-2 -16 -19.5 -18t-66.5 -2q-23 0 -40 2q-16 2 -16 14q0 58 8 123t21.5 141.5t18.5 113.5zM213 502q0 -17 45 -17q18 0 33 2q13 2 12 12v3q-6 66 -10 122t-7 108t-7.5 105.5t-8.5 114.5q0 6 -2 14.5t-12 8.5q-8 0 -10 -8.5t-2 -12.5 q-10 -129 -17 -238q-1 -21 -7.5 -97.5t-6.5 -116.5zM51 1569q-10 14 10.5 32.5t54.5 41.5q29 18 49.5 29.5t38.5 11.5t35 -1t39 -22q25 -23 38 -32t24 -9q10 0 22 9.5t53 44.5q23 20 34 12t16 -23q4 -16 11 -28t15 -29q10 -14 -12.5 -30.5t-52.5 -43.5q-35 -29 -50.5 -32.5 t-33.5 -3.5q-49 0 -74 24q-23 23 -34 30t-28 7q-8 0 -13 -2t-13 -8t-20.5 -16.5t-32.5 -28.5q-16 -12 -30.5 -8t-19.5 18q-4 16 -11 28.5t-15 28.5z" />
<glyph unicode="&#xc4;" horiz-adv-x="522" d="M68 394q23 177 44 344t41.5 331t43.5 336q4 23 14 27t45 4q39 0 53.5 -5.5t16.5 -31.5q27 -197 47 -362t40.5 -323.5t41 -325.5t47.5 -368v-4q0 -12 -10 -14q-12 -2 -54 -2q-45 0 -57 1t-16 24q-12 86 -22.5 164.5t-23.5 164.5q-2 16 -20 17.5t-43 1.5q-29 0 -44 -1 t-17 -18q-10 -86 -18 -165l-15 -169q-2 -16 -19.5 -18t-66.5 -2q-23 0 -40 2q-16 2 -16 14q0 58 8 123t21.5 141.5t18.5 113.5zM213 502q0 -17 45 -17q18 0 33 2q13 2 12 12v3q-6 66 -10 122t-7 108t-7.5 105.5t-8.5 114.5q0 6 -2 14.5t-12 8.5q-8 0 -10 -8.5t-2 -12.5 q-10 -129 -17 -238q-1 -21 -7.5 -97.5t-6.5 -116.5zM41 1598q2 33 17 59.5t69 24.5q35 -2 57.5 -27.5t24.5 -60.5q2 -18 2 -34.5t-7.5 -30t-25 -21.5t-51.5 -12q-39 -4 -64.5 28.5t-21.5 73.5zM317 1598q2 33 17.5 59.5t68.5 24.5q35 -2 57.5 -27.5t24.5 -60.5 q2 -18 2 -34.5t-7 -30t-24.5 -21.5t-52.5 -12q-39 -4 -64.5 28.5t-21.5 73.5z" />
<glyph unicode="&#xc5;" horiz-adv-x="522" d="M68 394q23 177 44 344t41.5 331t43.5 336q4 23 14 27t45 4q39 0 53.5 -5.5t16.5 -31.5q27 -197 47 -362t40.5 -323.5t41 -325.5t47.5 -368v-4q0 -12 -10 -14q-12 -2 -54 -2q-45 0 -57 1t-16 24q-12 86 -22.5 164.5t-23.5 164.5q-2 16 -20 17.5t-43 1.5q-29 0 -44 -1 t-17 -18q-10 -86 -18 -165l-15 -169q-2 -16 -19.5 -18t-66.5 -2q-23 0 -40 2q-16 2 -16 14q0 58 8 123t21.5 141.5t18.5 113.5zM213 502q0 -17 45 -17q18 0 33 2q13 2 12 12v3q-6 66 -10 122t-7 108t-7.5 105.5t-8.5 114.5q0 6 -2 14.5t-12 8.5q-8 0 -10 -8.5t-2 -12.5 q-10 -129 -17 -238q-1 -21 -7.5 -97.5t-6.5 -116.5zM149 1640q4 47 26.5 79t96.5 40q27 2 49.5 -8.5t37.5 -30t23.5 -45t6.5 -51.5q-2 -25 -6.5 -46.5t-15.5 -39t-33.5 -29.5t-61.5 -16q-29 -4 -52.5 8t-40 32.5t-25.5 48t-5 58.5zM213 1628q-4 -33 16 -52.5t43 -17.5 q33 6 41 22.5t12 39.5q6 33 -9 53t-44 16q-23 -4 -34 -9t-16 -12.5t-6 -17.5t-3 -22z" />
<glyph unicode="&#xc6;" horiz-adv-x="837" d="M31 12q2 10 13 75t29.5 162t40 219t44 247t44 244.5t38 214t28 152.5t13.5 63q10 27 24 36t31 9h446q18 0 21.5 -16.5t3.5 -45.5t-3 -42t-24 -13h-205q-12 0 -27.5 -2t-19.5 -8q-8 -10 -9 -14.5t-1 -24.5v-389v-29q0 -14 12 -25q10 -8 22 -8h23h97q18 0 23 -13t5 -46 q0 -31 -4 -44.5t-24 -13.5h-92q-16 0 -30.5 -1t-21.5 -5q-14 -10 -14 -24v-35v-440q0 -20 1 -44t9 -28t26.5 -6t35.5 -2h194q18 0 22.5 -11.5t4.5 -46.5t-4 -46t-21 -11h-307q-25 0 -48.5 -1t-33.5 9q-12 10 -12 31v39v272q0 16 -11.5 19.5t-62.5 3.5q-31 0 -47 -1t-24.5 -4 t-9.5 -8.5t-3 -11.5q-4 -18 -10 -59t-14.5 -90t-15.5 -98.5t-13 -86.5q-2 -8 -24.5 -13t-48 -5t-47 4t-19.5 12zM246 504q-2 -10 5 -14.5t48 -4.5q55 0 68.5 2t13.5 15v669q0 68 -1 91.5t-11 23.5q-8 0 -11.5 -30.5t-11.5 -84.5q-10 -63 -23.5 -156t-27.5 -190.5 t-27.5 -183.5t-21.5 -137z" />
<glyph unicode="&#xc7;" horiz-adv-x="587" d="M61 238v954q0 41 14.5 84t44.5 78t75 57.5t104 22.5q63 0 108.5 -26t74 -62.5t42 -78.5t13.5 -75v-92q0 -16 -19.5 -19.5t-48.5 -3.5q-31 0 -50.5 2t-19.5 21v96q0 16 -7 35.5t-20.5 36t-31.5 28t-41 11.5q-47 0 -75.5 -37t-28.5 -72v-948q0 -43 23.5 -78t80.5 -35 q53 0 76.5 33t23.5 74v121q0 12 17.5 14t46.5 2h55q18 0 19 -16v-125q0 -68 -19.5 -113t-48.5 -73.5t-62.5 -41t-60.5 -12.5q-8 0 -7 -17.5t1 -29.5q0 -63 -44 -110.5t-110 -47.5q-6 0 -6 41q0 39 6 39q25 0 46.5 24.5t21.5 53.5q0 16 2 30.5t-8 14.5q-16 0 -47 13.5 t-61.5 43t-54.5 75t-24 108.5z" />
<glyph unicode="&#xc8;" horiz-adv-x="538" d="M82 39v39v1294q0 20 2 26.5t12 18.5t20.5 14.5t26.5 2.5h340q18 0 21.5 -16.5t3.5 -45.5t-3 -42t-24 -13h-205q-12 0 -27.5 -2t-19.5 -8q-8 -10 -9 -14.5t-1 -24.5v-389v-29q0 -14 12 -25q10 -8 22 -8h23h97q18 0 23 -13t5 -46q0 -31 -4 -44.5t-24 -13.5h-92 q-16 0 -30.5 -1t-21.5 -5q-14 -10 -14 -24v-35v-440q0 -20 1 -44t9 -28t26.5 -6t35.5 -2h194q18 0 22.5 -11.5t4.5 -46.5t-4 -46t-21 -11h-307q-25 0 -48 -1h-4q-20 0 -30 9q-12 11 -12 31zM136 1672.5q-1 9.5 7 17.5q10 12 15.5 23.5t13.5 27.5t24.5 13.5t49.5 -19.5 q45 -27 74.5 -46t72.5 -42q37 -20 56.5 -39.5t9.5 -34.5q-8 -16 -15.5 -28.5t-11.5 -28.5q-4 -14 -12 -20.5t-37 10.5q-47 27 -73 42l-46 27q-20 12 -41.5 24.5t-58.5 33.5q-4 2 -10.5 8t-11.5 14t-6 17.5z" />
<glyph unicode="&#xc9;" horiz-adv-x="538" d="M82 39v39v1294q0 20 2 26.5t12 18.5t20.5 14.5t26.5 2.5h340q18 0 21.5 -16.5t3.5 -45.5t-3 -42t-24 -13h-205q-12 0 -27.5 -2t-19.5 -8q-8 -10 -9 -14.5t-1 -24.5v-389v-29q0 -14 12 -25q10 -8 22 -8h23h97q18 0 23 -13t5 -46q0 -31 -4 -44.5t-24 -13.5h-92 q-16 0 -30.5 -1t-21.5 -5q-14 -10 -14 -24v-35v-440q0 -20 1 -44t9 -28t26.5 -6t35.5 -2h194q18 0 22.5 -11.5t4.5 -46.5t-4 -46t-21 -11h-307q-25 0 -48 -1h-4q-20 0 -30 9q-12 11 -12 31zM166 1573q-10 14 9.5 34t58.5 40q43 23 72.5 42.5t74.5 45.5q31 16 47.5 19.5 t24.5 -13.5q8 -16 13 -27.5t16 -23.5q8 -8 7 -17.5t-6.5 -17.5t-12.5 -14t-9 -8q-37 -20 -58.5 -32.5t-42 -25t-47 -28t-71.5 -41.5q-29 -16 -37 -10t-12 20q-4 16 -11.5 28.5t-15.5 28.5z" />
<glyph unicode="&#xca;" horiz-adv-x="538" d="M82 39v39v1294q0 20 2 26.5t12 18.5t20.5 14.5t26.5 2.5h340q18 0 21.5 -16.5t3.5 -45.5t-3 -42t-24 -13h-205q-12 0 -27.5 -2t-19.5 -8q-8 -10 -9 -14.5t-1 -24.5v-389v-29q0 -14 12 -25q10 -8 22 -8h23h97q18 0 23 -13t5 -46q0 -31 -4 -44.5t-24 -13.5h-92 q-16 0 -30.5 -1t-21.5 -5q-14 -10 -14 -24v-35v-440q0 -20 1 -44t9 -28t26.5 -6t35.5 -2h194q18 0 22.5 -11.5t4.5 -46.5t-4 -46t-21 -11h-307q-25 0 -48 -1h-4q-20 0 -30 9q-12 11 -12 31zM88 1577q-10 14 13.5 30t52.5 44q39 37 78.5 70t58.5 33q8 0 24.5 -9.5t36 -25 t40 -33.5t38.5 -35q29 -29 52.5 -44t13.5 -30q-8 -16 -15.5 -28.5t-11.5 -28.5q-4 -14 -15.5 -23.5t-33.5 13.5q-55 53 -87 77.5t-42 24.5t-38 -21.5t-89 -80.5q-23 -23 -34 -13.5t-15 23.5q-4 16 -11.5 28.5t-15.5 28.5z" />
<glyph unicode="&#xcb;" horiz-adv-x="538" d="M82 39v39v1294q0 20 2 26.5t12 18.5t20.5 14.5t26.5 2.5h340q18 0 21.5 -16.5t3.5 -45.5t-3 -42t-24 -13h-205q-12 0 -27.5 -2t-19.5 -8q-8 -10 -9 -14.5t-1 -24.5v-389v-29q0 -14 12 -25q10 -8 22 -8h23h97q18 0 23 -13t5 -46q0 -31 -4 -44.5t-24 -13.5h-92 q-16 0 -30.5 -1t-21.5 -5q-14 -10 -14 -24v-35v-440q0 -20 1 -44t9 -28t26.5 -6t35.5 -2h194q18 0 22.5 -11.5t4.5 -46.5t-4 -46t-21 -11h-307q-25 0 -48 -1h-4q-20 0 -30 9q-12 11 -12 31zM80 1598q2 33 17 59.5t69 24.5q35 -2 57.5 -27.5t24.5 -60.5q2 -18 2 -34.5 t-7.5 -30t-25 -21.5t-51.5 -12q-39 -4 -64.5 28.5t-21.5 73.5zM356 1598q2 33 17.5 59.5t68.5 24.5q35 -2 57.5 -27.5t24.5 -60.5q2 -18 2 -34.5t-7 -30t-24.5 -21.5t-52.5 -12q-39 -4 -64.5 28.5t-21.5 73.5z" />
<glyph unicode="&#xcc;" horiz-adv-x="294" d="M82 31v1370q0 20 12 25.5t49 5.5q41 0 55.5 -5.5t14.5 -27.5v-1364q0 -23 -10 -28t-60 -5q-41 0 -51 3t-10 26zM81 1672.5q-1 9.5 7 17.5q10 12 15.5 23.5t13.5 27.5t24.5 13.5t49.5 -19.5q45 -27 74.5 -46t72.5 -42q37 -20 56.5 -39.5t9.5 -34.5q-8 -16 -15.5 -28.5 t-11.5 -28.5q-4 -14 -12 -20.5t-37 10.5q-47 27 -73 42l-46 27q-20 12 -41.5 24.5t-58.5 33.5q-4 2 -10.5 8t-11.5 14t-6 17.5z" />
<glyph unicode="&#xcd;" horiz-adv-x="294" d="M82 31v1370q0 20 12 25.5t49 5.5q41 0 55.5 -5.5t14.5 -27.5v-1364q0 -23 -10 -28t-60 -5q-41 0 -51 3t-10 26zM84 1573q-10 14 9.5 34t58.5 40q43 23 72.5 42.5t74.5 45.5q31 16 47.5 19.5t24.5 -13.5q8 -16 13 -27.5t16 -23.5q8 -8 7 -17.5t-6.5 -17.5t-12.5 -14t-9 -8 q-37 -20 -58.5 -32.5t-42 -25t-47 -28t-71.5 -41.5q-29 -16 -37 -10t-12 20q-4 16 -11.5 28.5t-15.5 28.5z" />
<glyph unicode="&#xce;" horiz-adv-x="294" d="M82 31v1370q0 20 12 25.5t49 5.5q41 0 55.5 -5.5t14.5 -27.5v-1364q0 -23 -10 -28t-60 -5q-41 0 -51 3t-10 26zM84 1560q-10 14 13.5 30t52.5 44q39 37 78.5 70t58.5 33q8 0 24.5 -9.5t36 -25t40 -33.5t38.5 -35q29 -29 52.5 -44t13.5 -30q-8 -16 -15.5 -28.5 t-11.5 -28.5q-4 -14 -15.5 -23.5t-33.5 13.5q-55 53 -87 77.5t-42 24.5t-38 -21.5t-89 -80.5q-23 -23 -34 -13.5t-15 23.5q-4 16 -11.5 28.5t-15.5 28.5z" />
<glyph unicode="&#xcf;" horiz-adv-x="294" d="M82 31v1370q0 20 12 25.5t49 5.5q41 0 55.5 -5.5t14.5 -27.5v-1364q0 -23 -10 -28t-60 -5q-41 0 -51 3t-10 26zM80 1598q2 33 17 59.5t69 24.5q35 -2 57.5 -27.5t24.5 -60.5q2 -18 2 -34.5t-7.5 -30t-25 -21.5t-51.5 -12q-39 -4 -64.5 28.5t-21.5 73.5zM356 1598 q2 33 17.5 59.5t68.5 24.5q35 -2 57.5 -27.5t24.5 -60.5q2 -18 2 -34.5t-7 -30t-24.5 -21.5t-52.5 -12q-39 -4 -64.5 28.5t-21.5 73.5z" />
<glyph unicode="&#xd0;" horiz-adv-x="649" d="M31 717v57q0 18 14 24.5t49 6.5q8 0 18.5 1t10.5 9v555q0 16 1 29.5t11 23.5q12 10 25 11h24h123q49 0 108.5 -15.5t106.5 -56.5q47 -43 61.5 -100.5t14.5 -112.5v-860q0 -37 -9 -86t-65 -115q-27 -29 -56.5 -46t-59 -26.5t-55 -12.5t-44.5 -3h-127q-16 0 -28.5 1 t-20.5 13q-8 10 -9 25.5t-1 26.5v598q0 10 -16.5 12t-28.5 2q-8 0 -27.5 8t-19.5 31zM256 199q0 -16 1 -32.5t11 -27.5q6 -6 24 -6h23q16 0 48 8.5t61 36.5q31 35 36 60.5t5 48.5v862q0 35 -7 62.5t-36 56.5q-16 16 -34.5 23t-59.5 7q-29 0 -44.5 -2t-21.5 -12q0 -10 -3 -17 t-3 -18v-434q0 -8 12.5 -9t22.5 -1q41 0 69.5 -7t28.5 -24q0 -16 1 -32.5t1 -32.5q0 -12 -4 -22.5t-35 -10.5q-57 0 -76.5 -2t-19.5 -12v-463z" />
<glyph unicode="&#xd1;" horiz-adv-x="638" d="M82 37v1376q0 16 11 18.5t40 2.5q43 0 59.5 -16.5t32.5 -74.5q25 -96 44.5 -177t40 -160.5t40 -161.5t43.5 -176q4 -14 9.5 -32t13.5 -18t10 13.5t2 23.5v742q0 25 12.5 31t57.5 6q35 0 47 -4.5t12 -26.5v-1319q0 -55 -7 -69.5t-44 -14.5q-23 0 -42.5 13.5t-31.5 66.5 q-23 98 -41 178t-36.5 155.5t-38 153.5t-44.5 174q-6 20 -11 46t-11 48.5t-11.5 39t-9.5 16.5q-10 0 -12 -13.5t-2 -23.5v-817q0 -25 -12.5 -31t-52.5 -6q-45 0 -56.5 6t-11.5 31zM96 1569q-10 14 10.5 32.5t54.5 41.5q29 18 49.5 29.5t38.5 11.5t35 -1t39 -22 q25 -23 38 -32t24 -9q10 0 22 9.5t53 44.5q23 20 34 12t16 -23q4 -16 11 -28t15 -29q10 -14 -12.5 -30.5t-52.5 -43.5q-35 -29 -50.5 -32.5t-33.5 -3.5q-49 0 -74 24q-23 23 -34 30t-28 7q-8 0 -13 -2t-13 -8t-20.5 -16.5t-32.5 -28.5q-16 -12 -30.5 -8t-19.5 18 q-4 16 -11 28.5t-15 28.5z" />
<glyph unicode="&#xd2;" horiz-adv-x="618" d="M72 256v928q0 117 68.5 183.5t168.5 66.5q102 0 170 -71t68 -179v-928q0 -49 -11.5 -96t-39 -82t-73.5 -56.5t-114 -21.5q-63 0 -108 21.5t-74 56.5t-42 82t-13 96zM205 262q0 -23 3 -45t14 -39.5t31.5 -29t55.5 -11.5q61 0 82 41t21 84v922q0 43 -29 83t-74 40 q-47 0 -75.5 -40t-28.5 -83v-922zM179 1655.5q-1 9.5 7 17.5q10 12 15.5 23.5t13.5 27.5t24.5 13.5t49.5 -19.5q45 -27 74.5 -46t72.5 -42q37 -20 56.5 -39.5t9.5 -34.5q-8 -16 -15.5 -28.5t-11.5 -28.5q-4 -14 -12 -20.5t-37 10.5q-47 27 -73 42l-46 27q-20 12 -41.5 24.5 t-58.5 33.5q-4 2 -10.5 8t-11.5 14t-6 17.5z" />
<glyph unicode="&#xd3;" horiz-adv-x="618" d="M72 256v928q0 117 68.5 183.5t168.5 66.5q102 0 170 -71t68 -179v-928q0 -49 -11.5 -96t-39 -82t-73.5 -56.5t-114 -21.5q-63 0 -108 21.5t-74 56.5t-42 82t-13 96zM205 262q0 -23 3 -45t14 -39.5t31.5 -29t55.5 -11.5q61 0 82 41t21 84v922q0 43 -29 83t-74 40 q-47 0 -75.5 -40t-28.5 -83v-922zM143 1560q-10 14 9.5 34t58.5 40q43 23 72.5 42.5t74.5 45.5q31 16 47.5 19.5t24.5 -13.5q8 -16 13 -27.5t16 -23.5q8 -8 7 -17.5t-6.5 -17.5t-12.5 -14t-9 -8q-37 -20 -58.5 -32.5t-42 -25t-47 -28t-71.5 -41.5q-29 -16 -37 -10t-12 20 q-4 16 -11.5 28.5t-15.5 28.5z" />
<glyph unicode="&#xd4;" horiz-adv-x="618" d="M72 256v928q0 117 68.5 183.5t168.5 66.5q102 0 170 -71t68 -179v-928q0 -49 -11.5 -96t-39 -82t-73.5 -56.5t-114 -21.5q-63 0 -108 21.5t-74 56.5t-42 82t-13 96zM205 262q0 -23 3 -45t14 -39.5t31.5 -29t55.5 -11.5q61 0 82 41t21 84v922q0 43 -29 83t-74 40 q-47 0 -75.5 -40t-28.5 -83v-922zM102 1556q-10 14 13.5 30t52.5 44q39 37 78.5 70t58.5 33q8 0 24.5 -9.5t36 -25t40 -33.5t38.5 -35q29 -29 52.5 -44t13.5 -30q-8 -16 -15.5 -28.5t-11.5 -28.5q-4 -14 -15.5 -23.5t-33.5 13.5q-55 53 -87 77.5t-42 24.5t-38 -21.5 t-89 -80.5q-23 -23 -34 -13.5t-15 23.5q-4 16 -11.5 28.5t-15.5 28.5z" />
<glyph unicode="&#xd5;" horiz-adv-x="618" d="M72 256v928q0 117 68.5 183.5t168.5 66.5q102 0 170 -71t68 -179v-928q0 -49 -11.5 -96t-39 -82t-73.5 -56.5t-114 -21.5q-63 0 -108 21.5t-74 56.5t-42 82t-13 96zM205 262q0 -23 3 -45t14 -39.5t31.5 -29t55.5 -11.5q61 0 82 41t21 84v922q0 43 -29 83t-74 40 q-47 0 -75.5 -40t-28.5 -83v-922zM88 1569q-10 14 10.5 32.5t54.5 41.5q29 18 49.5 29.5t38.5 11.5t35 -1t39 -22q25 -23 38 -32t24 -9q10 0 22 9.5t53 44.5q23 20 34 12t16 -23q4 -16 11 -28t15 -29q10 -14 -12.5 -30.5t-52.5 -43.5q-35 -29 -50.5 -32.5t-33.5 -3.5 q-49 0 -74 24q-23 23 -34 30t-28 7q-8 0 -13 -2t-13 -8t-20.5 -16.5t-32.5 -28.5q-16 -12 -30.5 -8t-19.5 18q-4 16 -11 28.5t-15 28.5z" />
<glyph unicode="&#xd6;" horiz-adv-x="618" d="M72 256v928q0 117 68.5 183.5t168.5 66.5q102 0 170 -71t68 -179v-928q0 -49 -11.5 -96t-39 -82t-73.5 -56.5t-114 -21.5q-63 0 -108 21.5t-74 56.5t-42 82t-13 96zM205 262q0 -23 3 -45t14 -39.5t31.5 -29t55.5 -11.5q61 0 82 41t21 84v922q0 43 -29 83t-74 40 q-47 0 -75.5 -40t-28.5 -83v-922zM84 1598q2 33 17 59.5t69 24.5q35 -2 57.5 -27.5t24.5 -60.5q2 -18 2 -34.5t-7.5 -30t-25 -21.5t-51.5 -12q-39 -4 -64.5 28.5t-21.5 73.5zM360 1598q2 33 17.5 59.5t68.5 24.5q35 -2 57.5 -27.5t24.5 -60.5q2 -18 2 -34.5t-7 -30 t-24.5 -21.5t-52.5 -12q-39 -4 -64.5 28.5t-21.5 73.5z" />
<glyph unicode="&#xd7;" horiz-adv-x="774" d="M31 735q0 47 5 58.5t27 11.5h87q20 0 22 8t2 25v309q0 20 22.5 40.5t39.5 20.5h73q10 0 11.5 5.5t1.5 9.5v180q0 20 10 25.5t51 5.5q47 0 58.5 -5.5t11.5 -27.5v-176q0 -16 14 -17h82q18 0 34.5 -16t16.5 -45v-316q0 -14 3 -20t22 -6h88q23 0 26.5 -11.5t3.5 -58.5 q0 -37 -2 -49t-24 -12h-90q-20 0 -23.5 -5t-3.5 -22v-364q0 -35 -15.5 -46.5t-31.5 -11.5h-86q-4 0 -9 -3t-5 -15v-176q0 -23 -11.5 -27t-58.5 -4q-37 0 -49 2t-12 25v184q0 14 -13 14h-84q-25 0 -38 20.5t-13 39.5v362q0 16 -3 21.5t-24 5.5h-86q-20 0 -25 10t-5 51z M307 375q0 -35 35 -35h90q35 0 35 35v686q0 20 -13.5 25.5t-25.5 5.5h-82q-12 0 -25.5 -5.5t-13.5 -25.5v-686z" />
<glyph unicode="&#xd8;" horiz-adv-x="618" d="M61 250v928q0 49 11.5 96t39 82t73.5 56.5t114 21.5q23 0 40 -1t42 -12q4 -2 7 -3t7 24q6 27 11.5 49t11.5 49q4 25 10 31t29 6t31 -2t1 -31q-8 -35 -14 -70.5t-14 -70.5q-4 -12 -3 -18.5t11 -16.5q35 -37 51.5 -86t16.5 -104v-928q0 -117 -69 -183.5t-169 -66.5 q-51 0 -96 18q-8 4 -8 3t-5 -11q-8 -29 -13 -56.5t-11 -55.5q-4 -20 -10 -30.5t-29 -10.5q-29 0 -36 6t-3 28q8 41 15.5 83t17.5 85q4 18 -4 27q-56 68 -56 164zM197 457q0 -10 2 -15.5t4 -0.5t8 34q37 180 70.5 365.5t76.5 400.5q4 12 6.5 25.5t-12.5 19.5q-25 10 -53 10 q-61 0 -81.5 -41t-20.5 -84v-700v-14zM224 172q1 -6 12 -16q25 -29 63 -29q47 0 75.5 40t28.5 83v821q0 35 -5 30t-9 -30q-47 -252 -85 -465t-79 -418q-2 -10 -1 -16z" />
<glyph unicode="&#xd9;" horiz-adv-x="618" d="M72 236v1167q0 20 16 25.5t49 5.5q68 0 68 -31v-1157q0 -41 24.5 -75t79.5 -34q53 0 79 33t26 74v1165q0 14 12 19.5t49 5.5q72 0 72 -23v-1173q0 -49 -13.5 -92.5t-43 -75t-74.5 -51t-107 -19.5q-61 0 -106 22.5t-75 57.5t-43 77t-13 79zM148 1672.5q-1 9.5 7 17.5 q10 12 15.5 23.5t13.5 27.5t24.5 13.5t49.5 -19.5q45 -27 74.5 -46t72.5 -42q37 -20 56.5 -39.5t9.5 -34.5q-8 -16 -15.5 -28.5t-11.5 -28.5q-4 -14 -12 -20.5t-37 10.5q-47 27 -73 42l-46 27q-20 12 -41.5 24.5t-58.5 33.5q-4 2 -10.5 8t-11.5 14t-6 17.5z" />
<glyph unicode="&#xda;" horiz-adv-x="618" d="M72 236v1167q0 20 16 25.5t49 5.5q68 0 68 -31v-1157q0 -41 24.5 -75t79.5 -34q53 0 79 33t26 74v1165q0 14 12 19.5t49 5.5q72 0 72 -23v-1173q0 -49 -13.5 -92.5t-43 -75t-74.5 -51t-107 -19.5q-61 0 -106 22.5t-75 57.5t-43 77t-13 79zM172 1573q-10 14 9.5 34 t58.5 40q43 23 72.5 42.5t74.5 45.5q31 16 47.5 19.5t24.5 -13.5q8 -16 13 -27.5t16 -23.5q8 -8 7 -17.5t-6.5 -17.5t-12.5 -14t-9 -8q-37 -20 -58.5 -32.5t-42 -25t-47 -28t-71.5 -41.5q-29 -16 -37 -10t-12 20q-4 16 -11.5 28.5t-15.5 28.5z" />
<glyph unicode="&#xdb;" horiz-adv-x="618" d="M72 236v1167q0 20 16 25.5t49 5.5q68 0 68 -31v-1157q0 -41 24.5 -75t79.5 -34q53 0 79 33t26 74v1165q0 14 12 19.5t49 5.5q72 0 72 -23v-1173q0 -49 -13.5 -92.5t-43 -75t-74.5 -51t-107 -19.5q-61 0 -106 22.5t-75 57.5t-43 77t-13 79zM106 1568q-10 14 13.5 30 t52.5 44q39 37 78.5 70t58.5 33q8 0 24.5 -9.5t36 -25t40 -33.5t38.5 -35q29 -29 52.5 -44t13.5 -30q-8 -16 -15.5 -28.5t-11.5 -28.5q-4 -14 -15.5 -23.5t-33.5 13.5q-55 53 -87 77.5t-42 24.5t-38 -21.5t-89 -80.5q-23 -23 -34 -13.5t-15 23.5q-4 16 -11.5 28.5 t-15.5 28.5z" />
<glyph unicode="&#xdc;" horiz-adv-x="618" d="M72 236v1167q0 20 16 25.5t49 5.5q68 0 68 -31v-1157q0 -41 24.5 -75t79.5 -34q53 0 79 33t26 74v1165q0 14 12 19.5t49 5.5q72 0 72 -23v-1173q0 -49 -13.5 -92.5t-43 -75t-74.5 -51t-107 -19.5q-61 0 -106 22.5t-75 57.5t-43 77t-13 79zM95 1598q2 33 17 59.5t69 24.5 q35 -2 57.5 -27.5t24.5 -60.5q2 -18 2 -34.5t-7.5 -30t-25 -21.5t-51.5 -12q-39 -4 -64.5 28.5t-21.5 73.5zM371 1598q2 33 17.5 59.5t68.5 24.5q35 -2 57.5 -27.5t24.5 -60.5q2 -18 2 -34.5t-7 -30t-24.5 -21.5t-52.5 -12q-39 -4 -64.5 28.5t-21.5 73.5z" />
<glyph unicode="&#xdd;" horiz-adv-x="468" d="M20 1412q0 13 10 15q13 4 40 5q47 0 63.5 -5.5t20.5 -27.5q18 -135 34.5 -264t32.5 -254q0 -4 3 -11.5t9 -7.5t8.5 8.5t2.5 12.5q20 137 34.5 257t32.5 259q4 20 19.5 26.5t56.5 6.5t53 -5q9 -3 10 -15q0 -4 -1 -9q-16 -90 -29.5 -173t-28 -165t-29 -165t-28.5 -175 q-6 -35 -10.5 -65.5t-8.5 -55.5q-2 -14 -7 -43t-5 -57v-488q0 -14 -25.5 -15t-46.5 -1q-25 0 -45 2t-20 21v117q0 56 1 113.5t1 117.5v127q0 29 -3 56.5t-7 43.5q-4 20 -11.5 55t-13.5 70q-16 90 -30.5 174t-28 166t-26.5 166q-3 18 -11 55t-12.5 69t-4.5 59zM153 1573 q-10 14 9.5 34t58.5 40q43 23 72.5 42.5t74.5 45.5q31 16 47.5 19.5t24.5 -13.5q8 -16 13 -27.5t16 -23.5q8 -8 7 -17.5t-6.5 -17.5t-12.5 -14t-9 -8q-37 -20 -58.5 -32.5t-42 -25t-47 -28t-71.5 -41.5q-29 -16 -37 -10t-12 20q-4 16 -11.5 28.5t-15.5 28.5z" />
<glyph unicode="&#xde;" horiz-adv-x="608" d="M82 29v1341q0 16 2 28.5t12 22.5q12 10 23.5 11.5t23.5 1.5q53 0 67.5 -6.5t14.5 -28.5v-213q0 -29 12.5 -38t28.5 -9q53 0 110.5 -15.5t104.5 -56.5q47 -43 61.5 -95t14.5 -118v-266q0 -35 -9 -85t-65 -116q-27 -29 -57.5 -46t-61 -26.5t-59.5 -12.5t-53 -3 q-39 0 -39 -43v-223q0 -25 -14.5 -29t-55.5 -4t-51 3t-10 26zM215 464q0 -17 14 -26q8 -4 21 -4h26q18 0 48 7.5t59 35.5q31 35 36 55.5t5 53.5v268q0 35 -7 62.5t-36 56.5q-31 31 -94 31q-18 0 -39 -2.5t-27 -12.5q-4 -10 -5 -17t-1 -18v-456v-34z" />
<glyph unicode="&#xdf;" horiz-adv-x="608" d="M72 33v1190q0 45 19.5 84t53 66.5t75.5 44t89 16.5q45 0 87 -16.5t76 -45.5t54.5 -67.5t20.5 -83.5v-287q0 -27 -10.5 -46.5t-20.5 -43.5q-10 -23 -22.5 -37t-28.5 -29q16 -14 26.5 -25.5t20.5 -29.5q16 -31 25.5 -55.5t9.5 -57.5v-340q0 -121 -66.5 -195.5t-171.5 -74.5 q-14 0 -16 14.5t-2 53.5q0 35 3 50t15 15q51 0 77 39t26 98v334q0 43 -29 78t-74 35q-20 0 -22 13t-2 44q0 39 1 54.5t23 15.5q43 0 73 31.5t30 78.5v265q0 39 -31 65.5t-72 26.5t-72.5 -28t-31.5 -69v-1181q0 -18 -12.5 -25.5t-51.5 -7.5q-43 0 -56 5t-13 28z" />
<glyph unicode="&#xe0;" d="M61 256v481q0 117 69 183.5t169 66.5q16 0 37.5 -4t44.5 -27q12 -12 17 -10t5 31q0 10 13.5 11t50.5 1q47 0 58.5 -4t11.5 -20v-942q0 -16 -10.5 -19.5t-57.5 -3.5q-35 0 -48 2t-13 16q0 12 1 24.5t-14 12.5q-4 0 -9 -8t-14.5 -19.5t-25.5 -19.5t-47 -8q-102 0 -170 65.5 t-68 190.5zM195 262q0 -66 28.5 -95.5t75.5 -29.5t74.5 32t27.5 93v475q0 43 -28.5 83t-73.5 40q-47 0 -75.5 -40t-28.5 -83v-475zM132 1266.5q-1 9.5 7 17.5q10 12 15.5 23.5t13.5 27.5t24.5 13.5t49.5 -19.5q45 -27 74.5 -46t72.5 -42q37 -20 56.5 -39.5t9.5 -34.5 q-8 -16 -15.5 -28.5t-11.5 -28.5q-4 -14 -12 -20.5t-37 10.5q-47 27 -73 42l-46 27q-20 12 -41.5 24.5t-58.5 33.5q-4 2 -10.5 8t-11.5 14t-6 17.5z" />
<glyph unicode="&#xe1;" d="M61 256v481q0 117 69 183.5t169 66.5q16 0 37.5 -4t44.5 -27q12 -12 17 -10t5 31q0 10 13.5 11t50.5 1q47 0 58.5 -4t11.5 -20v-942q0 -16 -10.5 -19.5t-57.5 -3.5q-35 0 -48 2t-13 16q0 12 1 24.5t-14 12.5q-4 0 -9 -8t-14.5 -19.5t-25.5 -19.5t-47 -8q-102 0 -170 65.5 t-68 190.5zM195 262q0 -66 28.5 -95.5t75.5 -29.5t74.5 32t27.5 93v475q0 43 -28.5 83t-73.5 40q-47 0 -75.5 -40t-28.5 -83v-475zM133 1167q-10 14 9.5 34t58.5 40q43 23 72.5 42.5t74.5 45.5q31 16 47.5 19.5t24.5 -13.5q8 -16 13 -27.5t16 -23.5q8 -8 7 -17.5t-6.5 -17.5 t-12.5 -14t-9 -8q-37 -20 -58.5 -32.5t-42 -25t-47 -28t-71.5 -41.5q-29 -16 -37 -10t-12 20q-4 16 -11.5 28.5t-15.5 28.5z" />
<glyph unicode="&#xe2;" d="M61 256v481q0 117 69 183.5t169 66.5q16 0 37.5 -4t44.5 -27q12 -12 17 -10t5 31q0 10 13.5 11t50.5 1q47 0 58.5 -4t11.5 -20v-942q0 -16 -10.5 -19.5t-57.5 -3.5q-35 0 -48 2t-13 16q0 12 1 24.5t-14 12.5q-4 0 -9 -8t-14.5 -19.5t-25.5 -19.5t-47 -8q-102 0 -170 65.5 t-68 190.5zM195 262q0 -66 28.5 -95.5t75.5 -29.5t74.5 32t27.5 93v475q0 43 -28.5 83t-73.5 40q-47 0 -75.5 -40t-28.5 -83v-475zM96 1165q-10 14 13.5 30t52.5 44q39 37 78.5 70t58.5 33q8 0 24.5 -9.5t36 -25t40 -33.5t38.5 -35q29 -29 52.5 -44t13.5 -30 q-8 -16 -15.5 -28.5t-11.5 -28.5q-4 -14 -15.5 -23.5t-33.5 13.5q-55 53 -87 77.5t-42 24.5t-38 -21.5t-89 -80.5q-23 -23 -34 -13.5t-15 23.5q-4 16 -11.5 28.5t-15.5 28.5z" />
<glyph unicode="&#xe3;" d="M61 256v481q0 117 69 183.5t169 66.5q16 0 37.5 -4t44.5 -27q12 -12 17 -10t5 31q0 10 13.5 11t50.5 1q47 0 58.5 -4t11.5 -20v-942q0 -16 -10.5 -19.5t-57.5 -3.5q-35 0 -48 2t-13 16q0 12 1 24.5t-14 12.5q-4 0 -9 -8t-14.5 -19.5t-25.5 -19.5t-47 -8q-102 0 -170 65.5 t-68 190.5zM195 262q0 -66 28.5 -95.5t75.5 -29.5t74.5 32t27.5 93v475q0 43 -28.5 83t-73.5 40q-47 0 -75.5 -40t-28.5 -83v-475zM98 1163q-10 14 10.5 32.5t54.5 41.5q29 18 49.5 29.5t38.5 11.5t35 -1t39 -22q25 -23 38 -32t24 -9q10 0 22 9.5t53 44.5q23 20 34 12 t16 -23q4 -16 11 -28t15 -29q10 -14 -12.5 -30.5t-52.5 -43.5q-35 -29 -50.5 -32.5t-33.5 -3.5q-49 0 -74 24q-23 23 -34 30t-28 7q-8 0 -13 -2t-13 -8t-20.5 -16.5t-32.5 -28.5q-16 -12 -30.5 -8t-19.5 18q-4 16 -11 28.5t-15 28.5z" />
<glyph unicode="&#xe4;" d="M61 256v481q0 117 69 183.5t169 66.5q16 0 37.5 -4t44.5 -27q12 -12 17 -10t5 31q0 10 13.5 11t50.5 1q47 0 58.5 -4t11.5 -20v-942q0 -16 -10.5 -19.5t-57.5 -3.5q-35 0 -48 2t-13 16q0 12 1 24.5t-14 12.5q-4 0 -9 -8t-14.5 -19.5t-25.5 -19.5t-47 -8q-102 0 -170 65.5 t-68 190.5zM195 262q0 -66 28.5 -95.5t75.5 -29.5t74.5 32t27.5 93v475q0 43 -28.5 83t-73.5 40q-47 0 -75.5 -40t-28.5 -83v-475zM76 1192q2 33 17 59.5t69 24.5q35 -2 57.5 -27.5t24.5 -60.5q2 -18 2 -34.5t-7.5 -30t-25 -21.5t-51.5 -12q-39 -4 -64.5 28.5t-21.5 73.5z M352 1192q2 33 17.5 59.5t68.5 24.5q35 -2 57.5 -27.5t24.5 -60.5q2 -18 2 -34.5t-7 -30t-24.5 -21.5t-52.5 -12q-39 -4 -64.5 28.5t-21.5 73.5z" />
<glyph unicode="&#xe5;" d="M61 256v481q0 117 69 183.5t169 66.5q16 0 37.5 -4t44.5 -27q12 -12 17 -10t5 31q0 10 13.5 11t50.5 1q47 0 58.5 -4t11.5 -20v-942q0 -16 -10.5 -19.5t-57.5 -3.5q-35 0 -48 2t-13 16q0 12 1 24.5t-14 12.5q-4 0 -9 -8t-14.5 -19.5t-25.5 -19.5t-47 -8q-102 0 -170 65.5 t-68 190.5zM195 262q0 -66 28.5 -95.5t75.5 -29.5t74.5 32t27.5 93v475q0 43 -28.5 83t-73.5 40q-47 0 -75.5 -40t-28.5 -83v-475zM174 1237q4 47 26.5 79t96.5 40q27 2 49.5 -8.5t37.5 -30t23.5 -45t6.5 -51.5q-2 -25 -6.5 -46.5t-15.5 -39t-33.5 -29.5t-61.5 -16 q-29 -4 -52.5 8t-40 32.5t-25.5 48t-5 58.5zM238 1225q-4 -33 16 -52.5t43 -17.5q33 6 41 22.5t12 39.5q6 33 -9 53t-44 16q-23 -4 -34 -9t-16 -12.5t-6 -17.5t-3 -22z" />
<glyph unicode="&#xe6;" horiz-adv-x="919" d="M51 248v114q0 68 22.5 117t57.5 80t77 45t81 14q37 0 57.5 -14t28.5 -14q10 0 14 10t4 21v116q-2 43 -24.5 83t-69.5 40q-45 0 -68.5 -40t-23.5 -83q0 -10 -21.5 -15t-46 -5t-46 4t-21.5 10q0 68 20.5 117t53 79.5t73.5 45t80 14.5q45 0 70.5 -11t40 -23.5t24.5 -23.5 t27 -11q12 0 22.5 11t25.5 23.5t44 23.5t78 11q102 0 169.5 -70.5t67.5 -179.5v-252q0 -10 -4 -21t-35 -11h-280q-8 0 -15.5 -9.5t-7.5 -27.5v-154q0 -61 29 -93t76 -32t74.5 32t27.5 93q0 6 12.5 9t59.5 3q41 0 52 -3t11 -15q0 -68 -18.5 -117t-50 -79.5t-75.5 -45 t-93 -14.5t-75 8t-41 19.5t-26.5 19.5t-29.5 8t-28.5 -8t-26 -19.5t-41 -19.5t-74.5 -8q-123 0 -180.5 69.5t-57.5 178.5zM186 262q0 -63 28 -94t75 -31t75.5 31t28.5 94v98q0 61 -28.5 93t-75.5 32t-75 -30.5t-28 -94.5v-98zM526 606q0 -23 18.5 -25.5t80.5 -2.5q66 0 87 3 t21 25v131q0 47 -28.5 85t-73.5 38q-47 0 -76 -39t-29 -84v-131z" />
<glyph unicode="&#xe7;" horiz-adv-x="587" d="M61 256v475q0 119 67 187.5t171 68.5q49 0 92 -14.5t75 -45t51.5 -79.5t19.5 -119q0 -10 -11.5 -14t-52.5 -4q-72 0 -72 12q0 68 -29.5 96.5t-72.5 28.5q-41 0 -72.5 -28.5t-31.5 -96.5v-461q0 -47 22.5 -86t81.5 -39q31 0 51.5 12.5t31.5 31t15 40t4 41.5q0 6 13.5 7 t54.5 1t54.5 2t13.5 -16q0 -68 -19.5 -117t-48.5 -79.5t-62.5 -45t-60.5 -14.5q-8 0 -7 -17.5t1 -29.5q0 -63 -44 -110.5t-110 -47.5q-6 0 -6 41q0 39 6 39q25 0 46.5 24.5t21.5 53.5q0 16 2 30.5t-8 14.5q-16 0 -47 13.5t-61.5 44t-54.5 79.5t-24 121z" />
<glyph unicode="&#xe8;" d="M61 256v481q0 117 69 183.5t169 66.5q102 0 170 -70.5t68 -179.5v-252q0 -10 -4.5 -21t-34.5 -11h-281q-8 0 -15 -9.5t-7 -27.5v-154q0 -61 28.5 -93t75.5 -32t74.5 32t27.5 93q0 6 12.5 9t59.5 3q41 0 52.5 -3t11.5 -15q0 -137 -67 -196.5t-171 -59.5q-102 0 -170 66.5 t-68 189.5zM195 606q0 -23 18 -25.5t80 -2.5q66 0 87 3t21 25v131q0 47 -28.5 85t-73.5 38q-47 0 -75.5 -39t-28.5 -84v-131zM148 1256.5q-1 9.5 7 17.5q10 12 15.5 23.5t13.5 27.5t24.5 13.5t49.5 -19.5q45 -27 74.5 -46t72.5 -42q37 -20 56.5 -39.5t9.5 -34.5 q-8 -16 -15.5 -28.5t-11.5 -28.5q-4 -14 -12 -20.5t-37 10.5q-47 27 -73 42l-46 27q-20 12 -41.5 24.5t-58.5 33.5q-4 2 -10.5 8t-11.5 14t-6 17.5z" />
<glyph unicode="&#xe9;" d="M61 256v481q0 117 69 183.5t169 66.5q102 0 170 -70.5t68 -179.5v-252q0 -10 -4.5 -21t-34.5 -11h-281q-8 0 -15 -9.5t-7 -27.5v-154q0 -61 28.5 -93t75.5 -32t74.5 32t27.5 93q0 6 12.5 9t59.5 3q41 0 52.5 -3t11.5 -15q0 -137 -67 -196.5t-171 -59.5q-102 0 -170 66.5 t-68 189.5zM195 606q0 -23 18 -25.5t80 -2.5q66 0 87 3t21 25v131q0 47 -28.5 85t-73.5 38q-47 0 -75.5 -39t-28.5 -84v-131zM170 1157q-10 14 9.5 34t58.5 40q43 23 72.5 42.5t74.5 45.5q31 16 47.5 19.5t24.5 -13.5q8 -16 13 -27.5t16 -23.5q8 -8 7 -17.5t-6.5 -17.5 t-12.5 -14t-9 -8q-37 -20 -58.5 -32.5t-42 -25t-47 -28t-71.5 -41.5q-29 -16 -37 -10t-12 20q-4 16 -11.5 28.5t-15.5 28.5z" />
<glyph unicode="&#xea;" d="M61 256v481q0 117 69 183.5t169 66.5q102 0 170 -70.5t68 -179.5v-252q0 -10 -4.5 -21t-34.5 -11h-281q-8 0 -15 -9.5t-7 -27.5v-154q0 -61 28.5 -93t75.5 -32t74.5 32t27.5 93q0 6 12.5 9t59.5 3q41 0 52.5 -3t11.5 -15q0 -137 -67 -196.5t-171 -59.5q-102 0 -170 66.5 t-68 189.5zM195 606q0 -23 18 -25.5t80 -2.5q66 0 87 3t21 25v131q0 47 -28.5 85t-73.5 38q-47 0 -75.5 -39t-28.5 -84v-131zM98 1157q-10 14 13.5 30t52.5 44q39 37 78.5 70t58.5 33q8 0 24.5 -9.5t36 -25t40 -33.5t38.5 -35q29 -29 52.5 -44t13.5 -30q-8 -16 -15.5 -28.5 t-11.5 -28.5q-4 -14 -15.5 -23.5t-33.5 13.5q-55 53 -87 77.5t-42 24.5t-38 -21.5t-89 -80.5q-23 -23 -34 -13.5t-15 23.5q-4 16 -11.5 28.5t-15.5 28.5z" />
<glyph unicode="&#xeb;" d="M61 256v481q0 117 69 183.5t169 66.5q102 0 170 -70.5t68 -179.5v-252q0 -10 -4.5 -21t-34.5 -11h-281q-8 0 -15 -9.5t-7 -27.5v-154q0 -61 28.5 -93t75.5 -32t74.5 32t27.5 93q0 6 12.5 9t59.5 3q41 0 52.5 -3t11.5 -15q0 -137 -67 -196.5t-171 -59.5q-102 0 -170 66.5 t-68 189.5zM195 606q0 -23 18 -25.5t80 -2.5q66 0 87 3t21 25v131q0 47 -28.5 85t-73.5 38q-47 0 -75.5 -39t-28.5 -84v-131zM80 1192q2 33 17 59.5t69 24.5q35 -2 57.5 -27.5t24.5 -60.5q2 -18 2 -34.5t-7.5 -30t-25 -21.5t-51.5 -12q-39 -4 -64.5 28.5t-21.5 73.5z M356 1192q2 33 17.5 59.5t68.5 24.5q35 -2 57.5 -27.5t24.5 -60.5q2 -18 2 -34.5t-7 -30t-24.5 -21.5t-52.5 -12q-39 -4 -64.5 28.5t-21.5 73.5z" />
<glyph unicode="&#xec;" horiz-adv-x="286" d="M78 33v919q0 23 13 28t48 5q41 0 55.5 -3t14.5 -32v-913q0 -29 -10.5 -33t-59.5 -4q-43 0 -52 4t-9 29zM77 1266.5q-1 9.5 7 17.5q10 12 15.5 23.5t13.5 27.5t24.5 13.5t49.5 -19.5q45 -27 74.5 -46t72.5 -42q37 -20 56.5 -39.5t9.5 -34.5q-8 -16 -15.5 -28.5 t-11.5 -28.5q-4 -14 -12 -20.5t-37 10.5q-47 27 -73 42l-46 27q-20 12 -41.5 24.5t-58.5 33.5q-4 2 -10.5 8t-11.5 14t-6 17.5z" />
<glyph unicode="&#xed;" horiz-adv-x="286" d="M78 33v919q0 23 13 28t48 5q41 0 55.5 -3t14.5 -32v-913q0 -29 -10.5 -33t-59.5 -4q-43 0 -52 4t-9 29zM80 1167q-10 14 9.5 34t58.5 40q43 23 72.5 42.5t74.5 45.5q31 16 47.5 19.5t24.5 -13.5q8 -16 13 -27.5t16 -23.5q8 -8 7 -17.5t-6.5 -17.5t-12.5 -14t-9 -8 q-37 -20 -58.5 -32.5t-42 -25t-47 -28t-71.5 -41.5q-29 -16 -37 -10t-12 20q-4 16 -11.5 28.5t-15.5 28.5z" />
<glyph unicode="&#xee;" horiz-adv-x="286" d="M78 33v919q0 23 13 28t48 5q41 0 55.5 -3t14.5 -32v-913q0 -29 -10.5 -33t-59.5 -4q-43 0 -52 4t-9 29zM80 1157q-10 14 13.5 30t52.5 44q39 37 78.5 70t58.5 33q8 0 24.5 -9.5t36 -25t40 -33.5t38.5 -35q29 -29 52.5 -44t13.5 -30q-8 -16 -15.5 -28.5t-11.5 -28.5 q-4 -14 -15.5 -23.5t-33.5 13.5q-55 53 -87 77.5t-42 24.5t-38 -21.5t-89 -80.5q-23 -23 -34 -13.5t-15 23.5q-4 16 -11.5 28.5t-15.5 28.5z" />
<glyph unicode="&#xef;" horiz-adv-x="286" d="M78 33v919q0 23 13 28t48 5q41 0 55.5 -3t14.5 -32v-913q0 -29 -10.5 -33t-59.5 -4q-43 0 -52 4t-9 29zM76 1192q2 33 17 59.5t69 24.5q35 -2 57.5 -27.5t24.5 -60.5q2 -18 2 -34.5t-7.5 -30t-25 -21.5t-51.5 -12q-39 -4 -64.5 28.5t-21.5 73.5zM352 1192q2 33 17.5 59.5 t68.5 24.5q35 -2 57.5 -27.5t24.5 -60.5q2 -18 2 -34.5t-7 -30t-24.5 -21.5t-52.5 -12q-39 -4 -64.5 28.5t-21.5 73.5z" />
<glyph unicode="&#xf0;" horiz-adv-x="608" d="M61 248v483q0 113 67 184.5t171 71.5q16 0 31.5 -6t44.5 -20q10 0 19 7t9 29v115q0 8 -16 10t-84 2q-8 0 -27.5 8.5t-19.5 30.5v58q0 18 14.5 24t48.5 6h63q22 0 21 9v159q0 10 11.5 12.5t54.5 2.5t55.5 -3.5t12.5 -13.5v-153q0 -10 11 -11.5t36 -1.5q41 0 67.5 -8 t26.5 -24t3 -32t3 -32q0 -12 -4 -22.5t-35 -10.5h-90q-18 0 -18 -8v-1098q0 -14 -18.5 -15t-51.5 -1q-29 0 -43 -1t-14 11v28q0 17 -15 17q-4 0 -9 -8t-14.5 -19.5t-25.5 -19.5t-47 -8q-123 0 -180.5 71t-57.5 177zM195 262q0 -63 28.5 -94t75.5 -31t74.5 32t27.5 93v475 q0 43 -27.5 83t-74.5 40q-45 0 -74.5 -40t-29.5 -83v-475z" />
<glyph unicode="&#xf1;" horiz-adv-x="608" d="M72 20v947q0 10 10 13t55 3q41 0 50.5 -3t9.5 -13q0 -53 1 -71.5t11 -2.5q23 37 57.5 63.5t75.5 26.5q102 0 153.5 -62.5t51.5 -197.5v-705q0 -12 -11.5 -15t-50.5 -3q-43 0 -57 3t-14 13v707q0 49 -15.5 91t-56.5 42q-57 0 -97 -31.5t-40 -91.5v-713q0 -14 -12.5 -17 t-57.5 -3q-41 0 -52 3t-11 17zM96 1163q-10 14 10.5 32.5t54.5 41.5q29 18 49.5 29.5t38.5 11.5t35 -1t39 -22q25 -23 38 -32t24 -9q10 0 22 9.5t53 44.5q23 20 34 12t16 -23q4 -16 11 -28t15 -29q10 -14 -12.5 -30.5t-52.5 -43.5q-35 -29 -50.5 -32.5t-33.5 -3.5 q-49 0 -74 24q-23 23 -34 30t-28 7q-8 0 -13 -2t-13 -8t-20.5 -16.5t-32.5 -28.5q-16 -12 -30.5 -8t-19.5 18q-4 16 -11 28.5t-15 28.5z" />
<glyph unicode="&#xf2;" d="M61 256v481q0 117 69 183.5t169 66.5q102 0 170 -70.5t68 -179.5v-481q0 -137 -67 -196.5t-171 -59.5q-102 0 -170 65.5t-68 190.5zM195 262q0 -66 28.5 -95.5t75.5 -29.5t74.5 32t27.5 93v475q0 43 -28.5 83t-73.5 40q-47 0 -75.5 -40t-28.5 -83v-475zM161 1243.5 q-1 9.5 7 17.5q10 12 15.5 23.5t13.5 27.5t24.5 13.5t49.5 -19.5q45 -27 74.5 -46t72.5 -42q37 -20 56.5 -39.5t9.5 -34.5q-8 -16 -15.5 -28.5t-11.5 -28.5q-4 -14 -12 -20.5t-37 10.5q-47 27 -73 42l-46 27q-20 12 -41.5 24.5t-58.5 33.5q-4 2 -10.5 8t-11.5 14t-6 17.5z " />
<glyph unicode="&#xf3;" d="M61 256v481q0 117 69 183.5t169 66.5q102 0 170 -70.5t68 -179.5v-481q0 -137 -67 -196.5t-171 -59.5q-102 0 -170 65.5t-68 190.5zM195 262q0 -66 28.5 -95.5t75.5 -29.5t74.5 32t27.5 93v475q0 43 -28.5 83t-73.5 40q-47 0 -75.5 -40t-28.5 -83v-475zM145 1149 q-10 14 9.5 34t58.5 40q43 23 72.5 42.5t74.5 45.5q31 16 47.5 19.5t24.5 -13.5q8 -16 13 -27.5t16 -23.5q8 -8 7 -17.5t-6.5 -17.5t-12.5 -14t-9 -8q-37 -20 -58.5 -32.5t-42 -25t-47 -28t-71.5 -41.5q-29 -16 -37 -10t-12 20q-4 16 -11.5 28.5t-15.5 28.5z" />
<glyph unicode="&#xf4;" d="M61 256v481q0 117 69 183.5t169 66.5q102 0 170 -70.5t68 -179.5v-481q0 -137 -67 -196.5t-171 -59.5q-102 0 -170 65.5t-68 190.5zM195 262q0 -66 28.5 -95.5t75.5 -29.5t74.5 32t27.5 93v475q0 43 -28.5 83t-73.5 40q-47 0 -75.5 -40t-28.5 -83v-475zM94 1153 q-10 14 13.5 30t52.5 44q39 37 78.5 70t58.5 33q8 0 24.5 -9.5t36 -25t40 -33.5t38.5 -35q29 -29 52.5 -44t13.5 -30q-8 -16 -15.5 -28.5t-11.5 -28.5q-4 -14 -15.5 -23.5t-33.5 13.5q-55 53 -87 77.5t-42 24.5t-38 -21.5t-89 -80.5q-23 -23 -34 -13.5t-15 23.5 q-4 16 -11.5 28.5t-15.5 28.5z" />
<glyph unicode="&#xf5;" d="M61 256v481q0 117 69 183.5t169 66.5q102 0 170 -70.5t68 -179.5v-481q0 -137 -67 -196.5t-171 -59.5q-102 0 -170 65.5t-68 190.5zM195 262q0 -66 28.5 -95.5t75.5 -29.5t74.5 32t27.5 93v475q0 43 -28.5 83t-73.5 40q-47 0 -75.5 -40t-28.5 -83v-475zM78 1163 q-10 14 10.5 32.5t54.5 41.5q29 18 49.5 29.5t38.5 11.5t35 -1t39 -22q25 -23 38 -32t24 -9q10 0 22 9.5t53 44.5q23 20 34 12t16 -23q4 -16 11 -28t15 -29q10 -14 -12.5 -30.5t-52.5 -43.5q-35 -29 -50.5 -32.5t-33.5 -3.5q-49 0 -74 24q-23 23 -34 30t-28 7q-8 0 -13 -2 t-13 -8t-20.5 -16.5t-32.5 -28.5q-16 -12 -30.5 -8t-19.5 18q-4 16 -11 28.5t-15 28.5z" />
<glyph unicode="&#xf6;" d="M61 256v481q0 117 69 183.5t169 66.5q102 0 170 -70.5t68 -179.5v-481q0 -137 -67 -196.5t-171 -59.5q-102 0 -170 65.5t-68 190.5zM195 262q0 -66 28.5 -95.5t75.5 -29.5t74.5 32t27.5 93v475q0 43 -28.5 83t-73.5 40q-47 0 -75.5 -40t-28.5 -83v-475zM80 1192 q2 33 17 59.5t69 24.5q35 -2 57.5 -27.5t24.5 -60.5q2 -18 2 -34.5t-7.5 -30t-25 -21.5t-51.5 -12q-39 -4 -64.5 28.5t-21.5 73.5zM356 1192q2 33 17.5 59.5t68.5 24.5q35 -2 57.5 -27.5t24.5 -60.5q2 -18 2 -34.5t-7 -30t-24.5 -21.5t-52.5 -12q-39 -4 -64.5 28.5 t-21.5 73.5z" />
<glyph unicode="&#xf7;" horiz-adv-x="774" d="M31 735q0 47 5 58.5t27 11.5h87q20 0 22 8t2 25v309q0 20 22.5 40.5t39.5 20.5h73q10 0 11.5 5.5t1.5 9.5v180q0 20 10 25.5t51 5.5q47 0 58.5 -5.5t11.5 -27.5v-176q0 -16 14 -17h82q18 0 34.5 -16t16.5 -45v-316q0 -14 3 -20t22 -6h88q23 0 26.5 -11.5t3.5 -58.5 q0 -37 -2 -49t-24 -12h-90q-20 0 -23.5 -5t-3.5 -22v-364q0 -35 -15.5 -46.5t-31.5 -11.5h-86q-4 0 -9 -3t-5 -15v-176q0 -23 -11.5 -27t-58.5 -4q-37 0 -49 2t-12 25v184q0 14 -13 14h-84q-25 0 -38 20.5t-13 39.5v362q0 16 -3 21.5t-24 5.5h-86q-20 0 -25 10t-5 51z M307 375q0 -35 35 -35h90q35 0 35 35v686q0 20 -13.5 25.5t-25.5 5.5h-82q-12 0 -25.5 -5.5t-13.5 -25.5v-686z" />
<glyph unicode="&#xf8;" d="M61 256v481q0 117 69 183.5t169 66.5q35 0 61 -8q10 -4 12.5 1t4.5 15q8 37 14 69t12 60q2 6 12.5 7.5t22 -2t20.5 -8.5t7 -13q-6 -33 -13 -69l-16 -76q-2 -10 -1 -13.5t9 -11.5q43 -37 68 -87t25 -114v-481q0 -137 -67 -196.5t-171 -59.5q-10 0 -18.5 2t-18.5 0t-17 -3 t-9 -13q-6 -35 -13.5 -67t-11.5 -60q0 -4 -11.5 -4t-24.5 1t-23.5 3t-10.5 6q8 37 15.5 74.5t15.5 76.5q2 14 -16 27q-43 33 -69 86t-26 127zM195 262q0 -39 8 -44t12 9q10 49 26.5 123t33.5 157l35 166q17 83 32 150q6 23 -4 27q-20 10 -39 10q-47 0 -75.5 -40t-28.5 -83 v-475zM272 164q-4 -16 6.5 -21.5t20.5 -5.5q47 0 74.5 32t27.5 93v475q0 20 -4 17.5t-8 -19.5q-29 -143 -60.5 -289.5t-56.5 -281.5z" />
<glyph unicode="&#xf9;" horiz-adv-x="608" d="M61 258v705q0 14 14.5 17t45.5 3q43 0 58.5 -4t15.5 -14v-707q0 -20 3 -44t10 -43t21.5 -32.5t36.5 -13.5q66 0 101.5 35t35.5 88v713q0 14 12.5 17t53.5 3t54.5 -5t13.5 -15v-947q0 -10 -10.5 -12t-49.5 -2q-66 0 -65 14q0 12 -1 28.5t-1 27.5v27q0 7 -11 -9 q-23 -37 -57.5 -63.5t-75.5 -26.5q-102 0 -153.5 61.5t-51.5 198.5zM136 1266.5q-1 9.5 7 17.5q10 12 15.5 23.5t13.5 27.5t24.5 13.5t49.5 -19.5q45 -27 74.5 -46t72.5 -42q37 -20 56.5 -39.5t9.5 -34.5q-8 -16 -15.5 -28.5t-11.5 -28.5q-4 -14 -12 -20.5t-37 10.5 q-47 27 -73 42l-46 27q-20 12 -41.5 24.5t-58.5 33.5q-4 2 -10.5 8t-11.5 14t-6 17.5z" />
<glyph unicode="&#xfa;" horiz-adv-x="608" d="M61 258v705q0 14 14.5 17t45.5 3q43 0 58.5 -4t15.5 -14v-707q0 -20 3 -44t10 -43t21.5 -32.5t36.5 -13.5q66 0 101.5 35t35.5 88v713q0 14 12.5 17t53.5 3t54.5 -5t13.5 -15v-947q0 -10 -10.5 -12t-49.5 -2q-66 0 -65 14q0 12 -1 28.5t-1 27.5v27q0 7 -11 -9 q-23 -37 -57.5 -63.5t-75.5 -26.5q-102 0 -153.5 61.5t-51.5 198.5zM166 1167q-10 14 9.5 34t58.5 40q43 23 72.5 42.5t74.5 45.5q31 16 47.5 19.5t24.5 -13.5q8 -16 13 -27.5t16 -23.5q8 -8 7 -17.5t-6.5 -17.5t-12.5 -14t-9 -8q-37 -20 -58.5 -32.5t-42 -25t-47 -28 t-71.5 -41.5q-29 -16 -37 -10t-12 20q-4 16 -11.5 28.5t-15.5 28.5z" />
<glyph unicode="&#xfb;" horiz-adv-x="608" d="M61 258v705q0 14 14.5 17t45.5 3q43 0 58.5 -4t15.5 -14v-707q0 -20 3 -44t10 -43t21.5 -32.5t36.5 -13.5q66 0 101.5 35t35.5 88v713q0 14 12.5 17t53.5 3t54.5 -5t13.5 -15v-947q0 -10 -10.5 -12t-49.5 -2q-66 0 -65 14q0 12 -1 28.5t-1 27.5v27q0 7 -11 -9 q-23 -37 -57.5 -63.5t-75.5 -26.5q-102 0 -153.5 61.5t-51.5 198.5zM90 1161q-10 14 13.5 30t52.5 44q39 37 78.5 70t58.5 33q8 0 24.5 -9.5t36 -25t40 -33.5t38.5 -35q29 -29 52.5 -44t13.5 -30q-8 -16 -15.5 -28.5t-11.5 -28.5q-4 -14 -15.5 -23.5t-33.5 13.5 q-55 53 -87 77.5t-42 24.5t-38 -21.5t-89 -80.5q-23 -23 -34 -13.5t-15 23.5q-4 16 -11.5 28.5t-15.5 28.5z" />
<glyph unicode="&#xfc;" horiz-adv-x="608" d="M61 258v705q0 14 14.5 17t45.5 3q43 0 58.5 -4t15.5 -14v-707q0 -20 3 -44t10 -43t21.5 -32.5t36.5 -13.5q66 0 101.5 35t35.5 88v713q0 14 12.5 17t53.5 3t54.5 -5t13.5 -15v-947q0 -10 -10.5 -12t-49.5 -2q-66 0 -65 14q0 12 -1 28.5t-1 27.5v27q0 7 -11 -9 q-23 -37 -57.5 -63.5t-75.5 -26.5q-102 0 -153.5 61.5t-51.5 198.5zM72 1192q2 33 17 59.5t69 24.5q35 -2 57.5 -27.5t24.5 -60.5q2 -18 2 -34.5t-7.5 -30t-25 -21.5t-51.5 -12q-39 -4 -64.5 28.5t-21.5 73.5zM348 1192q2 33 17.5 59.5t68.5 24.5q35 -2 57.5 -27.5 t24.5 -60.5q2 -18 2 -34.5t-7 -30t-24.5 -21.5t-52.5 -12q-39 -4 -64.5 28.5t-21.5 73.5z" />
<glyph unicode="&#xfd;" horiz-adv-x="512" d="M9 967q0 11 13 13q15 3 56 3t54 -4t18 -25q23 -154 44 -295t44 -284q0 -4 2 -12.5t10 -8.5q10 0 11 8.5t5 14.5q25 152 46.5 290t45.5 291q4 16 15.5 20.5t58.5 4.5q60 0 60 -24v-5q-37 -184 -73 -354t-71 -334t-68.5 -324.5t-68.5 -324.5q-4 -18 -15.5 -22.5t-52.5 -4.5 q-33 0 -44 5.5t-7 27.5q12 55 21.5 101.5t18.5 91.5t19.5 91t20.5 99q4 20 4 32v42q0 33 -1 41t-5 26q-23 113 -42 211.5t-37.5 193.5t-38.5 194q-4 20 -16 65t-19.5 84t-7.5 72zM147 1167q-10 14 9.5 34t58.5 40q43 23 72.5 42.5t74.5 45.5q31 16 47.5 19.5t24.5 -13.5 q8 -16 13 -27.5t16 -23.5q8 -8 7 -17.5t-6.5 -17.5t-12.5 -14t-9 -8q-37 -20 -58.5 -32.5t-42 -25t-47 -28t-71.5 -41.5q-29 -16 -37 -10t-12 20q-4 16 -11.5 28.5t-15.5 28.5z" />
<glyph unicode="&#xfe;" horiz-adv-x="608" d="M72 -391v1808q0 18 61 19q72 0 72 -17v-422q0 -23 9 -29.5t19 -6.5q29 14 44.5 20t31.5 6q111 0 174.5 -72.5t63.5 -183.5v-483q0 -109 -57.5 -178.5t-180.5 -69.5q-27 0 -45 6q-8 4 -14 9t-17 5q-10 0 -19 -7t-9 -29v-377q0 -14 -15.5 -15.5t-56.5 -1.5q-35 0 -48 2.5 t-13 16.5zM205 262q0 -61 28.5 -93t75.5 -32t75 31t28 94v475q0 43 -29 83t-74 40q-47 0 -75.5 -40t-28.5 -83v-475z" />
<glyph unicode="&#xff;" horiz-adv-x="512" d="M9 967q0 11 13 13q15 3 56 3t54 -4t18 -25q23 -154 44 -295t44 -284q0 -4 2 -12.5t10 -8.5q10 0 11 8.5t5 14.5q25 152 46.5 290t45.5 291q4 16 15.5 20.5t58.5 4.5q60 0 60 -24v-5q-37 -184 -73 -354t-71 -334t-68.5 -324.5t-68.5 -324.5q-4 -18 -15.5 -22.5t-52.5 -4.5 q-33 0 -44 5.5t-7 27.5q12 55 21.5 101.5t18.5 91.5t19.5 91t20.5 99q4 20 4 32v42q0 33 -1 41t-5 26q-23 113 -42 211.5t-37.5 193.5t-38.5 194q-4 20 -16 65t-19.5 84t-7.5 72zM47 1192q2 33 17 59.5t69 24.5q35 -2 57.5 -27.5t24.5 -60.5q2 -18 2 -34.5t-7.5 -30 t-25 -21.5t-51.5 -12q-39 -4 -64.5 28.5t-21.5 73.5zM323 1192q2 33 17.5 59.5t68.5 24.5q35 -2 57.5 -27.5t24.5 -60.5q2 -18 2 -34.5t-7 -30t-24.5 -21.5t-52.5 -12q-39 -4 -64.5 28.5t-21.5 73.5z" />
<glyph unicode="&#x152;" horiz-adv-x="868" d="M72 256v928q0 47 14 92t44 80t75 56.5t104 21.5q25 0 46.5 -9.5t38 -20.5t25.5 -20.5t13 -9.5t5 7.5t1 16.5v17q0 8 2 10q10 10 25.5 9.5t40.5 -0.5h307q18 0 21.5 -16.5t3.5 -45.5t-3.5 -42t-23.5 -13h-205q-12 0 -27.5 -2t-19.5 -8q-8 -10 -9 -14.5t-1 -24.5v-389v-29 q0 -14 12 -25q10 -8 22 -8h23h96q18 0 23.5 -13t5.5 -46q0 -31 -4 -44.5t-25 -13.5h-92q-16 0 -30.5 -1t-20.5 -5q-14 -10 -14 -24v-35v-440q0 -20 1 -44t9 -28t26.5 -6t34.5 -2h195q18 0 22.5 -11.5t4.5 -46.5t-4.5 -46t-20.5 -11h-307q-25 0 -40 -1t-26 9q-2 2 -2 10v18 q0 9 -1 16t-5 7t-13 -9t-25.5 -20.5t-38 -20.5t-46.5 -9q-63 0 -108 21.5t-74 56.5t-42 82t-13 96zM205 262q0 -23 3 -45t14 -39.5t31.5 -29t55.5 -11.5q61 0 82 41t21 84v922q0 43 -29 83t-74 40q-47 0 -75.5 -40t-28.5 -83v-922z" />
<glyph unicode="&#x153;" horiz-adv-x="940" d="M61 248v483q0 68 22.5 117t57.5 79.5t77 45t81 14.5q47 0 72.5 -11t42 -23.5t27 -23.5t26.5 -11q12 0 21.5 11t24.5 23.5t45 23.5t83 11q102 0 170 -70.5t68 -179.5v-252q0 -10 -4.5 -21t-34.5 -11h-281q-8 0 -15 -9.5t-7 -27.5v-154q0 -61 28.5 -93t75.5 -32t74.5 32 t27.5 93q0 6 12.5 9t59.5 3q41 0 52.5 -3t11.5 -15q0 -68 -18.5 -117t-50.5 -79.5t-76 -45t-93 -14.5q-47 0 -72.5 8t-41 19.5t-27 19.5t-29.5 8t-29.5 -8t-27 -19.5t-42 -19.5t-73.5 -8q-123 0 -180.5 69.5t-57.5 178.5zM197 262q0 -63 27.5 -94t74.5 -31t75.5 32t28.5 93 v475q0 43 -28.5 83t-75.5 40q-45 0 -73.5 -40t-28.5 -83v-475zM537 606q0 -23 18 -25.5t80 -2.5q66 0 87 3t21 25v131q0 47 -28.5 85t-73.5 38q-47 0 -75.5 -39t-28.5 -84v-131z" />
<glyph unicode="&#x178;" horiz-adv-x="468" d="M20 1412q0 13 10 15q13 4 40 5q47 0 63.5 -5.5t20.5 -27.5q18 -135 34.5 -264t32.5 -254q0 -4 3 -11.5t9 -7.5t8.5 8.5t2.5 12.5q20 137 34.5 257t32.5 259q4 20 19.5 26.5t56.5 6.5t53 -5q9 -3 10 -15q0 -4 -1 -9q-16 -90 -29.5 -173t-28 -165t-29 -165t-28.5 -175 q-6 -35 -10.5 -65.5t-8.5 -55.5q-2 -14 -7 -43t-5 -57v-488q0 -14 -25.5 -15t-46.5 -1q-25 0 -45 2t-20 21v117q0 56 1 113.5t1 117.5v127q0 29 -3 56.5t-7 43.5q-4 20 -11.5 55t-13.5 70q-16 90 -30.5 174t-28 166t-26.5 166q-3 18 -11 55t-12.5 69t-4.5 59zM21 1598 q2 33 17 59.5t69 24.5q35 -2 57.5 -27.5t24.5 -60.5q2 -18 2 -34.5t-7.5 -30t-25 -21.5t-51.5 -12q-39 -4 -64.5 28.5t-21.5 73.5zM297 1598q2 33 17.5 59.5t68.5 24.5q35 -2 57.5 -27.5t24.5 -60.5q2 -18 2 -34.5t-7 -30t-24.5 -21.5t-52.5 -12q-39 -4 -64.5 28.5 t-21.5 73.5z" />
<glyph unicode="&#x2c6;" horiz-adv-x="585" d="M90 1171q-10 14 13.5 30t52.5 44q39 37 78.5 70t58.5 33q8 0 24.5 -9.5t36 -25t40 -33.5t38.5 -35q29 -29 52.5 -44t13.5 -30q-8 -16 -15.5 -28.5t-11.5 -28.5q-4 -14 -15.5 -23.5t-33.5 13.5q-55 53 -87 77.5t-42 24.5t-38 -21.5t-89 -80.5q-23 -23 -34 -13.5t-15 23.5 q-4 16 -11.5 28.5t-15.5 28.5z" />
<glyph unicode="&#x2dc;" horiz-adv-x="585" d="M78 1163q-10 14 10.5 32.5t54.5 41.5q29 18 49.5 29.5t38.5 11.5t35 -1t39 -22q25 -23 38 -32t24 -9q10 0 22 9.5t53 44.5q23 20 34 12t16 -23q4 -16 11 -28t15 -29q10 -14 -12.5 -30.5t-52.5 -43.5q-35 -29 -50.5 -32.5t-33.5 -3.5q-49 0 -74 24q-23 23 -34 30t-28 7 q-8 0 -13 -2t-13 -8t-20.5 -16.5t-32.5 -28.5q-16 -12 -30.5 -8t-19.5 18q-4 16 -11 28.5t-15 28.5z" />
<glyph unicode="&#x2013;" horiz-adv-x="1024" d="M41 492q4 16 3 27t-3 30q0 8 11 14t27.5 10.5t37 5.5t37.5 1h72h128h156h156h128h70q41 2 78 -7.5t37 -25.5t1 -31.5t5 -32.5q4 -12 -12.5 -21t-46.5 -9h-801q-4 0 -18.5 2t-30 6t-26.5 11.5t-9 19.5z" />
<glyph unicode="&#x2014;" horiz-adv-x="1609" d="M41 492q4 16 3 27t-3 30q0 8 11 14t27.5 10.5t37 5.5t37.5 1h72h150h199h226h226h201h148h72q41 2 78 -7.5t37 -25.5t1 -31.5t5 -32.5q4 -12 -12.5 -21t-47.5 -9h-1384q-4 0 -18.5 2t-30 6t-26.5 11.5t-9 19.5z" />
<glyph unicode="&#x2018;" horiz-adv-x="229" d="M41 1198q0 12 3 38t13 52q8 25 20.5 52.5t25 49t24.5 35t25 11.5q10 -2 13 -14.5t1 -31t-7 -41t-9 -42.5q-4 -29 1 -36t17 -18q10 -8 15 -21t5 -38q0 -29 -14 -52.5t-61 -19.5q-31 2 -50.5 23.5t-21.5 52.5z" />
<glyph unicode="&#x2019;" horiz-adv-x="229" d="M41 1364q0 29 14.5 52.5t61.5 19.5q31 -2 50 -23.5t21 -52.5q0 -12 -3 -38t-13 -52q-10 -25 -21.5 -52.5t-23.5 -49t-24.5 -35t-24.5 -11.5q-10 2 -13.5 14.5t-1 31t7.5 41t9 42.5q4 29 -1 36t-18 18q-10 8 -15 21t-5 38z" />
<glyph unicode="&#x201a;" horiz-adv-x="229" d="M49 92q0 29 14.5 52.5t61.5 19.5q31 -2 50.5 -23.5t21.5 -52.5q0 -12 -3.5 -37.5t-13.5 -52.5q-10 -25 -21.5 -52.5t-23.5 -49t-24.5 -35t-24.5 -11.5q-10 2 -13 14.5t-1 31t7 41t9 43.5q4 29 -1 36t-17 17q-10 8 -15.5 21t-5.5 38z" />
<glyph unicode="&#x201c;" horiz-adv-x="403" d="M41 1198q0 12 3 38t13 52q8 25 20.5 52.5t25 49t24.5 35t25 11.5q10 -2 13 -14.5t1 -31t-7 -41t-9 -42.5q-4 -29 1 -36t17 -18q10 -8 15 -21t5 -38q0 -29 -14 -52.5t-61 -19.5q-31 2 -50.5 23.5t-21.5 52.5zM215 1198q0 12 3 38t13 52q8 25 20.5 52.5t25 49t24.5 35 t25 11.5q10 -2 13 -14.5t1 -31t-7 -41t-9 -42.5q-4 -29 1 -36t17 -18q10 -8 15 -21t5 -38q0 -29 -14 -52.5t-61 -19.5q-31 2 -50.5 23.5t-21.5 52.5z" />
<glyph unicode="&#x201d;" horiz-adv-x="403" d="M41 1362q0 29 14.5 52.5t61.5 19.5q31 -2 50 -23.5t21 -52.5q0 -12 -3 -38t-13 -52q-10 -25 -21.5 -52.5t-23.5 -49t-24.5 -35t-24.5 -11.5q-10 2 -13.5 14.5t-1 31t7.5 41t9 42.5q4 29 -1 36t-18 18q-10 8 -15 21t-5 38zM215 1362q0 29 14.5 52.5t61.5 19.5 q31 -2 50 -23.5t21 -52.5q0 -12 -3 -38t-13 -52q-10 -25 -21.5 -52.5t-23.5 -49t-24.5 -35t-24.5 -11.5q-10 2 -13 14.5t-1 31t7 41t9 42.5q4 29 -1 36t-17 18q-10 8 -15.5 21t-5.5 38z" />
<glyph unicode="&#x201e;" horiz-adv-x="403" d="M49 92q0 29 14.5 52.5t61.5 19.5q31 -2 50.5 -23.5t21.5 -52.5q0 -12 -3.5 -37.5t-13.5 -52.5q-10 -25 -21.5 -52.5t-23.5 -49t-24.5 -35t-24.5 -11.5q-10 2 -13 14.5t-1 31t7 41t9 43.5q4 29 -1 36t-17 17q-10 8 -15.5 21t-5.5 38zM223 92q0 29 14.5 52.5t61.5 19.5 q31 -2 50.5 -23.5t21.5 -52.5q0 -12 -3 -37.5t-14 -52.5l-21 -52.5t-23.5 -49t-25 -35t-24.5 -11.5q-10 2 -13 14.5t-1 31t7 41t9 43.5q4 29 -1 36t-17 17q-10 8 -15.5 21t-5.5 38z" />
<glyph unicode="&#x2022;" horiz-adv-x="587" d="M59 549q4 47 15.5 91t37 78t70.5 52t119 14q49 -2 91 -22.5t73 -54t48 -77.5t17 -93q0 -45 -5 -89.5t-26.5 -82t-68.5 -65.5t-129 -38q-53 -6 -100 16.5t-81 64.5t-50.5 96.5t-10.5 109.5z" />
<glyph unicode="&#x2026;" horiz-adv-x="823" d="M41 92q2 33 17.5 59.5t68.5 24.5q35 -2 57.5 -27.5t24.5 -60.5q2 -18 2 -34.5t-7 -30t-24.5 -21.5t-52.5 -12q-39 -4 -64.5 28.5t-21.5 73.5zM328 92q2 33 17 59.5t69 24.5q35 -2 57.5 -27.5t24.5 -60.5q2 -18 2 -34.5t-7.5 -30t-24.5 -21.5t-52 -12q-39 -4 -64.5 28.5 t-21.5 73.5zM614 92q2 33 17.5 59.5t68.5 24.5q35 -2 57.5 -27.5t24.5 -60.5q2 -18 2 -34.5t-7 -30t-24.5 -21.5t-52.5 -12q-39 -4 -64.5 28.5t-21.5 73.5z" />
<glyph unicode="&#x2039;" horiz-adv-x="366" d="M61 506q0 8 11.5 37.5t28 65.5t34 74t29.5 65q16 37 37.5 56t36.5 9q16 -8 23 -15t24 -12q14 -4 18 -13t-8 -36l-37 -78q-18 -39 -32.5 -70.5t-23.5 -54t-9 -28.5t8 -27.5t22.5 -53.5t32.5 -71t39 -78q14 -29 9 -37t-19 -12q-16 -4 -23.5 -11t-23.5 -15q-14 -10 -35 9 t-39 56q-12 25 -29.5 63t-34 73.5t-28 64.5t-11.5 39z" />
<glyph unicode="&#x203a;" horiz-adv-x="366" d="M60.5 239.5q-5.5 8.5 9.5 36.5q20 39 38.5 78t33 71t22.5 53.5t8 27.5t-9 28.5t-23.5 54.5t-33.5 70l-36 78q-12 27 -8 36t18 13q16 4 28.5 11.5t28.5 15.5q14 10 30.5 -9.5t33.5 -55.5q12 -27 29.5 -65t34 -74t27.5 -65.5t11 -37.5q0 -10 -11 -39t-27.5 -64.5t-34 -73.5 t-29.5 -63q-18 -37 -33.5 -56.5t-30.5 -8.5q-16 8 -28.5 15t-28.5 11q-14 4 -19.5 12.5z" />
<glyph unicode="&#x2122;" horiz-adv-x="675" d="M41 1399q0 23 4 30t16 7h199q4 0 6 -7.5t2 -31.5q0 -23 -1 -31t-5 -8q-35 0 -52 1t-17 -20v-393q0 -12 -41 -12q-16 0 -26.5 1t-10.5 9v391q0 23 -14 23h-42q-14 0 -16 8t-2 33zM317 944v469q0 16 12.5 19.5t28.5 3.5q23 0 29 -6.5t10 -22.5q8 -29 19.5 -64.5t22 -67.5 t17.5 -53.5t11 -21.5q2 0 10 21.5t18.5 53.5t20.5 68.5t21 69.5q4 16 13 19.5t25 3.5q23 0 31 -6.5t8 -22.5v-461q0 -6 -8 -9t-31 -3q-16 0 -27 1t-11 9v252q0 25 -5.5 15.5t-13.5 -34t-15 -54t-14 -48.5q-4 -16 -22 -15t-23 17l-12 42t-16 50.5t-13.5 30.5t-5.5 -12v-242 q0 -12 -41 -12q-16 0 -27.5 1t-11.5 9z" />
<glyph unicode="&#xe000;" horiz-adv-x="980" d="M0 980h980v-980h-980v980z" />
<glyph unicode="&#xfb01;" horiz-adv-x="634" d="M423 1323q14 25 61 25h7q35 -2 57.5 -28t24.5 -60q1 -12 2 -25q0 -6 -1 -11q-1 -17 -9 -29.5t-25.5 -22t-48.5 -11.5q-18 -2 -35.5 6.5t-28.5 23.5t-18 34q-5 14 -4 29q0 38 18 69zM426 33v919q0 23 13 28t48 5q41 0 55.5 -3t14.5 -32v-913q0 -29 -10.5 -33t-59.5 -4 q-43 0 -52 4t-9 29zM10 903q0 29 3 43.5t16 14.5q35 0 47 5t12 25v193q0 49 17.5 95t48 80t72.5 54.5t91 20.5q10 0 11 -18v-46q0 -63 -11 -63q-37 0 -73.5 -35t-36.5 -88v-193q0 -23 20.5 -26.5t85.5 -3.5q16 0 21.5 -12.5t5.5 -51.5t-3 -49t-20 -10q-74 0 -92 -4.5 t-18 -26.5v-770q0 -29 -8.5 -33t-48.5 -4q-41 0 -51.5 4t-10.5 29v774q0 20 -10 26.5t-47 6.5q-18 0 -19.5 17t-1.5 46z" />
<glyph unicode="&#xfb02;" horiz-adv-x="622" d="M420 29v1372q0 20 14 25.5t47 5.5q35 0 52.5 -5.5t17.5 -27.5v-1366q0 -23 -11.5 -28t-58.5 -5q-37 0 -49 3t-12 26zM10 903q0 29 3 43.5t16 14.5q35 0 47 5t12 25v193q0 49 17.5 95t48 80t72.5 54.5t91 20.5q10 0 11 -18v-46q0 -63 -11 -63q-37 0 -73.5 -35t-36.5 -88 v-193q0 -23 20.5 -26.5t85.5 -3.5q16 0 21.5 -12.5t5.5 -51.5t-3 -49t-20 -10q-74 0 -92 -4.5t-18 -26.5v-770q0 -29 -8.5 -33t-48.5 -4q-41 0 -51.5 4t-10.5 29v774q0 20 -10 26.5t-47 6.5q-18 0 -19.5 17t-1.5 46z" />
<glyph unicode="&#xfb03;" horiz-adv-x="983" d="M771 1323q14 25 61 25h7q35 -2 57.5 -28t24.5 -60q1 -12 2 -25q0 -6 -1 -11q-1 -17 -9 -29.5t-25.5 -22t-48.5 -11.5q-18 -2 -35.5 6.5t-28.5 23.5t-18 34q-5 14 -4 29q0 38 18 69zM774 33v919q0 23 13 28t48 5q41 0 55.5 -3t14.5 -32v-913q0 -29 -10.5 -33t-59.5 -4 q-43 0 -52 4t-9 29zM358 903q0 29 3 43.5t16 14.5q35 0 47 5t12 25v193q0 49 17.5 95t48 80t72.5 54.5t91 20.5q10 0 11 -18v-46q0 -63 -11 -63q-37 0 -73.5 -35t-36.5 -88v-193q0 -23 20.5 -26.5t85.5 -3.5q16 0 21.5 -12.5t5.5 -51.5t-3 -49t-20 -10q-74 0 -92 -4.5 t-18 -26.5v-770q0 -29 -8.5 -33t-48.5 -4q-41 0 -51.5 4t-10.5 29v774q0 20 -10 26.5t-47 6.5q-18 0 -19.5 17t-1.5 46zM10 903q0 29 3 43.5t16 14.5q35 0 47 5t12 25v193q0 49 17.5 95t48 80t72.5 54.5t91 20.5q10 0 11 -18v-46q0 -63 -11 -63q-37 0 -73.5 -35t-36.5 -88 v-193q0 -23 20.5 -26.5t85.5 -3.5q16 0 21.5 -12.5t5.5 -51.5t-3 -49t-20 -10q-74 0 -92 -4.5t-18 -26.5v-770q0 -29 -8.5 -33t-48.5 -4q-41 0 -51.5 4t-10.5 29v774q0 20 -10 26.5t-47 6.5q-18 0 -19.5 17t-1.5 46z" />
<glyph unicode="&#xfb04;" horiz-adv-x="970" d="M768 29v1372q0 20 14 25.5t47 5.5q35 0 52.5 -5.5t17.5 -27.5v-1366q0 -23 -11.5 -28t-58.5 -5q-37 0 -49 3t-12 26zM358 903q0 29 3 43.5t16 14.5q35 0 47 5t12 25v193q0 49 17.5 95t48 80t72.5 54.5t91 20.5q10 0 11 -18v-46q0 -63 -11 -63q-37 0 -73.5 -35t-36.5 -88 v-193q0 -23 20.5 -26.5t85.5 -3.5q16 0 21.5 -12.5t5.5 -51.5t-3 -49t-20 -10q-74 0 -92 -4.5t-18 -26.5v-770q0 -29 -8.5 -33t-48.5 -4q-41 0 -51.5 4t-10.5 29v774q0 20 -10 26.5t-47 6.5q-18 0 -19.5 17t-1.5 46zM10 903q0 29 3 43.5t16 14.5q35 0 47 5t12 25v193 q0 49 17.5 95t48 80t72.5 54.5t91 20.5q10 0 11 -18v-46q0 -63 -11 -63q-37 0 -73.5 -35t-36.5 -88v-193q0 -23 20.5 -26.5t85.5 -3.5q16 0 21.5 -12.5t5.5 -51.5t-3 -49t-20 -10q-74 0 -92 -4.5t-18 -26.5v-770q0 -29 -8.5 -33t-48.5 -4q-41 0 -51.5 4t-10.5 29v774 q0 20 -10 26.5t-47 6.5q-18 0 -19.5 17t-1.5 46z" />
</font>
</defs>
</svg>
